<svg width="24" height="24" viewBox="0 0 24 24" fill="none" xmlns="http://www.w3.org/2000/svg">
<path d="M10 9.5C10 10.8807 8.88071 12 7.5 12C6.11929 12 5 10.8807 5 9.5C5 8.11929 6.11929 7 7.5 7C8.88071 7 10 8.11929 10 9.5Z" fill="white"/>
<path d="M13 7C12.4477 7 12 7.44772 12 8C12 8.55228 12.4477 9 13 9H18C18.5523 9 19 8.55228 19 8C19 7.44772 18.5523 7 18 7H13Z" fill="white"/>
<path d="M12 12C12 11.4477 12.4477 11 13 11H18C18.5523 11 19 11.4477 19 12C19 12.5523 18.5523 13 18 13H13C12.4477 13 12 12.5523 12 12Z" fill="white"/>
<path d="M6 15C5.44772 15 5 15.4477 5 16C5 16.5523 5.44772 17 6 17H18C18.5523 17 19 16.5523 19 16C19 15.4477 18.5523 15 18 15H6Z" fill="white"/>
<path fill-rule="evenodd" clip-rule="evenodd" d="M5 2C2.79086 2 1 3.79086 1 6V18C1 20.2091 2.79086 22 5 22H19C21.2091 22 23 20.2091 23 18V6C23 3.79086 21.2091 2 19 2H5ZM19 4H5C3.89543 4 3 4.89543 3 6V18C3 19.1046 3.89543 20 5 20H19C20.1046 20 21 19.1046 21 18V6C21 4.89543 20.1046 4 19 4Z" fill="white"/>
</svg>
