<svg width="24" height="24" viewBox="0 0 24 24" fill="none" xmlns="http://www.w3.org/2000/svg">
<g clip-path="url(#clip0_12636_2426)">
<path d="M10.7207 1.99997C11.363 1.99965 11.8472 1.9994 12.3135 2.1113L12.6192 2.19822C12.9208 2.29626 13.2104 2.42956 13.4815 2.59568L13.6407 2.69919C13.9823 2.9375 14.2916 3.24721 14.6846 3.6406L19.5264 8.4824C20.5097 9.51006 19.2256 10.7817 18.1123 9.89646L13.3477 5.13181C12.9283 4.7124 12.7279 4.51777 12.5772 4.39939L12.4366 4.30076C12.2996 4.21685 12.1534 4.1491 12.001 4.09958L11.8467 4.05661C11.6386 4.00668 11.4055 3.99997 10.6143 3.99997H7.86527C6.99746 3.99997 6.4061 4.00073 5.94925 4.03806C5.50438 4.07445 5.27501 4.14074 5.11429 4.22263C4.73044 4.41827 4.41833 4.73038 4.22269 5.11423C4.1408 5.27495 4.07451 5.50432 4.03812 5.94919C4.00079 6.40604 4.00003 6.9974 4.00003 7.86521V10.6142C4.00003 11.4055 4.00674 11.6386 4.05667 11.8467L4.09964 12.001C4.14916 12.1533 4.21691 12.2996 4.30082 12.4365L4.39945 12.5771C4.51783 12.7279 4.71246 12.9282 5.13187 13.3476L9.89652 18.1123C10.5101 18.7259 10.9289 19.1428 11.2784 19.4394C11.6188 19.7285 11.8275 19.8446 11.9991 19.9004L12.1543 19.9433C12.519 20.0307 12.9021 20.0169 13.2608 19.9004L13.3975 19.8457C13.5446 19.7762 13.7259 19.6564 13.9815 19.4394C14.9065 18.9296 15.8998 19.992 15.3291 20.8808L15.2754 20.9648C14.8949 21.2878 14.5112 21.5565 14.0713 21.7324L13.8789 21.8017C13.0674 22.0654 12.1925 22.0654 11.3809 21.8017C10.8584 21.6319 10.4185 21.3341 9.98343 20.9648C9.56908 20.613 9.09958 20.1435 8.53128 19.5752L3.64066 14.6845C3.24727 14.2916 2.93756 13.9823 2.69925 13.6406L2.59574 13.4814C2.42962 13.2103 2.29633 12.9208 2.19828 12.6191L2.11136 12.3135C1.99946 11.8472 1.99971 11.363 2.00003 10.7207V7.83396C2.00003 7.01334 2.00002 6.33723 2.04496 5.78708C2.09144 5.21819 2.19095 4.69572 2.44046 4.20603C2.82784 3.44592 3.44599 2.82778 4.20609 2.4404C4.69578 2.19089 5.21825 2.09138 5.78714 2.0449C6.33729 1.99996 7.0134 1.99997 7.83402 1.99997H10.7207ZM20.0059 12C20.5582 12 21.0059 12.4477 21.0059 13V15.0058H23C23.5523 15.0058 24 15.4536 24 16.0058C24 16.5581 23.5523 17.0058 23 17.0058H21.0059V19C21.0059 19.5523 20.5582 20 20.0059 20C19.4536 20 19.0059 19.5522 19.0059 19V17.0058H17C16.4478 17.0058 16 16.5581 16 16.0058C16.0001 15.4536 16.4478 15.0059 17 15.0058H19.0059V13C19.0059 12.4477 19.4536 12 20.0059 12ZM7.25882 5.60642C8.0188 5.68341 8.61229 6.32517 8.61234 7.10544C8.61216 7.93738 7.93744 8.6121 7.1055 8.61228C6.32523 8.61223 5.68347 8.01874 5.60648 7.25876L5.59867 7.10544L5.60648 6.95115C5.68366 6.19137 6.32537 5.59866 7.1055 5.59861L7.25882 5.60642Z" fill="white"/>
</g>
<defs>
<clipPath id="clip0_12636_2426">
<rect width="24" height="24" fill="white"/>
</clipPath>
</defs>
</svg>
