<svg width="24" height="24" viewBox="0 0 24 24" fill="none" xmlns="http://www.w3.org/2000/svg">
<path fill-rule="evenodd" clip-rule="evenodd" d="M10.7688 6.70283C10.7688 9.01751 8.97645 10.8939 6.76554 10.8939C4.55463 10.8939 2.76233 9.01751 2.76233 6.70283C2.76233 4.38814 4.55463 2.51172 6.76554 2.51172C8.97645 2.51172 10.7688 4.38814 10.7688 6.70283Z" fill="white"/>
<path d="M11.5707 14.3937C10.4466 13.0696 8.86769 11.9983 6.70232 11.9983C3.29249 11.9983 1.33693 14.6547 0.321432 16.7718C-0.215102 17.8904 -0.0436378 19.062 0.566867 19.9279C1.16442 20.7754 2.16249 21.3119 3.27489 21.3119H10.1297C10.3866 21.3119 10.6375 21.2832 10.8788 21.2288C10.5064 20.3707 10.3 19.424 10.3 18.4291C10.3 16.9278 10.7699 15.5364 11.5707 14.3937Z" fill="white"/>
<path fill-rule="evenodd" clip-rule="evenodd" d="M18.0885 8.73702C18.0885 10.5373 16.6945 11.9968 14.9749 11.9968C13.2553 11.9968 11.8613 10.5373 11.8613 8.73702C11.8613 6.93671 13.2553 5.47727 14.9749 5.47727C16.6945 5.47727 18.0885 6.93671 18.0885 8.73702Z" fill="white"/>
<path d="M12.4984 14.9308C12.6286 14.801 12.839 14.8007 12.9691 14.9308L18.6361 20.5968C18.7661 20.7268 18.7659 20.9383 18.6361 21.0685C18.5059 21.1986 18.2946 21.1986 18.1644 21.0685L16.8138 19.7179C16.6542 20.1533 16.2382 20.4648 15.7474 20.4649H13.4779C12.8458 20.4648 12.3334 19.9524 12.3333 19.3204V16.6788C12.3334 16.2867 12.5307 15.9407 12.8314 15.7345L12.4984 15.4015C12.3682 15.2713 12.3682 15.0609 12.4984 14.9308ZM13.4779 19.9601H15.7474L15.7513 19.9591H13.474L13.4779 19.9601ZM18.8607 16.0743C19.2459 15.9386 19.6672 16.2227 19.6673 16.6476V19.3517C19.6673 19.758 19.2822 20.0348 18.9115 19.9396L17.3909 18.419V17.2823C17.391 16.9972 17.551 16.7361 17.805 16.6065L18.7845 16.1065L18.8607 16.0743ZM19.1605 19.3526L19.1615 19.3517V16.6476L19.1605 19.3526ZM15.7474 15.5343C16.3756 15.5344 16.8849 16.0438 16.8851 16.672V17.9132L14.5052 15.5343H15.7474Z" fill="white"/>
</svg>
