<svg width="24" height="24" viewBox="0 0 24 24" fill="none" xmlns="http://www.w3.org/2000/svg">
<path fill-rule="evenodd" clip-rule="evenodd" d="M10.7688 6.70246C10.7688 9.01714 8.97645 10.8936 6.76554 10.8936C4.55463 10.8936 2.76233 9.01714 2.76233 6.70246C2.76233 4.38777 4.55463 2.51135 6.76554 2.51135C8.97645 2.51135 10.7688 4.38777 10.7688 6.70246Z" fill="white"/>
<path d="M11.5707 14.3933C10.4466 13.0692 8.86769 11.9979 6.70232 11.9979C3.29249 11.9979 1.33693 14.6544 0.321432 16.7715C-0.215102 17.89 -0.0436377 19.0616 0.566867 19.9275C1.16442 20.7751 2.16249 21.3115 3.27489 21.3115H10.1297C10.3866 21.3115 10.6375 21.2829 10.8788 21.2284C10.5064 20.3704 10.3 19.4236 10.3 18.4287C10.3 16.9275 10.7699 15.536 11.5707 14.3933Z" fill="white"/>
<path fill-rule="evenodd" clip-rule="evenodd" d="M17.3397 13.7353C16.6918 13.7353 16.1666 14.2605 16.1666 14.9084V17.2545H13.8205C13.1726 17.2545 12.6474 17.7797 12.6474 18.4276C12.6474 19.0755 13.1726 19.6007 13.8205 19.6007H16.1666V21.9468C16.1666 22.5947 16.6918 23.1199 17.3397 23.1199C17.9876 23.1199 18.5128 22.5947 18.5128 21.9468V19.6007H20.8589C21.5068 19.6007 22.032 19.0755 22.032 18.4276C22.032 17.7797 21.5068 17.2545 20.8589 17.2545H18.5128V14.9084C18.5128 14.2605 17.9876 13.7353 17.3397 13.7353Z" fill="white"/>
<path fill-rule="evenodd" clip-rule="evenodd" d="M18.0885 8.73665C18.0885 10.537 16.6945 11.9964 14.9749 11.9964C13.2553 11.9964 11.8613 10.537 11.8613 8.73665C11.8613 6.93634 13.2553 5.4769 14.9749 5.4769C16.6945 5.4769 18.0885 6.93634 18.0885 8.73665Z" fill="white"/>
</svg>
