<svg width="24" height="24" viewBox="0 0 24 24" fill="none" xmlns="http://www.w3.org/2000/svg">
<path fill-rule="evenodd" clip-rule="evenodd" d="M17.4998 11C18.3283 11 18.9998 10.3284 18.9998 9.5C18.9998 8.67157 18.3283 8 17.4998 8C16.6714 8 15.9998 8.67157 15.9998 9.5C15.9998 10.3284 16.6714 11 17.4998 11ZM17.4998 13C19.4328 13 20.9998 11.433 20.9998 9.5C20.9998 7.567 19.4328 6 17.4998 6C15.5668 6 13.9998 7.567 13.9998 9.5C13.9998 11.433 15.5668 13 17.4998 13Z" fill="white"/>
<path fill-rule="evenodd" clip-rule="evenodd" d="M8.49984 10C9.88055 10 10.9998 8.88071 10.9998 7.5C10.9998 6.11929 9.88055 5 8.49984 5C7.11913 5 5.99984 6.11929 5.99984 7.5C5.99984 8.88071 7.11913 10 8.49984 10ZM8.49984 12C10.9851 12 12.9998 9.98528 12.9998 7.5C12.9998 5.01472 10.9851 3 8.49984 3C6.01456 3 3.99984 5.01472 3.99984 7.5C3.99984 9.98528 6.01456 12 8.49984 12Z" fill="white"/>
<path d="M8.49984 12C4.66687 12 2.46866 14.8522 1.32714 17.1253C0.724024 18.3264 0.916767 19.5843 1.60303 20.514C2.27474 21.424 3.39667 22 4.64712 22H12.3526C12.8176 22 13.2649 21.9203 13.6779 21.7734C13.3725 21.1885 13.1607 20.547 13.0623 19.8688C12.851 19.9517 12.612 20 12.3526 20H4.64712C4.00841 20 3.49328 19.7071 3.21216 19.3263C2.94561 18.9652 2.86977 18.5101 3.11444 18.0229C4.15413 15.9525 5.83684 14 8.49984 14C10.7321 14 12.2756 15.372 13.3289 17.0353C13.5743 16.3267 13.9489 15.6784 14.4244 15.1184C13.144 13.4571 11.2395 12 8.49984 12Z" fill="white"/>
<path fill-rule="evenodd" clip-rule="evenodd" d="M18.9998 15C18.4476 15 17.9998 15.4477 17.9998 16V18H15.9998C15.4476 18 14.9998 18.4477 14.9998 19C14.9998 19.5523 15.4476 20 15.9998 20H17.9998V22C17.9998 22.5523 18.4476 23 18.9998 23C19.5521 23 19.9998 22.5523 19.9998 22V20H21.9998C22.5521 20 22.9998 19.5523 22.9998 19C22.9998 18.4477 22.5521 18 21.9998 18H19.9998V16C19.9998 15.4477 19.5521 15 18.9998 15Z" fill="white"/>
</svg>
