<svg width="24" height="24" viewBox="0 0 24 24" fill="none" xmlns="http://www.w3.org/2000/svg">
<path fill-rule="evenodd" clip-rule="evenodd" d="M10.7688 6.70283C10.7688 9.01751 8.97645 10.8939 6.76554 10.8939C4.55463 10.8939 2.76233 9.01751 2.76233 6.70283C2.76233 4.38814 4.55463 2.51172 6.76554 2.51172C8.97645 2.51172 10.7688 4.38814 10.7688 6.70283Z" fill="white"/>
<path d="M11.5707 14.3937C10.4466 13.0696 8.86769 11.9983 6.70232 11.9983C3.29249 11.9983 1.33693 14.6547 0.321432 16.7718C-0.215102 17.8904 -0.0436378 19.062 0.566867 19.9279C1.16442 20.7754 2.16249 21.3119 3.27489 21.3119H10.1297C10.3866 21.3119 10.6375 21.2832 10.8788 21.2288C10.5064 20.3707 10.3 19.424 10.3 18.4291C10.3 16.9278 10.7699 15.5364 11.5707 14.3937Z" fill="white"/>
<path fill-rule="evenodd" clip-rule="evenodd" d="M18.0885 8.73702C18.0885 10.5373 16.6945 11.9968 14.9749 11.9968C13.2553 11.9968 11.8613 10.5373 11.8613 8.73702C11.8613 6.93671 13.2553 5.47727 14.9749 5.47727C16.6945 5.47727 18.0885 6.93671 18.0885 8.73702Z" fill="white"/>
<path d="M14.9224 17.2655V17.9812C14.9224 18.9236 15.7018 19.6875 16.6633 19.6875C16.8808 19.6875 17.0889 19.6484 17.2809 19.577L17.8275 20.1127C17.4807 20.295 17.0843 20.3984 16.6633 20.3984C15.3012 20.3984 14.197 19.3162 14.197 17.9812C14.197 17.7457 14.0022 17.5547 13.7618 17.5547C13.5214 17.5547 13.3266 17.7457 13.3266 17.9812C13.3266 19.5944 14.5182 20.9347 16.0858 21.2028C16.0839 21.2188 16.083 21.2351 16.083 21.2516V22.6734C16.083 22.909 16.2778 23.1 16.5182 23.1C16.7586 23.1 16.9534 22.909 16.9534 22.6734V21.2516L16.9533 21.2394C17.506 21.1927 18.0203 21.014 18.463 20.7356L19.0938 21.3538C19.2637 21.5204 19.5393 21.5204 19.7092 21.3538C19.8792 21.1872 19.8792 20.9171 19.7092 20.7506L13.743 14.903C13.573 14.7364 13.2974 14.7364 13.1275 14.903C12.9575 15.0696 12.9575 15.3397 13.1275 15.5063L14.9224 17.2655Z" fill="white"/>
<path d="M19.0113 18.7229L19.6807 19.379C19.8855 18.9552 20 18.4813 20 17.9812C20 17.7457 19.8051 17.5547 19.5648 17.5547C19.3244 17.5547 19.1296 17.7457 19.1296 17.9812C19.1296 18.24 19.0881 18.4892 19.0113 18.7229Z" fill="white"/>
<path d="M15.1224 14.9114L18.3983 18.1221C18.4022 18.0757 18.4042 18.0287 18.4042 17.9812V15.7062C18.4042 14.7639 17.6248 14 16.6633 14C15.9947 14 15.4141 14.3694 15.1224 14.9114Z" fill="white"/>
</svg>
