<svg width="24" height="24" viewBox="0 0 24 24" fill="none" xmlns="http://www.w3.org/2000/svg">
<path fill-rule="evenodd" clip-rule="evenodd" d="M8.49984 12C10.9851 12 12.9998 9.98528 12.9998 7.5C12.9998 5.01472 10.9851 3 8.49984 3C6.01456 3 3.99984 5.01472 3.99984 7.5C3.99984 9.98528 6.01456 12 8.49984 12ZM8.49984 10C9.88055 10 10.9998 8.88071 10.9998 7.5C10.9998 6.11929 9.88055 5 8.49984 5C7.11913 5 5.99984 6.11929 5.99984 7.5C5.99984 8.88071 7.11913 10 8.49984 10ZM8.49984 12C11.2395 12 13.144 13.4571 14.4244 15.1184C13.9489 15.6784 13.5743 16.3267 13.3289 17.0353C12.2756 15.372 10.7321 14 8.49984 14C5.83684 14 4.15413 15.9525 3.11444 18.0229C2.86977 18.5101 2.94561 18.9652 3.21216 19.3263C3.49328 19.7071 4.00841 20 4.64712 20H12.3526C12.612 20 12.851 19.9517 13.0623 19.8688C13.1607 20.547 13.3725 21.1885 13.6779 21.7734C13.2649 21.9203 12.8176 22 12.3526 22H4.64712C3.39667 22 2.27474 21.424 1.60303 20.514C0.916767 19.5843 0.724024 18.3264 1.32714 17.1253C2.46866 14.8522 4.66687 12 8.49984 12Z" fill="white"/>
<path fill-rule="evenodd" clip-rule="evenodd" d="M17.4998 13C19.4328 13 20.9998 11.433 20.9998 9.5C20.9998 7.567 19.4328 6 17.4998 6C15.5668 6 13.9998 7.567 13.9998 9.5C13.9998 11.433 15.5668 13 17.4998 13ZM17.4998 11C18.3283 11 18.9998 10.3284 18.9998 9.5C18.9998 8.67157 18.3283 8 17.4998 8C16.6714 8 15.9998 8.67157 15.9998 9.5C15.9998 10.3284 16.6714 11 17.4998 11Z" fill="white"/>
<path d="M20.9482 15.931C20.5577 15.5405 19.9245 15.5405 19.534 15.931C19.1435 16.3215 19.1435 16.9547 19.534 17.3452L19.8269 17.6381H16.2411C15.6888 17.6381 15.2411 18.0858 15.2411 18.6381C15.2411 19.1904 15.6888 19.6381 16.2411 19.6381H19.8269L19.534 19.931C19.1435 20.3215 19.1435 20.9547 19.534 21.3452C19.9245 21.7358 20.5577 21.7358 20.9482 21.3452L22.9482 19.3452C23.3387 18.9547 23.3387 18.3215 22.9482 17.931L20.9482 15.931Z" fill="white"/>
</svg>
