<svg width="24" height="24" viewBox="0 0 24 24" fill="none" xmlns="http://www.w3.org/2000/svg">
<path d="M9.90527 1.93219C10.1609 1.93219 10.3884 2.09647 10.4678 2.33942C10.8271 3.44077 11.1804 4.10845 11.6475 4.57574C12.1104 5.03867 12.7406 5.36138 13.7686 5.65582C14.0218 5.72837 14.1971 5.95977 14.1973 6.22321C14.1971 6.48667 14.0219 6.71901 13.7686 6.79156C12.7032 7.09676 12.064 7.43189 11.5957 7.92438C11.1542 8.38883 10.8138 9.04668 10.4678 10.107C10.3884 10.3498 10.1608 10.5152 9.90527 10.5152C9.64994 10.515 9.42307 10.3497 9.34375 10.107C8.98436 9.0056 8.63122 8.33794 8.16406 7.87067C7.70109 7.40763 7.07021 7.08606 6.04199 6.79156C5.78892 6.71887 5.61441 6.48652 5.61426 6.22321C5.61444 5.96 5.78906 5.72858 6.04199 5.65582C7.07003 5.36138 7.70111 5.03865 8.16406 4.57574C8.63108 4.10846 8.98442 3.44066 9.34375 2.33942L9.38086 2.2525C9.4808 2.05844 9.68186 1.93241 9.90527 1.93219Z" fill="white"/>
<path d="M8.38827 17.8344L15.5775 10.701L18.2015 13.325L11.0681 20.5142L7.76743 21.6144C7.47115 21.7132 7.18929 21.4313 7.28805 21.1351L8.38827 17.8344Z" fill="white"/>
<path d="M16.4243 9.85413L17.7642 8.51422C18.5042 7.77421 19.704 7.77421 20.444 8.51422C21.184 9.25423 21.184 10.454 20.444 11.194L19.1041 12.5339L16.4243 9.85413Z" fill="white"/>
<path d="M5.52832 9.84537C5.70717 9.84548 5.86639 9.96047 5.92188 10.1305C6.20933 11.0114 6.49516 11.5534 6.87695 11.9352C7.25577 12.3139 7.76851 12.5744 8.5918 12.8102C8.76892 12.8611 8.89148 13.0234 8.8916 13.2077C8.89142 13.392 8.76899 13.5543 8.5918 13.6051C7.73794 13.8497 7.21738 14.1208 6.83398 14.5241C6.4733 14.9035 6.19869 15.4373 5.92188 16.2858C5.86629 16.4557 5.70705 16.5708 5.52832 16.571C5.34969 16.5708 5.19141 16.4555 5.13574 16.2858C4.84828 15.4047 4.5624 14.8621 4.18066 14.4801C3.80185 14.1013 3.28823 13.841 2.46484 13.6051C2.28783 13.5542 2.16619 13.3919 2.16602 13.2077C2.16613 13.0234 2.28771 12.8611 2.46484 12.8102C3.28841 12.5743 3.80181 12.3141 4.18066 11.9352C4.56243 11.5533 4.84829 11.0115 5.13574 10.1305L5.16113 10.069C5.23112 9.93315 5.37189 9.84547 5.52832 9.84537Z" fill="white"/>
</svg>
