<svg width="24" height="24" viewBox="0 0 24 24" fill="none" xmlns="http://www.w3.org/2000/svg">
<path d="M6.5 7.25C6.5 6.55964 7.05964 6 7.75 6C8.44036 6 9 6.55964 9 7.25V16.75C9 17.4404 8.44036 18 7.75 18C7.05964 18 6.5 17.4404 6.5 16.75V7.25Z" fill="white"/>
<path d="M11 4.25C11 3.55964 11.5596 3 12.25 3C12.9404 3 13.5 3.55964 13.5 4.25V19.75C13.5 20.4404 12.9404 21 12.25 21C11.5596 21 11 20.4404 11 19.75V4.25Z" fill="white"/>
<path d="M2 5.25C2 4.55964 2.55964 4 3.25 4C3.94036 4 4.5 4.55964 4.5 5.25V18.75C4.5 19.4404 3.94036 20 3.25 20C2.55964 20 2 19.4404 2 18.75V5.25Z" fill="white"/>
<path d="M20 5.25C20 4.55964 20.5596 4 21.25 4C21.9404 4 22.5 4.55964 22.5 5.25V18.75C22.5 19.4404 21.9404 20 21.25 20C20.5596 20 20 19.4404 20 18.75V5.25Z" fill="white"/>
<path d="M15.5 7.25C15.5 6.55964 16.0596 6 16.75 6C17.4404 6 18 6.55964 18 7.25V16.75C18 17.4404 17.4404 18 16.75 18C16.0596 18 15.5 17.4404 15.5 16.75V7.25Z" fill="white"/>
</svg>
