<svg width="24" height="24" viewBox="0 0 24 24" fill="none" xmlns="http://www.w3.org/2000/svg">
<path d="M17.2932 4.79486C17.1055 4.6062 16.8504 4.50012 16.5843 4.50012H7.41421C7.149 4.50012 6.89464 4.60548 6.70711 4.79302L2.29289 9.20723C2.10536 9.39476 2 9.64912 2 9.91434V17.0001C2 18.3814 3.15807 19.5001 4.53921 19.5001H19.4999C20.8812 19.5001 21.9999 18.3814 21.9999 17.0001V9.93888C21.9999 9.67457 21.8953 9.421 21.7089 9.23362L17.2932 4.79486ZM7.69 6.16684H16.3407L19.6453 9.51702L15.8354 9.5021C15.5585 9.50102 15.3372 9.72679 15.2896 9.99958C15.0308 11.4842 13.6565 12.8334 12.0002 12.8334C10.3429 12.8334 8.96833 11.4829 8.71038 9.99765C8.66312 9.72558 8.44304 9.50013 8.16689 9.50013H4.35689L7.69 6.16684ZM20.3332 17.0001C20.3332 17.4596 19.9595 17.8333 19.4999 17.8333H4.53921C4.066 17.8333 3.66671 17.4518 3.66671 17.0001V11.1668H7.25886C7.97857 13.0675 9.88904 14.5001 11.9749 14.5001C14.0586 14.5001 15.9549 13.0702 16.6764 11.172L20.3335 11.1863L20.3332 17.0001Z" fill="white"/>
<path d="M1.83984 17.0001V9.91418C1.83988 9.60659 1.96218 9.31138 2.17969 9.09387L6.59375 4.67981C6.81126 4.4623 7.10647 4.34001 7.41406 4.33997L7.41421 4.50012C7.149 4.50012 6.89464 4.60548 6.70711 4.79302L2.29289 9.20723L2.22656 9.2804C2.08071 9.45833 2.00004 9.68226 2 9.91434V17.0001C2 18.3814 3.15807 19.5001 4.53921 19.5001H19.4999C20.7948 19.5001 21.8593 18.5169 21.9873 17.256L21.9999 17.0001V9.93888C21.9999 9.70757 21.9194 9.48442 21.7744 9.30676L21.7089 9.23362L17.2932 4.79486C17.1055 4.6062 16.8504 4.50012 16.5843 4.50012L16.584 4.33997C16.8925 4.33997 17.1886 4.46311 17.4062 4.68176L21.8223 9.12122C22.0383 9.3385 22.1601 9.63219 22.1602 9.9386V17.0001C22.1602 18.4697 20.9696 19.6602 19.5 19.6603H4.53906C3.07288 19.6602 1.83984 18.4729 1.83984 17.0001ZM19.5 17.673L19.4999 17.8333H4.53921L4.53906 17.673H19.5ZM20.1729 17.0001V11.3458L16.7842 11.3322C16.0124 13.2355 14.0918 14.6603 11.9746 14.6603C9.85592 14.6601 7.9222 13.2333 7.15137 11.3273H3.82715V17.0001C3.82719 17.3566 4.14733 17.6729 4.53906 17.673L4.53921 17.8333C4.09572 17.8333 3.7166 17.4981 3.6709 17.0841L3.66671 17.0001V11.1668H7.25886C7.97857 13.0675 9.88904 14.5001 11.9749 14.5001C14.0586 14.5001 15.9549 13.0702 16.6764 11.172L20.3335 11.1863L20.3332 17.0001L20.3291 17.0851C20.2892 17.4769 19.9767 17.7894 19.585 17.8292L19.4999 17.8333L19.5 17.673C19.8711 17.6729 20.1728 17.3712 20.1729 17.0001ZM8.16699 9.33997C8.53652 9.34002 8.81036 9.63797 8.86816 9.96985C9.11435 11.3874 10.4293 12.6729 12 12.673L12.0002 12.8334C10.3429 12.8334 8.96833 11.4829 8.71038 9.99765C8.66886 9.75977 8.49523 9.55668 8.26758 9.50989L8.16689 9.50013L8.16699 9.33997ZM19.6453 9.51702L15.8354 9.5021C15.5585 9.50102 15.3372 9.72679 15.2896 9.99958L15.2285 10.2765C14.8581 11.6478 13.5529 12.8334 12.0002 12.8334L12 12.673C13.5698 12.673 14.8848 11.3887 15.1318 9.9718C15.19 9.63905 15.4653 9.34053 15.8359 9.34192L19.2607 9.35461L16.2734 6.32727H7.75586L4.74316 9.33997H8.16699L8.16689 9.50013H4.35689L7.69 6.16684H16.3407L19.6453 9.51702ZM16.584 4.33997L16.5843 4.50012H7.41421L7.41406 4.33997H16.584Z" fill="white"/>
</svg>
