<svg width="24" height="24" viewBox="0 0 24 24" fill="none" xmlns="http://www.w3.org/2000/svg">
<path fill-rule="evenodd" clip-rule="evenodd" d="M9.98601 3.00556C8.33688 3.00556 7 4.34617 7 5.99989V16C7 18.7493 9.25846 20.9722 12 21C14.7811 21.0282 17 18.7889 17 16V7C17 6.44618 17.4477 6 18 6C18.5523 6 19 6.44618 19 7V16C19 19.9045 15.8935 23.0395 12 23C8.16184 22.961 5 19.849 5 16V5.99989C5 3.23853 7.23231 1 9.98601 1C12.7397 1 15 3.23853 15 5.99989V15.6136C15 17.2828 13.6226 18.636 11.958 18.636C10.2935 18.636 9 17.2828 9 15.6136V7C9 6.44618 9.44771 5.99989 10 5.99989C10.5523 5.99989 11 6.44618 11 7V16C11 16.5616 11.44 17 12 17C12.56 17 13 16.5616 13 16V5.99989C13 4.34617 11.6351 3.00556 9.98601 3.00556Z" fill="white"/>
</svg>
