<svg width="24" height="24" viewBox="0 0 24 24" fill="none" xmlns="http://www.w3.org/2000/svg">
<path fill-rule="evenodd" clip-rule="evenodd" d="M14.2929 4.29289C14.6834 3.90237 15.3166 3.90237 15.7071 4.29289L20.7071 9.29289C21.0976 9.68342 21.0976 10.3166 20.7071 10.7071L15.7071 15.7071C15.3166 16.0976 14.6834 16.0976 14.2929 15.7071C13.9024 15.3166 13.9024 14.6834 14.2929 14.2929L17.5858 11L18.5858 10L17.5858 9L14.2929 5.70711C13.9024 5.31658 13.9024 4.68342 14.2929 4.29289Z" fill="white"/>
<path d="M5.87868 11.8787C6.44129 11.3161 7.20435 11 8 11H17.5858L18.5858 10L17.5858 9H8C6.67392 9 5.40215 9.52678 4.46447 10.4645C3.52678 11.4021 3 12.6739 3 14V18C3 18.5523 3.44772 19 4 19C4.55228 19 5 18.5523 5 18V14C5 13.2044 5.31607 12.4413 5.87868 11.8787Z" fill="white"/>
</svg>
