<svg width="24" height="24" viewBox="0 0 24 24" fill="none" xmlns="http://www.w3.org/2000/svg">
<path d="M3.96906 11.7422H1.46334L1.44998 10.176H3.48128C3.84656 10.176 4.13834 10.1352 4.35661 10.0534C4.57489 9.96719 4.73303 9.84235 4.83103 9.67892C4.93349 9.5155 4.98471 9.31122 4.98471 9.06608C4.98471 8.78462 4.93349 8.55764 4.83103 8.38514C4.72857 8.21264 4.56598 8.0878 4.34325 8.01062C4.12497 7.92891 3.84211 7.88805 3.49465 7.88805H2.34535V15.9572H0V6.04271H3.49465C4.09602 6.04271 4.6328 6.09945 5.10499 6.21294C5.57718 6.32189 5.97809 6.48986 6.30773 6.71684C6.64183 6.94382 6.89574 7.22981 7.06947 7.57482C7.2432 7.91529 7.33007 8.31705 7.33007 8.78008C7.33007 9.18411 7.24543 9.56316 7.07616 9.91725C6.90688 10.2713 6.62401 10.5596 6.22755 10.782C5.83555 10.9999 5.29876 11.1134 4.61721 11.1225L3.96906 11.7422ZM3.87551 15.9572H0.895378L1.69721 14.1186H3.87551C4.19625 14.1186 4.45239 14.0687 4.64394 13.9688C4.83994 13.8644 4.98026 13.7282 5.0649 13.5603C5.15399 13.3878 5.19854 13.1971 5.19854 12.9883C5.19854 12.7341 5.15622 12.5139 5.07158 12.3278C4.9914 12.1417 4.86221 11.9987 4.68403 11.8988C4.50584 11.7944 4.26752 11.7422 3.96906 11.7422H1.99789L2.01126 10.176H4.36998L4.91789 10.8025C5.56827 10.7752 6.08278 10.8683 6.46142 11.0817C6.84452 11.295 7.11847 11.5765 7.28329 11.926C7.44812 12.2756 7.53053 12.641 7.53053 13.0223C7.53053 13.6715 7.39243 14.214 7.11625 14.6498C6.84452 15.0856 6.43692 15.4124 5.89346 15.6303C5.34999 15.8482 4.67735 15.9572 3.87551 15.9572Z" fill="white"/>
<path d="M8.02143 15.9572L8.19933 15.1204L9.3762 14.7579L10.9499 7.19932L9.92358 6.85068L10.0878 6H13.7826L13.6047 6.85068L12.4005 7.19932L10.8268 14.7579L11.8805 15.1204L11.7163 15.9572H8.02143Z" fill="white"/>
<path d="M20.4712 6.04271H22.1417V12.6682C22.1417 13.4218 21.9814 14.0528 21.6606 14.5613C21.3399 15.0697 20.9033 15.4533 20.351 15.712C19.8031 15.9663 19.1905 16.0934 18.5134 16.0934C17.8141 16.0934 17.1904 15.9663 16.6425 15.712C16.0946 15.4533 15.6625 15.0697 15.3462 14.5613C15.0344 14.0528 14.8785 13.4218 14.8785 12.6682V6.04271H16.549V12.6682C16.549 13.1449 16.6291 13.5376 16.7895 13.8463C16.9499 14.1504 17.1771 14.3751 17.4711 14.5204C17.7651 14.6657 18.1125 14.7383 18.5134 14.7383C18.9144 14.7383 19.2596 14.6657 19.5491 14.5204C19.8431 14.3751 20.0703 14.1504 20.2307 13.8463C20.3911 13.5376 20.4712 13.1449 20.4712 12.6682V6.04271Z" fill="white"/>
<path d="M14.0232 17.3191H24V18H14.0232V17.3191Z" fill="white"/>
</svg>
