<svg width="24" height="24" viewBox="0 0 24 24" fill="none" xmlns="http://www.w3.org/2000/svg">
<path d="M16.7068 11.5219C17.3995 10.7379 17.8333 9.73594 17.8333 8.625C17.8333 6.14332 15.7399 4.125 13.1667 4.125L6.16667 4.12535C5.52245 4.12535 5 4.62844 5 5.25035C5 5.87227 5.52245 6.37535 6.16667 6.37535H6.75V17.6254H6.16667C5.52245 17.6254 5 18.1284 5 18.7504C5 19.3723 5.52245 19.8754 6.16667 19.8754H14.3333C16.9066 19.8754 19 17.857 19 15.3754C19 13.7332 18.074 12.3094 16.7068 11.5219ZM9.08333 6.37535H13.1667C14.4536 6.37535 15.5 7.38504 15.5 8.62535C15.5 9.86566 14.4536 10.8754 13.1667 10.8754H9.08333V6.37535ZM14.3333 17.625H9.08333V13.125H14.3333C15.6203 13.125 16.6667 14.1343 16.6667 15.3434C16.6667 16.5524 15.6203 17.625 14.3333 17.625Z" fill="white"/>
</svg>
