<svg width="24" height="24" viewBox="0 0 24 24" fill="none" xmlns="http://www.w3.org/2000/svg">
<path fill-rule="evenodd" clip-rule="evenodd" d="M10 2.54947C10 1.4449 10.8954 0.549469 12 0.549469C13.1046 0.549469 14 1.4449 14 2.54947C14 3.30266 13.5837 3.9586 12.9686 4.29972C12.9891 4.37955 13 4.46323 13 4.54947V6.54947H17C19.2091 6.54947 21 8.34033 21 10.5495V16.5495C21 18.7586 19.2091 20.5495 17 20.5495H9.1272C8.64276 20.5495 8.17478 20.7253 7.8102 21.0443L5.48776 23.0765C4.51788 23.9251 3 23.2363 3 21.9476V10.5495C3 8.34033 4.79086 6.54947 7 6.54947H11V4.54947C11 4.46323 11.0109 4.37955 11.0314 4.29972C10.4163 3.9586 10 3.30266 10 2.54947ZM7 8.54947C5.89543 8.54947 5 9.4449 5 10.5495V20.8457L6.49319 19.5392C7.22235 18.9011 8.15831 18.5495 9.1272 18.5495H17C18.1046 18.5495 19 17.654 19 16.5495V10.5495C19 9.4449 18.1046 8.54947 17 8.54947H7ZM8 12.5495C8 11.9972 8.44771 11.5495 9 11.5495C9.55229 11.5495 10 11.9972 10 12.5495V14.5495C10 15.1018 9.55229 15.5495 9 15.5495C8.44771 15.5495 8 15.1018 8 14.5495V12.5495ZM15 11.5495C14.4477 11.5495 14 11.9972 14 12.5495V14.5495C14 15.1018 14.4477 15.5495 15 15.5495C15.5523 15.5495 16 15.1018 16 14.5495V12.5495C16 11.9972 15.5523 11.5495 15 11.5495Z" fill="white"/>
</svg>
