<svg width="24" height="24" viewBox="0 0 24 24" fill="none" xmlns="http://www.w3.org/2000/svg">
<path fill-rule="evenodd" clip-rule="evenodd" d="M2.46677 17.6695C2.45112 17.5992 2.44287 17.5262 2.44287 17.4512V5.80255C2.44287 5.68755 2.46228 5.57708 2.49801 5.47424C2.95624 3.332 7.99695 1.66577 12.2119 1.66577C16.4082 1.66577 21.0202 3.34348 21.4758 5.47472C21.5125 5.57873 21.5324 5.69063 21.5324 5.80719L21.5325 11.2721H21.5492C21.5492 11.3795 21.5436 11.485 21.5325 11.5887L21.5326 17.3342H21.5453C21.5453 17.4415 21.5396 17.5469 21.5286 17.6506C21.5271 17.6669 21.5252 17.6832 21.523 17.6993C21.3342 19.2324 19.9732 20.3601 18.4974 21.065C16.8241 21.8642 14.6042 22.3342 12.2739 22.3342C9.94506 22.3342 7.59905 21.8648 5.80221 21.0788C4.90551 20.6865 4.09811 20.1948 3.49964 19.6012C2.97606 19.0818 2.5625 18.4307 2.46677 17.6695ZM19.3085 5.65787C19.3782 5.72361 19.4266 5.7772 19.4598 5.81853C19.4267 5.85961 19.3785 5.91279 19.3093 5.97799C19.0142 6.25602 18.497 6.58953 17.7401 6.90982C16.2343 7.54709 14.1768 7.96558 12.2119 7.96558C10.247 7.96558 8.06431 7.53977 6.42656 6.88148C5.60307 6.55047 5.02307 6.20261 4.68498 5.90594C4.63643 5.86333 4.59695 5.82563 4.565 5.7929C4.59542 5.76233 4.63255 5.72741 4.6777 5.68817C5.0134 5.39644 5.59153 5.05399 6.41557 4.72841C8.05344 4.0813 10.2397 3.66577 12.2119 3.66577C14.1759 3.66577 16.2329 4.08549 17.7388 4.7241C18.4955 5.04503 19.0131 5.37921 19.3085 5.65787ZM19.5269 5.9195L19.5244 5.91407C19.5263 5.91978 19.5276 5.92263 19.5278 5.92263C19.528 5.92262 19.5277 5.92158 19.5269 5.9195ZM19.5325 8.25682C17.7031 9.29274 14.8738 9.96558 12.2119 9.96558C9.47756 9.96558 6.39573 9.24458 4.44287 8.15201V11.2721H4.44978C4.44978 11.4702 4.54606 11.756 4.91208 12.1191C5.27852 12.4826 5.8497 12.8527 6.60774 13.1843C8.12037 13.846 10.1884 14.2721 12.2779 14.2721C14.3658 14.2721 16.2816 13.8467 17.6394 13.1982C18.9259 12.5837 19.4378 11.9206 19.5325 11.4375L19.5325 8.25682ZM4.44287 17.3342V14.2888C4.85816 14.5611 5.319 14.8036 5.80619 15.0167C7.60303 15.8027 9.94904 16.2721 12.2779 16.2721C14.6082 16.2721 16.8281 15.8021 18.5014 15.0029C18.8567 14.8332 19.2053 14.639 19.5326 14.4205L19.5326 17.4773C19.4494 17.9622 18.9418 18.6363 17.6354 19.2603C16.2776 19.9088 14.3619 20.3342 12.2739 20.3342C10.1844 20.3342 8.11639 19.9081 6.60376 19.2465C5.84572 18.9148 5.27454 18.5447 4.9081 18.1812C4.54208 17.8181 4.4458 17.5323 4.4458 17.3342H4.44287Z" fill="white"/>
</svg>
