<svg width="24" height="24" viewBox="0 0 24 24" fill="none" xmlns="http://www.w3.org/2000/svg">
<path d="M19.778 15.1213C19.778 14.569 19.3303 14.1213 18.778 14.1213L16.5354 14.1213C15.6445 14.1213 15.1983 15.1985 15.8283 15.8284L16.2425 16.2426C13.902 18.5832 10.0977 18.5832 7.75721 16.2426C7.23661 15.722 6.82872 15.1263 6.54178 14.491C6.35318 14.0734 5.95807 13.7678 5.4999 13.7678C4.83708 13.7678 4.3431 14.3856 4.58968 15.0009C4.97663 15.9664 5.55942 16.8733 6.343 17.6569C9.46841 20.7823 14.5313 20.7823 17.6567 17.6569L18.0709 18.0711C18.7009 18.701 19.778 18.2549 19.778 17.364V15.1213ZM7.75721 7.75736C10.0977 5.41683 13.902 5.41683 16.2425 7.75736C16.7631 8.27796 17.171 8.87372 17.4579 9.50902C17.6465 9.92657 18.0416 10.2322 18.4998 10.2322C19.1626 10.2322 19.6566 9.61438 19.41 8.99913C19.0231 8.0336 18.4403 7.12673 17.6567 6.34314C14.5313 3.21773 9.46841 3.21773 6.343 6.34314L5.92879 5.92893C5.29882 5.29896 4.22168 5.74513 4.22168 6.63604L4.22168 8.87868C4.22168 9.43096 4.6694 9.87868 5.22168 9.87868H7.46432C8.35523 9.87868 8.80139 8.80154 8.17143 8.17157L7.75721 7.75736Z" fill="white"/>
</svg>
