<svg width="24" height="24" viewBox="0 0 24 24" fill="none" xmlns="http://www.w3.org/2000/svg">
<path fill-rule="evenodd" clip-rule="evenodd" d="M9.3999 3C9.3999 2.44772 8.95219 2 8.3999 2C7.84762 2 7.3999 2.44772 7.3999 3V3.7998H6.6C4.05949 3.7998 2 5.85929 2 8.39981V10.2002V17.3998C2 19.9403 4.05949 21.9998 6.6 21.9998H17.4C19.9405 21.9998 22 19.9403 22 17.3998V10.2002V8.39981C22 5.85929 19.9405 3.7998 17.4 3.7998H16.6001V3C16.6001 2.44772 16.1524 2 15.6001 2C15.0478 2 14.6001 2.44772 14.6001 3V3.7998H9.3999V3ZM20 9.2002V8.39981C20 6.96386 18.8359 5.7998 17.4 5.7998H16.6001V6.6C16.6001 7.15228 16.1524 7.6 15.6001 7.6C15.0478 7.6 14.6001 7.15228 14.6001 6.6V5.7998H9.3999V6.6C9.3999 7.15228 8.95219 7.6 8.3999 7.6C7.84762 7.6 7.3999 7.15228 7.3999 6.6V5.7998H6.6C5.16406 5.7998 4 6.96386 4 8.39981V9.2002H20ZM4 11.2002H20V17.3998C20 18.8357 18.8359 19.9998 17.4 19.9998H6.6C5.16406 19.9998 4 18.8357 4 17.3998V11.2002Z" fill="white"/>
</svg>
