<svg width="24" height="24" viewBox="0 0 24 24" fill="none" xmlns="http://www.w3.org/2000/svg">
<path fill-rule="evenodd" clip-rule="evenodd" d="M22.2049 10.4378C21.5762 9.68832 20.7388 9.09866 19.6063 8.57292C17.8635 7.75855 15.9814 7.28485 13.7014 7.07718L13.7002 7.07707C10.9248 6.83145 8.20905 7.174 5.62515 8.08933L5.6211 8.0908C4.65755 8.4418 3.35746 8.97751 2.25954 9.95777L2.24133 9.97473C2.18369 10.0284 2.11975 10.088 2.0549 10.1538C1.31764 10.9028 0.964683 11.7867 1.00279 12.8225L1.01749 14.6128L1.01758 14.618C1.03015 15.2972 1.25542 15.8996 1.68426 16.3335C2.11393 16.7682 2.70635 16.9916 3.3734 16.9903L6.48341 16.9844C7.13265 16.9947 7.7275 16.7817 8.16644 16.3358C8.60592 15.8894 8.81661 15.2833 8.81784 14.6228C8.81903 14.5505 8.82022 13.5806 8.82067 13.1046L8.87301 13.0868L8.87829 13.085C9.0345 13.0319 9.15842 12.9918 9.27093 12.9662C10.5925 12.6641 12.0044 12.5933 13.5913 12.7537C13.9279 12.7933 14.2276 12.8403 14.5002 12.8967C14.7569 12.9499 14.9896 13.0113 15.2068 13.0828L15.1934 14.6059L15.1934 14.6094C15.1921 15.2798 15.3972 15.8992 15.8371 16.346C16.2755 16.7914 16.8818 17.0041 17.5478 16.9999L17.5489 16.9999L20.6716 16.994L20.6764 16.9939C21.3154 16.9863 21.8948 16.7658 22.3294 16.3244C22.762 15.885 22.9796 15.2951 22.9963 14.639L23 12.6583C23.0015 11.8256 22.7345 11.0745 22.2063 10.4394L22.2049 10.4378ZM20.7691 11.6701C20.3529 11.1747 19.749 10.7357 18.8118 10.3039L18.8103 10.3032C17.2811 9.59203 15.6048 9.16696 13.519 8.97498C11.0103 8.75193 8.55913 9.06143 6.23321 9.88684C5.36832 10.2003 4.32148 10.6425 3.48996 11.3855C3.44275 11.4282 3.40394 11.4637 3.37155 11.4966C3.00276 11.8713 2.85484 12.253 2.87185 12.7361L2.8723 12.7491L2.88941 14.5663L2.88945 14.5682C2.8942 14.8153 2.9576 14.924 3.00343 14.9713C3.04653 15.0158 3.14172 15.076 3.36507 15.0756L6.49664 15.0669L6.50592 15.0673C6.57537 15.0697 6.64636 15.0637 6.70762 15.0465C6.76723 15.0297 6.80596 15.006 6.83167 14.9799C6.87283 14.9381 6.93255 14.835 6.93296 14.6147L6.93663 12.6423C6.93679 12.5329 6.93743 12.0824 7.29118 11.7231C7.43507 11.5769 7.60862 11.4749 7.80419 11.411L7.81521 11.4074L8.84453 11.0982L8.8604 11.0946C10.3937 10.7441 12.0101 10.6638 13.7913 10.8495L13.7959 10.85C14.806 10.9651 15.5853 11.1541 16.3154 11.4587L16.332 11.4656L16.3402 11.4698C16.3473 11.4729 16.361 11.479 16.3764 11.4868C16.5057 11.5522 16.693 11.6621 16.8443 11.8591C17.0193 12.0334 17.0825 12.458 17.0923 12.6486L17.0705 14.6012C17.0704 14.8521 17.1325 14.9504 17.1665 14.9851C17.2007 15.0198 17.298 15.083 17.5465 15.0826L20.6601 15.0766C20.864 15.078 20.9601 15.0193 21.0024 14.9763C21.0516 14.9264 21.112 14.8182 21.1166 14.6143L21.1203 12.6607C21.121 12.2742 21.0078 11.9617 20.7691 11.6701Z" fill="white"/>
</svg>
