<svg width="24" height="24" viewBox="0 0 24 24" fill="none" xmlns="http://www.w3.org/2000/svg">
<path fill-rule="evenodd" clip-rule="evenodd" d="M3.01666 7.0437C2.94217 7.97724 3.11771 8.94587 3.53781 10.0731C4.18073 11.8113 5.14791 13.4156 6.56581 15.1128L6.56658 15.1137C8.29739 17.1749 10.383 18.7998 12.7637 19.9494L12.7675 19.9512C13.6617 20.3733 14.9101 20.9012 16.3194 20.9921L16.3432 20.9931C16.4187 20.9964 16.5024 21 16.591 21C17.5983 21 18.4339 20.6467 19.1045 19.9241L20.2983 18.7101L20.3018 18.7065C20.75 18.2411 21.0012 17.6822 21 17.0974C20.9988 16.5116 20.7444 15.9566 20.2878 15.5018L18.1592 13.3812C17.7226 12.9308 17.173 12.6676 16.5733 12.6676C15.9729 12.6676 15.4213 12.9313 14.9763 13.3746C14.9269 13.4224 14.2738 14.0739 13.9534 14.3937L13.9057 14.3699L13.9009 14.3675C13.7584 14.2965 13.6468 14.2388 13.5528 14.1791C12.4468 13.4795 11.4346 12.5625 10.4584 11.3706C10.2551 11.114 10.082 10.8777 9.93369 10.6535C9.7941 10.4424 9.67645 10.2421 9.57613 10.0457L10.6095 9.03057L10.6119 9.02823C11.0636 8.57821 11.3401 8.02161 11.3401 7.42059C11.3401 6.82163 11.0689 6.2644 10.6112 5.81221L10.6103 5.81142L8.47314 3.68225L8.46982 3.679C8.0282 3.24759 7.48409 3 6.89031 3C6.2993 3 5.75393 3.24799 5.30134 3.6778L3.96677 5.00732C3.40572 5.56625 3.08308 6.2538 3.01683 7.04169L3.01666 7.0437ZM4.82626 7.19587C4.7774 7.81335 4.89471 8.52113 5.24458 9.45173L5.24517 9.4533C5.81158 10.9761 6.6709 12.4072 7.96664 13.9611C9.53046 15.825 11.4131 17.2913 13.5571 18.3252C14.3587 18.7052 15.3713 19.1229 16.439 19.1913C16.4999 19.1949 16.5503 19.1975 16.5946 19.1975C17.0985 19.1975 17.4563 19.0418 17.7695 18.7054L17.7779 18.6963L18.9883 17.4626L18.9896 17.4612C19.1525 17.2918 19.1823 17.1754 19.1828 17.1123C19.1832 17.053 19.1587 16.9475 19.0059 16.7951L16.8607 14.6616L16.8546 14.6551C16.8088 14.606 16.7562 14.5616 16.7028 14.5313C16.6508 14.5018 16.6084 14.4913 16.5733 14.4913C16.5171 14.4913 16.407 14.5198 16.2585 14.6677L14.9296 15.9916C14.8559 16.0651 14.5525 16.3676 14.0692 16.3676C13.8726 16.3676 13.6855 16.3176 13.5089 16.227L13.4989 16.2219L12.5878 15.7267L12.5745 15.7182C11.2914 14.9064 10.1332 13.8562 9.04122 12.5146L9.03838 12.5111C8.4258 11.7437 8.02055 11.0842 7.72657 10.3805L7.71992 10.3646L7.71709 10.3562C7.71433 10.3492 7.70909 10.3358 7.7038 10.32C7.65953 10.1877 7.60545 9.98581 7.63456 9.7499C7.63221 9.51324 7.87456 9.18445 7.99604 9.04964L9.32404 7.75139C9.49282 7.58275 9.51661 7.47421 9.51661 7.42766C9.51661 7.38098 9.49268 7.27194 9.32257 7.10248L7.19152 4.97947C7.05321 4.83927 6.94811 4.81307 6.89031 4.81307C6.82308 4.81307 6.70911 4.84454 6.56877 4.97852L5.25255 6.28977C4.99215 6.54919 4.85927 6.83672 4.82626 7.19587Z" fill="white"/>
</svg>
