<svg width="24" height="24" viewBox="0 0 24 24" fill="none" xmlns="http://www.w3.org/2000/svg">
<path fill-rule="evenodd" clip-rule="evenodd" d="M2.53781 10.0731C2.11771 8.94587 1.94217 7.97724 2.01666 7.0437L2.01683 7.04169C2.08308 6.2538 2.40572 5.56625 2.96677 5.00732L4.30134 3.6778C4.75393 3.24799 5.2993 3 5.89031 3C6.48409 3 7.0282 3.24759 7.46982 3.679L7.47314 3.68225L9.61035 5.81142L9.61115 5.81221C10.0689 6.2644 10.3401 6.82163 10.3401 7.42059C10.3401 8.02161 10.0636 8.57821 9.6119 9.02823L9.60955 9.03057L8.57613 10.0457C8.67645 10.2421 8.7941 10.4424 8.93369 10.6535C9.08199 10.8777 9.25507 11.114 9.45845 11.3706C10.4346 12.5625 11.4468 13.4795 12.5528 14.1791C12.6468 14.2388 12.7584 14.2965 12.9009 14.3675L12.9534 14.3937C13.2738 14.0739 13.9269 13.4224 13.9763 13.3746C14.4213 12.9313 14.9729 12.6676 15.5733 12.6676C16.173 12.6676 16.7226 12.9308 17.1592 13.3812L19.2878 15.5018C19.7444 15.9566 19.9988 16.5116 20 17.0974C20.0012 17.6822 19.75 18.2411 19.3018 18.7065L19.2983 18.7101L18.1045 19.9241C17.4339 20.6467 16.5983 21 15.591 21C15.5024 21 15.4187 20.9964 15.3432 20.9931L15.3194 20.9921C13.9101 20.9012 12.6617 20.3733 11.7675 19.9512L11.7637 19.9494C9.38297 18.7998 7.29739 17.1749 5.56658 15.1137L5.56581 15.1128C4.14791 13.4156 3.18073 11.8113 2.53781 10.0731ZM4.24458 9.45173C3.89471 8.52113 3.7774 7.81335 3.82626 7.19587C3.85927 6.83672 3.99215 6.54919 4.25255 6.28977L5.56877 4.97852C5.70911 4.84454 5.82308 4.81307 5.89031 4.81307C5.94811 4.81307 6.05321 4.83927 6.19152 4.97947L8.32257 7.10248C8.49268 7.27194 8.51661 7.38098 8.51661 7.42766C8.51661 7.47421 8.49282 7.58275 8.32404 7.75139L6.99604 9.04964C6.87456 9.18445 6.63221 9.51324 6.63456 9.7499C6.60545 9.98581 6.65953 10.1877 6.7038 10.32C6.70909 10.3358 6.71433 10.3492 6.71709 10.3562L6.71992 10.3646L6.72657 10.3805C7.02055 11.0842 7.4258 11.7437 8.03838 12.5111L8.04122 12.5146C9.13316 13.8562 10.2914 14.9064 11.5745 15.7182L11.5878 15.7267L12.4989 16.2219L12.5089 16.227C12.6855 16.3176 12.8726 16.3676 13.0692 16.3676C13.5525 16.3676 13.8559 16.0651 13.9296 15.9916L15.2585 14.6677C15.407 14.5198 15.5171 14.4913 15.5733 14.4913C15.6084 14.4913 15.6508 14.5018 15.7028 14.5313C15.7562 14.5616 15.8088 14.606 15.8546 14.6551L15.8607 14.6616L18.0059 16.7951C18.1587 16.9475 18.1832 17.053 18.1828 17.1123C18.1823 17.1754 18.1525 17.2918 17.9896 17.4612L17.9883 17.4626L16.7779 18.6963L16.7695 18.7054C16.4563 19.0418 16.0985 19.1975 15.5946 19.1975C15.5503 19.1975 15.4999 19.1949 15.439 19.1913C14.3713 19.1229 13.3587 18.7052 12.5571 18.3252C10.4131 17.2913 8.53046 15.825 6.96664 13.9611C5.6709 12.4072 4.81158 10.9761 4.24517 9.4533L4.24458 9.45173Z" fill="white"/>
<path d="M14.2815 4.64075C13.9062 4.26541 13.9062 3.65685 14.2815 3.28151C14.6569 2.90616 15.2654 2.90616 15.6408 3.28151L17 4.64075L18.3592 3.28151C18.7346 2.90616 19.3431 2.90616 19.7185 3.28151C20.0938 3.65685 20.0938 4.26541 19.7185 4.64075L18.3592 6L19.7185 7.35925C20.0938 7.73459 20.0938 8.34315 19.7185 8.71849C19.3431 9.09384 18.7346 9.09384 18.3592 8.71849L17 7.35925L15.6408 8.71849C15.2654 9.09384 14.6569 9.09384 14.2815 8.71849C13.9062 8.34315 13.9062 7.73459 14.2815 7.35925L15.6408 6L14.2815 4.64075Z" fill="white"/>
</svg>
