<svg width="24" height="24" viewBox="0 0 24 24" fill="none" xmlns="http://www.w3.org/2000/svg">
<path d="M10.6992 8.43814C11.4602 8.2139 12.2648 8.18967 13.0376 8.36781C13.8104 8.54594 14.5249 8.92031 15.1149 9.45457C15.7048 9.98875 16.151 10.6653 16.4132 11.4202C16.5491 11.8115 16.3421 12.2389 15.9508 12.3748C15.5596 12.5107 15.1322 12.3037 14.9963 11.9124C14.8159 11.3931 14.5098 10.9303 14.108 10.5665C13.7063 10.2027 13.222 9.94966 12.7007 9.82948C12.1794 9.70932 11.6368 9.72561 11.1232 9.87697C10.6095 10.0283 10.1404 10.3103 9.76012 10.6978C9.75463 10.7034 9.74905 10.7089 9.74339 10.7144L8.97495 11.45H9.60002C10.0142 11.45 10.35 11.7858 10.35 12.2C10.35 12.6142 10.0142 12.95 9.60002 12.95H7.20002C6.78581 12.95 6.45002 12.6142 6.45002 12.2V9.79999C6.45002 9.38578 6.78581 9.04999 7.20002 9.04999C7.61423 9.04999 7.95002 9.38578 7.95002 9.79999V10.3546L8.69798 9.6386C9.2542 9.07459 9.94224 8.66121 10.6992 8.43814Z" fill="white"/>
<path d="M14.4 14.55H15.0251L14.2567 15.2856C14.251 15.2911 14.2454 15.2966 14.2399 15.3022C13.8597 15.6897 13.3905 15.9717 12.8768 16.123C12.3632 16.2744 11.8207 16.2907 11.2994 16.1705C10.778 16.0503 10.2937 15.7973 9.892 15.4335C9.49022 15.0697 9.18416 14.6069 9.00377 14.0876C8.86786 13.6963 8.44049 13.4893 8.04921 13.6252C7.65793 13.7611 7.45091 14.1885 7.58681 14.5798C7.84905 15.3347 8.29525 16.0113 8.88518 16.5454C9.47519 17.0797 10.1897 17.4541 10.9624 17.6322C11.7353 17.8103 12.5399 17.7861 13.3008 17.5619C14.0578 17.3388 14.7458 16.9254 15.3021 16.3614L16.05 15.6454V16.2C16.05 16.6142 16.3858 16.95 16.8 16.95C17.2142 16.95 17.55 16.6142 17.55 16.2V13.8C17.55 13.3858 17.2142 13.05 16.8 13.05H14.4C13.9858 13.05 13.65 13.3858 13.65 13.8C13.65 14.2142 13.9858 14.55 14.4 14.55Z" fill="white"/>
<path fill-rule="evenodd" clip-rule="evenodd" d="M9.82849 3C9.03284 3 8.26978 3.31607 7.70717 3.87868L6.87874 4.70711C6.69121 4.89464 6.43685 5 6.17163 5H5C2.79086 5 1 6.79086 1 9V18C1 20.2091 2.79086 22 5 22H19C21.2091 22 23 20.2091 23 18V9C23 6.79086 21.2091 5 19 5H17.8285C17.5633 5 17.3089 4.89464 17.1214 4.70711L16.293 3.87868C15.7303 3.31607 14.9673 3 14.1716 3H9.82849ZM9.12138 5.29289C9.30892 5.10536 9.56327 5 9.82849 5H14.1716C14.4369 5 14.6912 5.10536 14.8787 5.29289L15.7072 6.12132C16.2698 6.68393 17.0328 7 17.8285 7H19C20.1046 7 21 7.89543 21 9V18C21 19.1046 20.1046 20 19 20H5C3.89543 20 3 19.1046 3 18V9C3 7.89543 3.89543 7 5 7H6.17163C6.96728 7 7.73035 6.68393 8.29296 6.12132L9.12138 5.29289Z" fill="white"/>
</svg>
