<svg width="24" height="24" viewBox="0 0 24 24" fill="none" xmlns="http://www.w3.org/2000/svg">
<path d="M23.9786 8.05567C23.8317 7.36675 22.8424 7.04042 21.7307 7.30977C21.4907 7.37193 21.2654 7.45481 21.0597 7.55322L21.5642 8.8948C21.5935 8.9207 21.6229 8.94142 21.6523 8.96731C21.9217 9.19523 22.1568 9.44904 22.3576 9.73393C23.435 9.43868 24.1255 8.72386 23.9786 8.05567ZM2.27787 8.97767C2.30726 8.95178 2.33664 8.92588 2.36603 8.90516L2.88516 7.52732C2.69416 7.43409 2.48846 7.36157 2.26808 7.30977C1.13676 7.03524 0.171953 7.35639 0.0201306 8.05567C-0.126794 8.7135 0.544161 9.41796 1.58733 9.72357C1.78322 9.44904 2.01341 9.20041 2.27787 8.97767ZM2.37092 17.7989V20.0832C2.37092 20.5908 2.75782 21 3.23778 21H5.62285C6.09791 21 6.48481 20.5908 6.48481 20.0832V18.0942H3.46306C3.07616 18.0942 2.70395 17.9906 2.37092 17.7989ZM17.4503 18.0942V20.0832C17.4503 20.5908 17.8372 21 18.322 21H20.7022C21.1773 21 21.5691 20.5908 21.5691 20.0832V17.7989C21.236 17.9906 20.854 18.0942 20.472 18.0942H17.4503Z" fill="white"/>
<path d="M21.3436 9.37171C21.2849 9.32105 21.2241 9.27317 21.1614 9.22823L19.2083 4.05877C19.0907 3.74526 18.8865 3.47653 18.6223 3.28766C18.3581 3.09878 18.0462 2.99854 17.7273 3.00002H6.20351C5.54725 3.00002 4.96592 3.41544 4.723 4.05929L2.76744 9.23341C2.70463 9.28083 2.64307 9.33006 2.5828 9.38103C1.50536 10.2922 1.05969 11.7068 1.21885 13.7077C1.29232 14.6297 1.49213 15.5378 1.81194 16.4054C1.94123 16.7607 2.17337 17.058 2.47898 17.2637C2.77087 17.4678 3.11075 17.5755 3.46092 17.5755H20.4699C20.8186 17.5755 21.1692 17.4652 21.4562 17.2647C21.7565 17.059 21.9881 16.7588 22.1184 16.4064C22.438 15.5418 22.6379 14.6328 22.7119 13.7077C22.8716 11.7042 22.4245 10.2859 21.3436 9.37171ZM5.31413 7.99025L6.49932 4.84092C6.53395 4.74784 6.5945 4.66808 6.67295 4.61221C6.7514 4.55634 6.84405 4.52699 6.93862 4.52806H16.9932C17.1891 4.52806 17.3605 4.65082 17.4315 4.84041L18.6167 7.99077C18.6461 8.06535 18.6575 8.14652 18.6498 8.22692C18.6421 8.30733 18.6156 8.38443 18.5726 8.45126C18.5295 8.51985 18.4708 8.57596 18.4019 8.6145C18.3331 8.65303 18.2562 8.67277 18.1783 8.67192H5.75343C5.59475 8.67192 5.45273 8.59215 5.36359 8.45333C5.27446 8.31451 5.25634 8.14565 5.31413 7.99025ZM6.1991 14.0745H3.96585C3.34877 14.0745 2.84433 13.5409 2.84433 12.8883V12.3496C2.84433 12.1165 3.02064 11.93 3.24102 11.93H4.96494C5.41551 11.93 5.822 12.1217 6.12074 12.4325C6.41459 12.7484 6.5958 13.1784 6.5958 13.6549C6.5958 13.888 6.41949 14.0745 6.1991 14.0745ZM16.1307 12.5024L15.4465 14.4593C15.399 14.6007 15.2585 14.6924 15.0973 14.6924H8.83542C8.6738 14.6924 8.53373 14.6007 8.48672 14.4593L7.80205 12.5024C7.7281 12.2869 7.90294 12.0657 8.15124 12.0657H15.7815C16.0293 12.0657 16.2047 12.2869 16.1307 12.5024ZM21.4739 12.8883C21.473 13.2026 21.3545 13.5037 21.1444 13.726C20.9342 13.9482 20.6495 14.0735 20.3523 14.0745H18.1191C17.8987 14.0745 17.7224 13.888 17.7224 13.6549C17.7224 13.1784 17.9036 12.7484 18.2023 12.4325C18.4962 12.1217 18.9027 11.93 19.3533 11.93H21.0772C21.1294 11.9293 21.1813 11.9397 21.2298 11.9605C21.2782 11.9814 21.3222 12.0123 21.3591 12.0514C21.3961 12.0905 21.4253 12.137 21.445 12.1882C21.4647 12.2394 21.4745 12.2943 21.4739 12.3496V12.8883Z" fill="white"/>
</svg>
