<svg width="24" height="24" viewBox="0 0 24 24" fill="none" xmlns="http://www.w3.org/2000/svg">
<path d="M20.568 4.10021C20.28 3.9666 19.92 3.9666 19.704 4.10021L18.624 4.76827C16.896 5.83716 14.7803 6.66667 12.6923 6.66667H7.84615C5.07692 6.66667 3 8.44259 3 11.048C3 13.1858 4.37354 14.7321 6.46154 15.3333V17.6667C6.46154 19.3333 7.15385 20 8.53846 20C9.92308 20 10.2692 19 10.6154 17.6667L11.3077 15.3333L13.08 15.3333C15.024 15.3333 16.824 16.1921 18.48 17.1273L19.704 17.7954C19.848 17.8622 19.992 17.929 20.136 17.929C20.28 17.929 20.424 17.8622 20.568 17.7954C20.856 17.6618 21 17.3946 21 17.1273V4.83507C21 4.50104 20.856 4.23382 20.568 4.10021Z" fill="white"/>
</svg>
