<svg width="24" height="24" viewBox="0 0 24 24" fill="none" xmlns="http://www.w3.org/2000/svg">
<path fill-rule="evenodd" clip-rule="evenodd" d="M8 5.99999H13.0173C15.1959 5.99373 17.0766 4.80257 18.3355 3.72189C18.9188 3.22113 20 3.63114 20 4.39995V13H18V6.45076C16.6728 7.28178 14.9735 7.99437 13.023 7.99998L13.0173 8L8 7.99999C6.34315 7.99999 5 9.34313 5 11C5 12.6568 6.34315 14 8 14H13.0007C13.5926 14 14.1718 14.0799 14.7305 14.217C14.1645 14.7066 13.7095 15.3211 13.4084 16.0177C13.2724 16.0061 13.1362 16 13 16L12.9905 16H12V18C12 19.6569 10.6569 21 9 21C7.34315 21 6 19.6569 6 18V15.5839C4.2341 14.8124 3 13.0503 3 11C3 8.23856 5.23858 5.99999 8 5.99999ZM8 16V18C8 18.5523 8.44772 19 9 19C9.55228 19 10 18.5523 10 18V16H8Z" fill="white"/>
<path d="M18 16C18 15.4477 18.4477 15 19 15C19.5523 15 20 15.4477 20 16V18H22C22.5523 18 23 18.4477 23 19C23 19.5523 22.5523 20 22 20H20V22C20 22.5523 19.5523 23 19 23C18.4477 23 18 22.5523 18 22V20H16C15.4477 20 15 19.5523 15 19C15 18.4477 15.4477 18 16 18H18V16Z" fill="white"/>
</svg>
