<svg width="24" height="24" viewBox="0 0 24 24" fill="none" xmlns="http://www.w3.org/2000/svg">
<path fill-rule="evenodd" clip-rule="evenodd" d="M8 5.99999H13.0173C15.1959 5.99373 17.0766 4.80257 18.3355 3.72189C18.9189 3.22113 20 3.63114 20 4.39995V17.8708C20 18.6095 19.0304 19.0035 18.4667 18.5261C17.1203 17.3859 15.0602 16 13 16L12.9905 16H12V18C12 19.6569 10.6569 21 9 21C7.34315 21 6 19.6569 6 18V15.5839C4.2341 14.8124 3 13.0503 3 11C3 8.23856 5.23858 5.99999 8 5.99999ZM13.0007 14H8C6.34315 14 5 12.6568 5 11C5 9.34313 6.34315 7.99999 8 7.99999L13.0173 8L13.023 7.99998C14.9735 7.99437 16.6728 7.28178 18 6.45076V15.6876C16.6301 14.8044 14.8789 14.0002 13.0007 14ZM8 16V18C8 18.5523 8.44772 19 9 19C9.55228 19 10 18.5523 10 18V16H8Z" fill="white"/>
</svg>
