<svg width="24" height="24" viewBox="0 0 24 24" fill="none" xmlns="http://www.w3.org/2000/svg">
<path d="M11.1118 9.93738L12.8632 7.50803C12.5574 7.32145 12.2345 7.16188 11.8981 7.03178C10.9904 6.68076 10.0112 6.5549 9.04417 6.66502C8.07726 6.77507 7.15137 7.11783 6.34576 7.66391C5.54016 8.21 4.87891 8.9431 4.41855 9.80052C3.95819 10.658 3.71238 11.6142 3.70228 12.5874C3.69219 13.5605 3.918 14.5216 4.36048 15.3884C4.80287 16.2553 5.44874 17.002 6.24286 17.5647C6.76713 17.9362 7.34562 18.2202 7.95581 18.4077C8.47743 18.5681 8.86069 19.0579 8.78773 19.5988C8.71477 20.1396 8.21462 20.5249 7.68687 20.3858C6.76168 20.142 5.88514 19.7335 5.10007 19.1772C4.04559 18.4299 3.18777 17.4382 2.6001 16.287C2.01253 15.1357 1.71256 13.8593 1.72602 12.5668C1.73947 11.2743 2.06583 10.0044 2.67728 8.86563C3.28871 7.72685 4.16695 6.75319 5.23684 6.02795C6.30673 5.30272 7.53644 4.84749 8.82062 4.70133C10.1049 4.55508 11.4054 4.72224 12.6109 5.18842C13.1053 5.37957 13.5776 5.61863 14.0216 5.90124L15.6311 3.66881C15.7351 3.52454 15.9615 3.57755 15.9907 3.75291L16.8837 9.12113C16.9018 9.23013 16.8282 9.33314 16.7192 9.35127L11.3068 10.2516C11.1307 10.2809 11.0073 10.0823 11.1118 9.93738Z" fill="white"/>
<path d="M12.3403 14.7703C11.8677 14.3071 11.1015 14.3071 10.6289 14.7703C10.1563 15.2335 10.1563 15.9845 10.6289 16.4476L14.5304 20.2715C14.7352 20.4722 15.0666 20.4599 15.2559 20.2446L21.92 12.6657C22.3926 12.2025 22.3926 11.4515 21.92 10.9883C21.4474 10.5252 20.6812 10.5252 20.2086 10.9883L14.9074 17.0167L12.3403 14.7703Z" fill="white"/>
</svg>
