<svg width="24" height="24" viewBox="0 0 24 24" fill="none" xmlns="http://www.w3.org/2000/svg">
<path d="M10.3922 17.5949L8.2029 19.1358V16.4788H6.2029C4.954 16.4788 4.17098 16.0187 3.653 15.3626C3.08826 14.6472 2.70996 13.5225 2.70996 12.0704V9C2.70996 6.23819 4.94789 4 7.70894 4H13.852C16.613 4 18.8507 6.23805 18.8507 8.9999V9.25533C19.5722 9.45501 20.2459 9.76978 20.8507 10.1786V8.9999C20.8507 5.13391 17.718 2 13.852 2H7.70894C3.84294 2 0.709961 5.13401 0.709961 9V12.0704C0.709961 15.6097 2.54094 18.4788 6.2029 18.4788V21.2253C6.2029 21.9699 7.04457 22.4031 7.65051 21.9702L11.2002 19.472C10.8426 18.8976 10.5678 18.2663 10.3922 17.5949Z" fill="white"/>
<path d="M10.5666 13.5547H6.77246C6.22018 13.5547 5.77246 13.107 5.77246 12.5547C5.77246 12.0024 6.22018 11.5547 6.77246 11.5547H11.6897C11.2103 12.1478 10.8279 12.8225 10.5666 13.5547Z" fill="white"/>
<path d="M14.3331 9.55469H6.7998C6.24752 9.55469 5.7998 9.10697 5.7998 8.55469C5.7998 8.0024 6.24752 7.55469 6.7998 7.55469H14.7891C15.3413 7.55469 15.7891 8.0024 15.7891 8.55469C15.7891 8.78126 15.7137 8.99023 15.5867 9.15791C15.1522 9.25039 14.7329 9.38408 14.3331 9.55469Z" fill="white"/>
<path fill-rule="evenodd" clip-rule="evenodd" d="M16.8477 13.0785C15.3286 13.0785 14.0971 14.31 14.0971 15.8292C14.0971 17.3483 15.3286 18.5798 16.8477 18.5798C18.3669 18.5798 19.5984 17.3483 19.5984 15.8292C19.5984 14.31 18.3669 13.0785 16.8477 13.0785ZM12.065 15.8292C12.065 13.1878 14.2063 11.0465 16.8477 11.0465C19.4891 11.0465 21.6304 13.1878 21.6304 15.8292C21.6304 16.7837 21.3508 17.6729 20.8689 18.4194L22.8384 20.383C23.2358 20.7792 23.2367 21.4225 22.8406 21.8199C22.4444 22.2172 21.8011 22.2182 21.4037 21.822L19.4308 19.855C18.6858 20.334 17.7992 20.6118 16.8477 20.6118C14.2063 20.6118 12.065 18.4706 12.065 15.8292Z" fill="white"/>
</svg>
