<svg width="24" height="24" viewBox="0 0 24 24" fill="none" xmlns="http://www.w3.org/2000/svg">
<path fill-rule="evenodd" clip-rule="evenodd" d="M7.17071 20.8293C7.10771 20.8923 7 20.8477 7 20.7586V17H6C4.89543 17 4 16.1046 4 15V7C4 5.89543 4.89543 5 6 5H18C19.1046 5 20 5.89543 20 7V15C20 16.1046 19.1046 17 18 17H11L7.17071 20.8293ZM11.8284 19H18C20.2091 19 22 17.2091 22 15V7C22 4.79086 20.2091 3 18 3H6C3.79086 3 2 4.79086 2 7V15C2 16.8638 3.27477 18.4299 5 18.874V20.7586C5 22.6295 7.26199 23.5664 8.58492 22.2435L11.8284 19Z" fill="white"/>
</svg>
