<svg width="24" height="24" viewBox="0 0 24 24" fill="none" xmlns="http://www.w3.org/2000/svg">
<path d="M2 8C2 4.68629 4.68629 2 8 2H16C19.3137 2 22 4.68629 22 8V16C22 19.3137 19.3137 22 16 22H8C4.68629 22 2 19.3137 2 16V8Z" fill="white"/>
<path d="M8.72153 11.3035C8.3277 10.9329 7.68919 10.9329 7.29537 11.3035C6.90154 11.674 6.90154 12.2748 7.29537 12.6454L10.4917 15.6527C10.6947 15.8438 11.0148 15.8319 11.203 15.6263L16.7046 9.61977C17.0985 9.24922 17.0985 8.64845 16.7046 8.27791C16.3108 7.90736 15.6723 7.90736 15.2785 8.27791L10.8608 13.1006L8.72153 11.3035Z" fill="white"/>
</svg>
