<svg width="24" height="24" viewBox="0 0 24 24" fill="none" xmlns="http://www.w3.org/2000/svg">
<g clip-path="url(#clip0_64_38)">
<path fill-rule="evenodd" clip-rule="evenodd" d="M12 24C18.6274 24 24 18.6274 24 12C24 5.37258 18.6274 0 12 0C5.37258 0 0 5.37258 0 12C0 18.6274 5.37258 24 12 24ZM6.35444 11.1294C6.82703 10.6662 7.59324 10.6662 8.06583 11.1294L10.6329 13.3757L15.9342 7.34739C16.4068 6.88421 17.173 6.8842 17.6456 7.34738C18.1181 7.81057 18.1181 8.56153 17.6456 9.02471L10.9814 16.6036C10.7921 16.819 10.4608 16.8313 10.256 16.6306L6.35444 12.8067C5.88185 12.3435 5.88185 11.5925 6.35444 11.1294Z" fill="white"/>
</g>
<defs>
<clipPath id="clip0_64_38">
<rect width="24" height="24" fill="white"/>
</clipPath>
</defs>
</svg>
