<svg width="24" height="24" viewBox="0 0 24 24" fill="none" xmlns="http://www.w3.org/2000/svg">
<path d="M8.39368 11.2019C7.96047 10.7773 7.25811 10.7773 6.8249 11.2019C6.3917 11.6265 6.3917 12.3149 6.8249 12.7395L10.4013 16.2447C10.589 16.4287 10.8927 16.4174 11.0663 16.22L17.1751 9.27265C17.6083 8.84807 17.6083 8.15968 17.1751 7.7351C16.7419 7.31052 16.0395 7.31052 15.6063 7.7351L10.7468 13.2611L8.39368 11.2019Z" fill="white"/>
<path fill-rule="evenodd" clip-rule="evenodd" d="M12 23C18.0751 23 23 18.0751 23 12C23 5.92487 18.0751 1 12 1C5.92487 1 1 5.92487 1 12C1 18.0751 5.92487 23 12 23ZM21 12C21 16.9706 16.9706 21 12 21C7.02944 21 3 16.9706 3 12C3 7.02944 7.02944 3 12 3C16.9706 3 21 7.02944 21 12Z" fill="white"/>
</svg>
