<svg width="24" height="24" viewBox="0 0 24 24" fill="none" xmlns="http://www.w3.org/2000/svg">
<path fill-rule="evenodd" clip-rule="evenodd" d="M20 12C20 16.4183 16.4183 20 12 20C7.58172 20 4 16.4183 4 12C4 7.58172 7.58172 4 12 4C16.4183 4 20 7.58172 20 12ZM15.3333 14L13.3333 12L15.3333 10C15.7015 9.63181 15.7015 9.03486 15.3333 8.66667C14.9651 8.29848 14.3682 8.29848 14 8.66667L12 10.6667L10 8.66667C9.63181 8.29848 9.03486 8.29848 8.66667 8.66667C8.29848 9.03486 8.29848 9.63181 8.66667 10L10.6667 12L8.66667 14C8.29848 14.3682 8.29848 14.9651 8.66667 15.3333C9.03486 15.7015 9.63181 15.7015 10 15.3333L12 13.3333L14 15.3333C14.3682 15.7015 14.9651 15.7015 15.3333 15.3333C15.7015 14.9651 15.7015 14.3682 15.3333 14Z" fill="white"/>
</svg>
