<svg width="24" height="24" viewBox="0 0 24 24" fill="none" xmlns="http://www.w3.org/2000/svg">
<path fill-rule="evenodd" clip-rule="evenodd" d="M11.1924 2.12136C12.364 0.949783 14.2635 0.949783 15.4351 2.12136L19.6777 6.364C20.8493 7.53557 20.8493 9.43506 19.6777 10.6066L12.6066 17.6777C11.4351 18.8493 9.53557 18.8493 8.364 17.6777L4.12136 13.4351C2.94979 12.2635 2.94979 10.364 4.12136 9.19242L11.1924 2.12136ZM14.0209 3.53557L18.2635 7.77821C18.654 8.16873 18.654 8.8019 18.2635 9.19242L16.7783 10.6776L11.1214 5.02079L12.6066 3.53557C12.9972 3.14504 13.6303 3.14504 14.0209 3.53557ZM9.70721 6.435L5.53557 10.6066C5.14505 10.9972 5.14505 11.6303 5.53557 12.0209L9.77822 16.2635C10.1687 16.654 10.8019 16.654 11.1924 16.2635L15.3641 12.0919L9.70721 6.435Z" fill="white"/>
<path fill-rule="evenodd" clip-rule="evenodd" d="M2 21C2 20.4477 2.49746 20 3.11111 20H20.8889C21.5025 20 22 20.4477 22 21C22 21.5523 21.5025 22 20.8889 22H3.11111C2.49746 22 2 21.5523 2 21Z" fill="white"/>
</svg>
