<svg width="24" height="24" viewBox="0 0 24 24" fill="none" xmlns="http://www.w3.org/2000/svg">
<path fill-rule="evenodd" clip-rule="evenodd" d="M12 6C12.5523 6 13 6.44772 13 7V12.382L16.4472 14.1056C16.9412 14.3526 17.1414 14.9532 16.8944 15.4472C16.6474 15.9412 16.0468 16.1414 15.5528 15.8944L11.5528 13.8944C11.214 13.725 11 13.3788 11 13V7C11 6.44772 11.4477 6 12 6Z" fill="white"/>
<path fill-rule="evenodd" clip-rule="evenodd" d="M12 20C16.4183 20 20 16.4183 20 12C20 7.58172 16.4183 4 12 4C7.58172 4 4 7.58172 4 12C4 16.4183 7.58172 20 12 20ZM12 22C17.5228 22 22 17.5228 22 12C22 6.47715 17.5228 2 12 2C6.47715 2 2 6.47715 2 12C2 17.5228 6.47715 22 12 22Z" fill="white"/>
</svg>
