<svg width="24" height="24" viewBox="0 0 24 24" fill="none" xmlns="http://www.w3.org/2000/svg">
<path fill-rule="evenodd" clip-rule="evenodd" d="M2 12C2 6.47772 6.47772 2 12 2C17.4081 2 22 5.92007 22 11C22 14.3123 19.3123 17 16 17H14.23C13.9523 17 13.73 17.2223 13.73 17.5C13.73 17.6156 13.7767 17.7345 13.859 17.8274L13.11 18.49L13.8574 17.8256C14.246 18.2628 14.5 18.8446 14.5 19.5C14.5 20.8823 13.3823 22 12 22C6.47772 22 2 17.5223 2 12ZM12 4C7.58228 4 4 7.58228 4 12C4 16.4177 7.58228 20 12 20C12.2777 20 12.5 19.7777 12.5 19.5C12.5 19.3754 12.454 19.2572 12.3626 19.1544L12.361 19.1526C11.9833 18.7255 11.73 18.1444 11.73 17.5C11.73 16.1177 12.8477 15 14.23 15H16C18.2077 15 20 13.2077 20 11C20 7.23993 16.5319 4 12 4Z" fill="white"/>
<path d="M7.5 13C6.67 13 6 12.33 6 11.5C6 10.67 6.67 10 7.5 10C8.33 10 9 10.67 9 11.5C9 12.33 8.33 13 7.5 13ZM9.5 9C8.67 9 8 8.33 8 7.5C8 6.67 8.67 6 9.5 6C10.33 6 11 6.67 11 7.5C11 8.33 10.33 9 9.5 9ZM14.5 9C13.67 9 13 8.33 13 7.5C13 6.67 13.67 6 14.5 6C15.33 6 16 6.67 16 7.5C16 8.33 15.33 9 14.5 9ZM16.5 13C15.67 13 15 12.33 15 11.5C15 10.67 15.67 10 16.5 10C17.33 10 18 10.67 18 11.5C18 12.33 17.33 13 16.5 13Z" fill="white"/>
</svg>
