<svg width="24" height="24" viewBox="0 0 24 24" fill="none" xmlns="http://www.w3.org/2000/svg">
<g clip-path="url(#clip0_4854_1016)">
<path fill-rule="evenodd" clip-rule="evenodd" d="M5 0C2.23858 0 0 2.23858 0 5V10.1364C0 12.8978 2.23858 15.1364 5 15.1364H5.17438V17.5605C5.17438 18.5903 6.38615 19.1417 7.1626 18.4654L10.984 15.1364H13.2623C16.0238 15.1364 18.2623 12.8978 18.2623 10.1364V5C18.2623 2.23857 16.0238 0 13.2623 0H5ZM2 5C2 3.34315 3.34315 2 5 2H13.2623C14.9192 2 16.2623 3.34314 16.2623 5V10.1364C16.2623 11.7933 14.9192 13.1364 13.2623 13.1364H10.2351L7.17438 15.8027V13.1364H5C3.34315 13.1364 2 11.7933 2 10.1364V5Z" fill="white"/>
<path d="M22.002 9.21575C22.002 7.99203 21.01 7 19.7862 7V5C22.1145 5 24.002 6.88746 24.002 9.21575V14.2229C24.002 16.9684 21.7881 19.2004 19.0426 19.2227L18.4893 19.2272V21.5743C18.4893 22.5904 17.3054 23.1466 16.5233 22.498L12.5347 19.1905H10.5661V17.1905H13.256L16.4893 19.8716V17.2434L19.0264 17.2228C20.6737 17.2094 22.002 15.8702 22.002 14.2229V9.21575Z" fill="white"/>
</g>
<defs>
<clipPath id="clip0_4854_1016">
<rect width="24" height="24" fill="white"/>
</clipPath>
</defs>
</svg>
