<svg width="24" height="24" viewBox="0 0 24 24" fill="none" xmlns="http://www.w3.org/2000/svg">
<path fill-rule="evenodd" clip-rule="evenodd" d="M12 4C7.58172 4 4 7.58172 4 12C4 13.7696 4.57453 15.4049 5.54723 16.7297C7.38746 15.4802 9.60989 14.75 12 14.75C14.3906 14.75 16.6128 15.4804 18.4528 16.7297C19.4255 15.4049 20 13.7696 20 12C20 7.58172 16.4183 4 12 4ZM12 20C10.084 20 8.3253 19.3264 6.9478 18.2032C8.41077 17.2825 10.1419 16.75 12 16.75C13.8576 16.75 15.589 17.2823 17.0522 18.2032C15.6747 19.3264 13.916 20 12 20ZM2 12C2 6.47715 6.47715 2 12 2C17.5228 2 22 6.47715 22 12C22 17.5228 17.5228 22 12 22C6.47715 22 2 17.5228 2 12ZM10 9.5C10 8.39543 10.8954 7.5 12 7.5C13.1046 7.5 14 8.39543 14 9.5C14 10.6046 13.1046 11.5 12 11.5C10.8954 11.5 10 10.6046 10 9.5ZM12 5.5C9.79086 5.5 8 7.29086 8 9.5C8 11.7091 9.79086 13.5 12 13.5C14.2091 13.5 16 11.7091 16 9.5C16 7.29086 14.2091 5.5 12 5.5Z" fill="white"/>
</svg>
