<svg width="24" height="24" viewBox="0 0 24 24" fill="none" xmlns="http://www.w3.org/2000/svg">
<path fill-rule="evenodd" clip-rule="evenodd" d="M12 14C14.2091 14 16 12.2091 16 10C16 7.79086 14.2091 6 12 6C9.79086 6 8 7.79086 8 10C8 12.2091 9.79086 14 12 14ZM12 12C13.1046 12 14 11.1046 14 10C14 8.89543 13.1046 8 12 8C10.8954 8 10 8.89543 10 10C10 11.1046 10.8954 12 12 12Z" fill="white"/>
<path fill-rule="evenodd" clip-rule="evenodd" d="M8 2C4.68629 2 2 4.68629 2 8V16C2 19.3137 4.68629 22 8 22H16C19.3137 22 22 19.3137 22 16V8C22 4.68629 19.3137 2 16 2H8ZM16 4H8C5.79086 4 4 5.79086 4 8V16C4 16.7072 4.18354 17.3716 4.50557 17.948C6.46986 16.1189 9.10426 15 12 15C14.8957 15 17.5301 16.1189 19.4944 17.948C19.8165 17.3716 20 16.7072 20 16V8C20 5.79086 18.2091 4 16 4ZM18.1146 19.396C16.5093 17.909 14.3608 17 12 17C9.63921 17 7.49073 17.909 5.88543 19.396C6.4989 19.7788 7.22362 20 8 20H16C16.7764 20 17.5011 19.7788 18.1146 19.396Z" fill="white"/>
</svg>
