<svg width="24" height="24" viewBox="0 0 24 24" fill="none" xmlns="http://www.w3.org/2000/svg">
<path d="M16 2H5C3.9 2 3 2.9 3 4V17C3 17.55 3.45 18 4 18C4.55 18 5 17.55 5 17V5C5 4.45 5.45 4 6 4H16C16.55 4 17 3.55 17 3C17 2.45 16.55 2 16 2Z" fill="white"/>
<path fill-rule="evenodd" clip-rule="evenodd" d="M7 8C7 6.89543 7.89543 6 9 6H19C20.1046 6 21 6.89543 21 8V20C21 21.1046 20.1046 22 19 22H9C7.89543 22 7 21.1046 7 20V8ZM9 8H19V14.1436C18.7987 14.1254 18.5866 14.1172 18.3641 14.1232C17.2843 14.1523 16.0346 14.503 14.4855 15.4324C13.4511 16.0531 12.3226 16.2166 11.2586 16.2075C10.7265 16.2029 10.2249 16.1556 9.76361 16.1058C9.70019 16.0989 9.63569 16.0918 9.57065 16.0846C9.38072 16.0635 9.18591 16.0419 9 16.0258V8ZM9 18.0349V20H19V16.1547C18.8176 16.1294 18.627 16.1168 18.418 16.1225C17.7585 16.1403 16.8415 16.3512 15.5145 17.1474C14.0489 18.0268 12.5107 18.2183 11.2414 18.2074C10.6068 18.202 10.0251 18.1456 9.54889 18.0942L9.32782 18.0701C9.20633 18.0568 9.0977 18.0449 9 18.0349Z" fill="white"/>
<path d="M15 12C15 13.1046 14.1046 14 13 14C11.8954 14 11 13.1046 11 12C11 10.8954 11.8954 10 13 10C14.1046 10 15 10.8954 15 12Z" fill="white"/>
</svg>
