<svg width="24" height="24" viewBox="0 0 24 24" fill="none" xmlns="http://www.w3.org/2000/svg">
<path d="M12.472 5.94398C13.3488 5.73186 14 4.94198 14 4C14 2.89543 13.1046 2 12 2C10.8954 2 10 2.89543 10 4C10 4.94198 10.6512 5.73186 11.528 5.94398L8.34948 12.301C8.18629 12.6274 7.73978 12.6747 7.51183 12.3898L5.24944 9.56179C5.70699 9.19528 6 8.63186 6 8C6 6.89543 5.10457 6 4 6C2.89543 6 2 6.89543 2 8C2 9.10457 2.89543 10 4 10C4.06717 10 4.13356 9.99669 4.19902 9.99022L4.90995 17.0995C4.96107 17.6107 5.39124 18 5.90499 18H18.095C18.6088 18 19.0389 17.6107 19.09 17.0995L19.801 9.99022C19.8664 9.99669 19.9328 10 20 10C21.1046 10 22 9.10457 22 8C22 6.89543 21.1046 6 20 6C18.8954 6 18 6.89543 18 8C18 8.63186 18.293 9.19528 18.7506 9.56179L16.4882 12.3898C16.2602 12.6747 15.8137 12.6274 15.6505 12.301L12.472 5.94398Z" fill="white"/>
<path d="M5 21C5 20.4477 5.44772 20 6 20H18C18.5523 20 19 20.4477 19 21C19 21.5523 18.5523 22 18 22H6C5.44772 22 5 21.5523 5 21Z" fill="white"/>
</svg>
