<svg width="24" height="24" viewBox="0 0 24 24" fill="none" xmlns="http://www.w3.org/2000/svg">
<g clip-path="url(#clip0_778_4)">
<path fill-rule="evenodd" clip-rule="evenodd" d="M6.35102 4.36598C7.11057 3.49792 8.20788 3 9.36133 3H21C21.7957 3 22.5587 3.31607 23.1213 3.87868C23.684 4.44129 24 5.20435 24 6V18C24 18.7957 23.684 19.5587 23.1213 20.1213C22.5587 20.6839 21.7957 21 21 21H9.36133C8.20788 21 7.11058 20.5021 6.35102 19.634L1.97602 14.634C0.656432 13.1259 0.656429 10.8741 1.97602 9.36598L6.35102 4.36598ZM9.36133 5C8.7846 5 8.23595 5.24896 7.85618 5.68299L3.48117 10.683C2.82138 11.437 2.82138 12.563 3.48118 13.317L7.85618 18.317C8.23595 18.751 8.7846 19 9.36133 19H21C21.2652 19 21.5196 18.8946 21.7071 18.7071C21.8947 18.5196 22 18.2652 22 18V6C22 5.73478 21.8947 5.48043 21.7071 5.29289C21.5196 5.10536 21.2652 5 21 5H9.36133Z" fill="white"/>
<path d="M18.7071 9.70711C19.0976 9.31658 19.0976 8.68342 18.7071 8.29289C18.3166 7.90237 17.6834 7.90237 17.2929 8.29289L15 10.5858L12.7071 8.29289C12.3166 7.90237 11.6834 7.90237 11.2929 8.29289C10.9024 8.68342 10.9024 9.31658 11.2929 9.70711L13.5858 12L11.2929 14.2929C10.9024 14.6834 10.9024 15.3166 11.2929 15.7071C11.6834 16.0976 12.3166 16.0976 12.7071 15.7071L15 13.4142L17.2929 15.7071C17.6834 16.0976 18.3166 16.0976 18.7071 15.7071C19.0976 15.3166 19.0976 14.6834 18.7071 14.2929L16.4142 12L18.7071 9.70711Z" fill="white"/>
</g>
<defs>
<clipPath id="clip0_778_4">
<rect width="24" height="24" fill="white"/>
</clipPath>
</defs>
</svg>
