<svg width="24" height="24" viewBox="0 0 24 24" fill="none" xmlns="http://www.w3.org/2000/svg">
<path d="M9 12C9 11.4477 9.44772 11 10 11C10.5523 11 11 11.4477 11 12V16C11 16.5523 10.5523 17 10 17C9.44772 17 9 16.5523 9 16V12Z" fill="white"/>
<path d="M14 11C13.4477 11 13 11.4477 13 12V16C13 16.5523 13.4477 17 14 17C14.5523 17 15 16.5523 15 16V12C15 11.4477 14.5523 11 14 11Z" fill="white"/>
<path fill-rule="evenodd" clip-rule="evenodd" d="M19 6L16 6V5C16 3.34315 14.6569 2 13 2H11C9.34315 2 8 3.34315 8 5V6H5C4.44772 6 4 6.44772 4 7C4 7.55228 4.44772 8 5 8L5 19C5 20.6569 6.34315 22 8 22H16C17.6569 22 19 20.6569 19 19V8C19.5523 8 20 7.55229 20 7C20 6.44772 19.5523 6 19 6ZM10 6V5C10 4.44772 10.4477 4 11 4H13C13.5523 4 14 4.44772 14 5V6H10ZM17 8H7V19C7 19.5523 7.44772 20 8 20H16C16.5523 20 17 19.5523 17 19V8Z" fill="white"/>
</svg>
