<svg width="24" height="24" viewBox="0 0 24 24" fill="none" xmlns="http://www.w3.org/2000/svg">
<path fill-rule="evenodd" clip-rule="evenodd" d="M10.9999 12C13.7613 12 15.9999 9.76142 15.9999 7C15.9999 4.23858 13.7613 2 10.9999 2C8.23845 2 5.99988 4.23858 5.99988 7C5.99988 9.76142 8.23845 12 10.9999 12ZM10.9999 10C12.6567 10 13.9999 8.65685 13.9999 7C13.9999 5.34315 12.6567 4 10.9999 4C9.34302 4 7.99988 5.34315 7.99988 7C7.99988 8.65685 9.34302 10 10.9999 10Z" fill="white"/>
<path d="M10.9999 12C6.94686 12 4.61536 14.8069 3.39424 17.1096C2.76088 18.3039 2.93666 19.5685 3.61926 20.5056C4.28601 21.4209 5.41064 22 6.66425 22H13.6821C12.912 21.488 12.267 20.8028 11.8026 20H6.66425C6.02308 20 5.51058 19.7052 5.23582 19.328C4.97691 18.9726 4.9068 18.5262 5.16116 18.0466C6.24458 16.0036 8.0465 14 10.9998 14C11.2676 14 11.526 14.0165 11.7751 14.048C12.153 13.3807 12.6549 12.7929 13.2497 12.3161C12.5666 12.1145 11.8183 12 10.9999 12Z" fill="white"/>
<path d="M19.9999 16H13.9999C13.4476 16 12.9999 16.4477 12.9999 17C12.9999 17.5523 13.4476 18 13.9999 18H19.9999C20.5522 18 20.9999 17.5523 20.9999 17C20.9999 16.4477 20.5522 16 19.9999 16Z" fill="white"/>
</svg>
