<svg width="24" height="24" viewBox="0 0 24 24" fill="none" xmlns="http://www.w3.org/2000/svg">
<path fill-rule="evenodd" clip-rule="evenodd" d="M2 9.65C2 7.40979 2 6.28969 2.43597 5.43404C2.81947 4.68139 3.43139 4.06947 4.18404 3.68597C5.03969 3.25 6.15979 3.25 8.4 3.25H15.6C17.8402 3.25 18.9603 3.25 19.816 3.68597C20.5686 4.06947 21.1805 4.68139 21.564 5.43404C22 6.28969 22 7.40979 22 9.65V11.85C22 14.0902 22 15.2103 21.564 16.066C21.1805 16.8186 20.5686 17.4305 19.816 17.814C18.9603 18.25 17.8402 18.25 15.6 18.25H13.7503L16.0164 20.3652C16.5472 20.8606 16.1966 21.75 15.4705 21.75H8.52973C7.80362 21.75 7.45305 20.8606 7.9839 20.3651L10.2503 18.25H8.4C6.15979 18.25 5.03969 18.25 4.18404 17.814C3.43139 17.4305 2.81947 16.8186 2.43597 16.066C2 15.2103 2 14.0902 2 11.85V9.65ZM8.4 5.25H15.6C16.7531 5.25 17.4977 5.25156 18.0643 5.29785C18.6077 5.34225 18.8091 5.4176 18.908 5.46799C19.2843 5.65973 19.5903 5.96569 19.782 6.34202C19.8324 6.44091 19.9078 6.64235 19.9521 7.18567C19.9984 7.75235 20 8.49689 20 9.65V11.85C20 13.0031 19.9984 13.7477 19.9521 14.3143C19.9078 14.8577 19.8324 15.0591 19.782 15.158C19.5903 15.5343 19.2843 15.8403 18.908 16.032C18.8091 16.0824 18.6077 16.1578 18.0643 16.2021C17.4977 16.2484 16.7531 16.25 15.6 16.25H8.4C7.24689 16.25 6.50235 16.2484 5.93567 16.2021C5.39235 16.1578 5.19091 16.0824 5.09202 16.032C4.71569 15.8403 4.40973 15.5343 4.21799 15.158C4.1676 15.0591 4.09225 14.8577 4.04785 14.3143C4.00156 13.7477 4 13.0031 4 11.85V9.65C4 8.49689 4.00156 7.75235 4.04785 7.18567C4.09225 6.64235 4.1676 6.44091 4.21799 6.34202C4.40973 5.96569 4.71569 5.65973 5.09202 5.46799C5.19091 5.4176 5.39235 5.34225 5.93567 5.29785C6.50235 5.25156 7.24689 5.25 8.4 5.25Z" fill="white"/>
</svg>
