<svg width="24" height="24" viewBox="0 0 24 24" fill="none" xmlns="http://www.w3.org/2000/svg">
<path d="M4 6H21C21.5523 6 22 5.55228 22 5C22 4.44772 21.5523 4 21 4H4C2.9 4 2 4.9 2 6V17H1.5C0.671573 17 0 17.6716 0 18.5C0 19.3284 0.671573 20 1.5 20H12.5C13.3284 20 14 19.3284 14 18.5C14 17.6716 13.3284 17 12.5 17H4V6ZM23 8H17C16.45 8 16 8.45 16 9V19C16 19.55 16.45 20 17 20H23C23.55 20 24 19.55 24 19V9C24 8.45 23.55 8 23 8ZM22 16C22 16.5523 21.5523 17 21 17H19C18.4477 17 18 16.5523 18 16V11C18 10.4477 18.4477 10 19 10H21C21.5523 10 22 10.4477 22 11V16Z" fill="white"/>
</svg>
