<svg width="24" height="24" viewBox="0 0 24 24" fill="none" xmlns="http://www.w3.org/2000/svg">
<path d="M8 12C7.44772 12 7 12.4477 7 13C7 13.5523 7.44772 14 8 14H14C14.5523 14 15 13.5523 15 13C15 12.4477 14.5523 12 14 12H8Z" fill="white"/>
<path d="M8 16C7.44772 16 7 16.4477 7 17C7 17.5523 7.44772 18 8 18H16C16.5523 18 17 17.5523 17 17C17 16.4477 16.5523 16 16 16H8Z" fill="white"/>
<path fill-rule="evenodd" clip-rule="evenodd" d="M7 3C5.82081 3 5 4.4369 5 5.53846V18C5 19 5 21 7 21H17C19 21 19 19 19 18V7.98984L14 3H10.8324H7ZM3 5.53846C3 3.30808 4.74065 1 7 1H14.5C15 1 15.4451 1.67019 15.752 1.97314L20.5207 6.68071C20.8276 6.98365 21 7.39453 21 7.82296V19C21 21 19.2593 23 17 23H7C4.74065 23 3 21 3 19V5.53846Z" fill="white"/>
<path fill-rule="evenodd" clip-rule="evenodd" d="M12 6V3H14V6C14 7 15 7.98984 16.0714 8H19V10H16.0714C14.099 10 12 7.97245 12 6Z" fill="white"/>
</svg>
