<svg width="24" height="24" viewBox="0 0 24 24" fill="none" xmlns="http://www.w3.org/2000/svg">
<g clip-path="url(#clip0_11125_2774)">
<path d="M13.8628 1.85293C13.942 1.36072 14.3545 1 14.8378 1C15.1503 1 15.442 1.15125 15.6295 1.40829L16.3336 2.375H18.5045C19.0336 2.375 19.5461 2.59242 19.9211 2.97914L20.667 3.75H23.0003C23.5545 3.75 24.0003 4.21191 24.0003 4.78125V5.8125C24.0003 7.71172 22.5086 9.25 20.667 9.25H17.7795L17.567 10.5605L12.9003 7.81055L13.8628 1.85293ZM18.667 3.75C18.3003 3.75 18.0003 4.05766 18.0003 4.4375C18.0003 4.81734 18.3003 5.125 18.667 5.125C19.0336 5.125 19.3336 4.81734 19.3336 4.4375C19.3336 4.05766 19.0336 3.75 18.667 3.75ZM17.3336 12.0043V21.625C17.3336 22.3855 16.7378 23 16.0003 23H14.667C13.9295 23 13.3336 22.3855 13.3336 21.625V16.675C12.2961 17.2035 11.2003 17.5 10.0003 17.5C8.80031 17.5 7.66697 17.2035 6.66697 16.675V21.625C6.66697 22.3855 6.07114 23 5.33364 23H4.00031C3.26406 23 2.66697 22.3855 2.66697 21.625V11.7336C1.46822 11.2652 0.526972 10.2168 0.201806 8.87617L0.0401308 8.21016C-0.138486 7.47109 0.295889 6.72344 1.01031 6.5043C1.72447 6.3582 2.44864 6.80508 2.62739 7.53984L2.78906 8.21016C2.93739 8.82031 3.47072 9.21133 4.08239 9.21133H12.6586L17.3336 12.0043Z" fill="white"/>
</g>
<defs>
<clipPath id="clip0_11125_2774">
<rect width="24" height="24" fill="white"/>
</clipPath>
</defs>
</svg>
