<svg width="24" height="24" viewBox="0 0 24 24" fill="none" xmlns="http://www.w3.org/2000/svg">
<path d="M10 17.25C10 18.2125 10.7875 19 11.75 19C12.7125 19 13.5 18.2125 13.5 17.25C13.5 16.2875 12.7125 15.5 11.75 15.5C10.7875 15.5 10 16.2875 10 17.25ZM10 6.75C10 7.7125 10.7875 8.5 11.75 8.5C12.7125 8.5 13.5 7.7125 13.5 6.75C13.5 5.7875 12.7125 5 11.75 5C10.7875 5 10 5.7875 10 6.75ZM10 12C10 12.9625 10.7875 13.75 11.75 13.75C12.7125 13.75 13.5 12.9625 13.5 12C13.5 11.0375 12.7125 10.25 11.75 10.25C10.7875 10.25 10 11.0375 10 12Z" fill="white"/>
</svg>
