<svg width="24" height="24" viewBox="0 0 24 24" fill="none" xmlns="http://www.w3.org/2000/svg">
<path d="M12.0001 2.24994C12.5523 2.24994 13.0001 2.69765 13.0001 3.24994V12.3356L14.7928 10.5428C15.1834 10.1523 15.8165 10.1523 16.207 10.5428C16.5976 10.9334 16.5976 11.5665 16.207 11.957L12.707 15.457C12.3165 15.8476 11.6834 15.8476 11.2928 15.457L7.79283 11.957C7.40231 11.5665 7.40231 10.9334 7.79283 10.5428C8.18336 10.1523 8.81652 10.1523 9.20705 10.5428L11.0001 12.3358V3.24994C11.0001 2.69765 11.4478 2.24994 12.0001 2.24994Z" fill="white"/>
<path d="M5 19C4.44772 19 4 19.4477 4 20C4 20.5523 4.44772 21 5 21H19C19.5523 21 20 20.5523 20 20C20 19.4477 19.5523 19 19 19H5Z" fill="white"/>
</svg>
