<svg width="24" height="24" viewBox="0 0 24 24" fill="none" xmlns="http://www.w3.org/2000/svg">
<g clip-path="url(#clip0_508_16)">
<path fill-rule="evenodd" clip-rule="evenodd" d="M12 22C17.5228 22 22 17.5228 22 12C22 6.47715 17.5228 2 12 2C6.47715 2 2 6.47715 2 12C2 17.5228 6.47715 22 12 22ZM12 24C18.6274 24 24 18.6274 24 12C24 5.37258 18.6274 0 12 0C5.37258 0 0 5.37258 0 12C0 18.6274 5.37258 24 12 24Z" fill="white"/>
<path d="M14.68 12.79L12.8 14.67V6C12.8 5.45 12.35 5 11.8 5C11.25 5 10.8 5.45 10.8 6V14.67L8.90998 12.79C8.51998 12.4 7.88998 12.4 7.49998 12.79C7.10998 13.18 7.10998 13.81 7.49998 14.2L11.09 17.79C11.48 18.18 12.11 18.18 12.5 17.79L16.09 14.2C16.48 13.81 16.48 13.18 16.09 12.79C15.7 12.4 15.07 12.4 14.68 12.79Z" fill="white"/>
</g>
<defs>
<clipPath id="clip0_508_16">
<rect width="24" height="24" fill="white"/>
</clipPath>
</defs>
</svg>
