<svg width="24" height="24" viewBox="0 0 24 24" fill="none" xmlns="http://www.w3.org/2000/svg">
<path d="M11.99 2C6.47 2 2 6.48 2 12C2 17.52 6.47 22 11.99 22C17.52 22 22 17.52 22 12C22 6.48 17.52 2 11.99 2ZM19 8H16C15.68 6.75 15.19 5.55 14.59 4.44C16.43 5.07 18.04 6.35 19 8ZM12 4C12.83 5.2 13.57 6.57 14 8H10C10.43 6.57 11.17 5.2 12 4ZM4.26 14C4.1 13.36 4 12.69 4 12C4 11.31 4.1 10.64 4.26 10H7.64C7.56 10.66 7.5 11.32 7.5 12C7.5 12.68 7.56 13.34 7.64 14H4.26ZM5 16H8C8.32 17.25 8.81 18.45 9.41 19.56C7.57 18.93 5.96 17.66 5 16ZM8 8H5C5.96 6.34 7.57 5.07 9.41 4.44C8.81 5.55 8.32 6.75 8 8ZM12 20C11.17 18.8 10.43 17.43 10 16H14C13.57 17.43 12.83 18.8 12 20ZM14.34 14H9.66C9.57 13.34 9.5 12.68 9.5 12C9.5 11.32 9.57 10.65 9.66 10H14.34C14.43 10.65 14.5 11.32 14.5 12C14.5 12.68 14.43 13.34 14.34 14ZM14.59 19.56C15.19 18.45 15.68 17.25 16 16H19C18.04 17.65 16.43 18.93 14.59 19.56ZM16.36 14C16.44 13.34 16.5 12.68 16.5 12C16.5 11.32 16.44 10.66 16.36 10H19.74C19.9 10.64 20 11.31 20 12C20 12.69 19.9 13.36 19.74 14H16.36Z" fill="white"/>
</svg>
