<svg width="24" height="24" viewBox="0 0 24 24" fill="none" xmlns="http://www.w3.org/2000/svg">
<path d="M1 7C1 4.79086 2.79086 3 5 3H17C19.2091 3 21 4.79086 21 7V11.6736C20.3783 11.3783 19.7061 11.1719 19 11.0709V7C19 5.89543 18.1046 5 17 5H5C3.89543 5 3 5.89543 3 7V15C3 16.1046 3.89543 17 5 17H11.0709C11.0242 17.3266 11 17.6605 11 18C11 18.3395 11.0242 18.6734 11.0709 19H5C2.79086 19 1 17.2091 1 15V7Z" fill="white"/>
<path d="M6.5145 8.14251C6.04092 7.85836 5.42666 8.01192 5.14251 8.4855C4.85836 8.95908 5.01192 9.57334 5.4855 9.85749L9.97101 12.5488C10.6044 12.9288 11.3956 12.9288 12.029 12.5488L16.5145 9.85749C16.9881 9.57334 17.1416 8.95908 16.8575 8.4855C16.5733 8.01192 15.9591 7.85836 15.4855 8.14251L11 10.8338L6.5145 8.14251Z" fill="white"/>
<path d="M19.5121 16.4879L20.1214 15.8786C19.5785 15.3358 18.8285 15 18.0001 15C16.6939 15 15.5826 15.8348 15.1708 17H13.1001C13.5634 14.7178 15.5811 13 18.0001 13C19.3808 13 20.6308 13.5596 21.5356 14.4644L22.4879 13.5121C22.6769 13.3231 23 13.457 23 13.7243V16.7C23 16.8657 22.8657 17 22.7 17H19.7243C19.457 17 19.3231 16.6769 19.5121 16.4879Z" fill="white"/>
<path d="M22.9001 19C22.4368 21.2822 20.419 23 18.0001 23C16.6193 23 15.3693 22.4403 14.4645 21.5355L13.5121 22.4879C13.3231 22.6769 13 22.543 13 22.2757V19.3C13 19.1343 13.1343 19 13.3 19H16.2757C16.543 19 16.6769 19.3231 16.4879 19.5121L15.8787 20.1213C16.4216 20.6642 17.1716 21 18.0001 21C19.3063 21 20.4175 20.1652 20.8294 19H22.9001Z" fill="white"/>
</svg>
