<svg width="24" height="24" viewBox="0 0 24 24" fill="none" xmlns="http://www.w3.org/2000/svg">
<path d="M11 3H20C20.5523 3 21 3.44772 21 4V20C21 20.5523 20.5523 21 20 21H8.17071C8.58254 22.1652 9.69378 23 11 23H20C21.6569 23 23 21.6569 23 20V4C23 2.34315 21.6569 1 20 1H11C9.34315 1 8 2.34315 8 4V5H10V4C10 3.44772 10.4477 3 11 3Z" fill="white"/>
<path d="M13 5C13 4.44772 13.4477 4 14 4H17C17.5523 4 18 4.44772 18 5C18 5.55228 17.5523 6 17 6H14C13.4477 6 13 5.55228 13 5Z" fill="white"/>
<path d="M5.14251 11.4855C5.42666 11.0119 6.04092 10.8584 6.5145 11.1425L9 12.8338L11.4855 11.1425C11.9591 10.8584 12.5733 11.0119 12.8575 11.4855C13.1416 11.9591 12.9881 12.5733 12.5145 12.8575L10.029 14.5488C9.39563 14.9288 8.60437 14.9288 7.97101 14.5488L5.4855 12.8575C5.01192 12.5733 4.85836 11.9591 5.14251 11.4855Z" fill="white"/>
<path fill-rule="evenodd" clip-rule="evenodd" d="M5 7C2.79086 7 1 8.79086 1 11V15C1 17.2091 2.79086 19 5 19H13C15.2091 19 17 17.2091 17 15V11C17 8.79086 15.2091 7 13 7H5ZM13 9H5C3.89543 9 3 9.89543 3 11V15C3 16.1046 3.89543 17 5 17H13C14.1046 17 15 16.1046 15 15V11C15 9.89543 14.1046 9 13 9Z" fill="white"/>
</svg>
