<svg width="24" height="24" viewBox="0 0 24 24" fill="none" xmlns="http://www.w3.org/2000/svg">
<path fill-rule="evenodd" clip-rule="evenodd" d="M7.17071 20.8293C7.10771 20.8923 7 20.8477 7 20.7586V17H6C4.89543 17 4 16.1046 4 15V7C4 5.89543 4.89543 5 6 5H18C19.1046 5 20 5.89543 20 7V15C20 16.1046 19.1046 17 18 17H11L7.17071 20.8293ZM11.8284 19H18C20.2091 19 22 17.2091 22 15V7C22 4.79086 20.2091 3 18 3H6C3.79086 3 2 4.79086 2 7V15C2 16.8638 3.27477 18.4299 5 18.874V20.7586C5 22.6295 7.26199 23.5664 8.58492 22.2435L11.8284 19Z" fill="white"/>
<path fill-rule="evenodd" clip-rule="evenodd" d="M13.0774 7.46967C13.4028 7.17678 13.9305 7.17678 14.2559 7.46967L17.3452 10.25L14.2559 13.0303C13.9305 13.3232 13.4028 13.3232 13.0774 13.0303C12.752 12.7374 12.752 12.2626 13.0774 11.9697L14.1548 11H12C10.4438 11 9.13662 11.9598 8.76952 13.2576C8.65598 13.659 8.29357 14 7.83333 14C7.3731 14 6.99272 13.6617 7.06855 13.2531C7.46384 11.1233 9.52128 9.5 12 9.5H14.1548L13.0774 8.53033C12.752 8.23744 12.752 7.76256 13.0774 7.46967Z" fill="white"/>
</svg>
