<svg width="24" height="24" viewBox="0 0 24 24" fill="none" xmlns="http://www.w3.org/2000/svg">
<path d="M11.9981 13.2871C12.7435 13.2871 13.3478 12.7116 13.3478 12.0018C13.3478 11.2919 12.7435 10.7164 11.9981 10.7164C11.2526 10.7164 10.6483 11.2919 10.6483 12.0018C10.6483 12.7116 11.2526 13.2871 11.9981 13.2871Z" fill="white"/>
<path d="M20.8796 11.5734C20.3037 10.6222 17.1362 5.84942 11.7551 6.00366C6.77901 6.12362 3.89951 10.2881 3.11665 11.5734C3.03767 11.7036 2.99609 11.8514 2.99609 12.0018C2.99609 12.1522 3.03767 12.3 3.11665 12.4303C3.68355 13.3643 6.71603 18 12.0161 18H12.2411C17.2172 17.88 20.1057 13.7156 20.8796 12.4303C20.9585 12.3 21.0001 12.1522 21.0001 12.0018C21.0001 11.8514 20.9585 11.7036 20.8796 11.5734ZM11.9981 15.0009C11.3752 15.0009 10.7663 14.825 10.2484 14.4955C9.73044 14.1659 9.32677 13.6975 9.08839 13.1495C8.85002 12.6015 8.78765 11.9985 8.90917 11.4167C9.03069 10.835 9.33065 10.3006 9.77111 9.88115C10.2116 9.46172 10.7727 9.17609 11.3837 9.06037C11.9946 8.94465 12.6279 9.00404 13.2034 9.23103C13.7788 9.45802 14.2707 9.84243 14.6168 10.3356C14.9628 10.8288 15.1476 11.4087 15.1476 12.0018C15.1476 12.7972 14.8157 13.5601 14.2251 14.1225C13.6345 14.6849 12.8334 15.0009 11.9981 15.0009Z" fill="white"/>
</svg>
