<svg width="24" height="24" viewBox="0 0 24 24" fill="none" xmlns="http://www.w3.org/2000/svg">
<path fill-rule="evenodd" clip-rule="evenodd" d="M18.5755 9.14208C17.4175 7.97655 15.4624 8.82297 15.4624 10.4345V11.1481C12.424 11.7427 10.1685 13.1595 8.5466 15.0252C6.80383 17.03 5.83156 19.5066 5.35035 21.9284C5.2676 22.3449 5.48715 22.7625 5.87711 22.9304C6.26706 23.0984 6.72134 22.9709 6.96706 22.6247C8.92158 19.8704 11.585 18.4792 15.4624 18.2973V18.9432C15.4624 20.5741 17.4312 21.3781 18.5755 20.2263L22.8021 15.972C23.51 15.2595 23.51 14.1089 22.8021 13.3964L18.5755 9.14208ZM17.2912 10.4041C17.2929 10.4054 17.2985 10.4107 17.2985 10.4107L21.5252 14.6651C21.5289 14.6688 21.5303 14.6714 21.5311 14.6735C21.5322 14.6761 21.533 14.6798 21.533 14.6842C21.533 14.6886 21.5322 14.6923 21.5311 14.6949C21.5303 14.697 21.5289 14.6996 21.5252 14.7033L17.2985 18.9577C17.2942 18.962 17.2911 18.9645 17.2894 18.9658L17.288 18.9668C17.2858 18.9667 17.2811 18.9663 17.2745 18.9636C17.2685 18.9611 17.265 18.9585 17.2634 18.957L17.2632 18.9557C17.2628 18.9535 17.2624 18.9494 17.2624 18.9432V17.3768C17.2624 16.8797 16.8594 16.4768 16.3624 16.4768C13.0869 16.4768 10.4139 17.2013 8.25242 18.7636C8.68914 17.8425 9.23441 16.9776 9.90506 16.2062C11.3716 14.5191 13.4765 13.2324 16.4905 12.799C16.9335 12.7353 17.2624 12.3558 17.2624 11.9082V10.4345C17.2624 10.4233 17.264 10.4178 17.264 10.4178" fill="white"/>
<path fill-rule="evenodd" clip-rule="evenodd" d="M11 7.38965C11 7.0445 10.7201 6.76469 10.375 6.76465L9.65918 6.76465C9.39196 5.85835 8.55535 5.19632 7.5625 5.19629C6.56956 5.19632 5.73198 5.85822 5.46484 6.76465H1.625C1.27986 6.76468 1 7.0445 1 7.38965C1.00008 7.73473 1.2799 8.01461 1.625 8.01465H5.46777C5.7386 8.91513 6.57378 9.57126 7.5625 9.57129C8.55112 9.57126 9.38534 8.915 9.65625 8.01465L10.375 8.01465C10.7201 8.01461 10.9999 7.73473 11 7.38965ZM8.5 7.38379C8.5 7.90153 8.08023 8.32125 7.5625 8.32129C7.04477 8.32125 6.625 7.90153 6.625 7.38379C6.62501 6.86605 7.04477 6.44632 7.5625 6.44629C8.08023 6.44633 8.49999 6.86605 8.5 7.38379Z" fill="white"/>
<path fill-rule="evenodd" clip-rule="evenodd" d="M11 3.17871C11 2.83354 10.7202 2.55371 10.375 2.55371L6.625 2.55371C6.59366 2.55371 6.5633 2.55902 6.5332 2.56348C6.26446 1.6596 5.42864 1 4.4375 1C3.44994 1 2.61658 1.65486 2.34473 2.55371H1.625C1.27987 2.55375 1.00001 2.83357 1 3.17871C1.00006 3.52381 1.2799 3.80367 1.625 3.80371L2.34082 3.80371C2.6072 4.71136 3.44367 5.375 4.4375 5.375C5.43467 5.375 6.27468 4.70727 6.53809 3.79492C6.56661 3.79891 6.59538 3.80371 6.625 3.80371L10.375 3.80371C10.7201 3.80371 10.9999 3.52384 11 3.17871ZM5.375 3.1875C5.37494 3.70521 4.95523 4.125 4.4375 4.125C3.91978 4.12499 3.50006 3.70521 3.5 3.1875C3.5 2.66974 3.91974 2.25001 4.4375 2.25C4.95526 2.25 5.375 2.66974 5.375 3.1875Z" fill="white"/>
</svg>
