<svg width="24" height="24" viewBox="0 0 24 24" fill="none" xmlns="http://www.w3.org/2000/svg">
<path d="M3.81818 2C3.36818 2 3 2.375 3 2.83333V21.1667C3 21.625 3.36818 22 3.81818 22C4.26818 22 4.63636 21.625 4.63636 21.1667V12.7917C5.6509 12.1417 7.91725 11.1083 11.2063 12.125C16.4918 13.7583 20.7217 7.40833 20.8936 7.14167C21.0408 6.925 21.0326 6.64167 20.8854 6.425C20.8118 6.32154 20.7087 6.24365 20.5901 6.2019C20.4716 6.16016 20.3433 6.15659 20.2226 6.19167C20.1817 6.2 15.9599 7.33333 12.1472 4.61667C9.47179 2.70833 6.30544 2.7 4.63636 2.875V2.83333C4.63636 2.375 4.26818 2 3.81818 2Z" fill="white"/>
</svg>
