<svg width="24" height="24" viewBox="0 0 24 24" fill="none" xmlns="http://www.w3.org/2000/svg">
<path d="M7.41096 7.05979C7.40416 7.06715 7.39725 7.07439 7.39025 7.08149L5.94183 8.553C5.80047 8.69662 5.75914 8.91105 5.83699 9.09692C5.91484 9.28278 6.09666 9.40375 6.29817 9.40375H7.47634C7.95334 9.40375 8.38997 9.82314 8.38997 10.404C8.38997 10.9848 7.95334 11.4042 7.47634 11.4042H2.9527C2.4757 11.4042 2.03906 10.9848 2.03906 10.404V5.60327C2.03906 5.02245 2.4757 4.60305 2.9527 4.60305C3.4297 4.60305 3.86634 5.02245 3.86634 5.60327V6.71271C3.86634 6.91566 3.98901 7.09848 4.17682 7.1754C4.36463 7.25233 4.58031 7.2081 4.72267 7.06346L6.13246 5.6312L6.14239 5.62081C7.13371 4.55404 8.35658 3.7757 9.69738 3.35639C11.045 2.93496 12.4689 2.88952 13.8368 3.22417C15.2049 3.55885 16.4738 4.26314 17.5245 5.27284C18.5753 6.2826 19.3733 7.56464 19.843 8.99975C20.0221 9.54679 19.7396 10.1128 19.2737 10.2845C18.8236 10.4504 18.298 10.2089 18.1226 9.67317C17.7581 8.5593 17.1382 7.5624 16.3197 6.7759C15.5012 5.98933 14.5105 5.43859 13.4394 5.17657C12.3682 4.91452 11.2529 4.95017 10.1981 5.28004C9.14346 5.60986 8.18484 6.22265 7.41096 7.05979Z" fill="white"/>
<path d="M18.0582 15.4554C18.1995 15.3118 18.2409 15.0973 18.163 14.9115C18.0852 14.7256 17.9033 14.6046 17.7018 14.6046H16.5236C16.0466 14.6046 15.61 14.1852 15.61 13.6044C15.61 13.0236 16.0466 12.6042 16.5236 12.6042H21.0473C21.5243 12.6042 21.9609 13.0236 21.9609 13.6044V18.4051C21.9609 18.9859 21.5243 19.4053 21.0473 19.4053C20.5703 19.4053 20.1336 18.9859 20.1336 18.4051V17.2957C20.1336 17.0927 20.011 16.9099 19.8232 16.833C19.6353 16.7561 19.4197 16.8003 19.2773 16.945L17.8675 18.3772L17.8576 18.3876C16.8662 19.4544 15.6434 20.2327 14.3026 20.652C12.955 21.0735 11.5311 21.1189 10.1631 20.7843C8.79501 20.4496 7.52612 19.7453 6.47541 18.7356C5.42463 17.7258 4.62665 16.4438 4.15695 15.0087C3.9779 14.4616 4.26038 13.8957 4.72623 13.7239C5.17632 13.558 5.70197 13.7996 5.87731 14.3353C6.24187 15.4491 6.86179 16.446 7.68023 17.2325C8.49875 18.0191 9.48948 18.5698 10.5606 18.8319C11.6318 19.0939 12.7471 19.0583 13.8019 18.7284C14.8565 18.3986 15.8151 17.7858 16.589 16.9486C16.5958 16.9413 16.6027 16.934 16.6097 16.9269L18.0582 15.4554Z" fill="white"/>
</svg>
