<svg width="24" height="24" viewBox="0 0 24 24" fill="none" xmlns="http://www.w3.org/2000/svg">
<path d="M2 18V6C2 4.34315 3.34315 3 5 3H9.17188C9.96742 3.00008 10.7304 3.31637 11.293 3.87891L12.4141 5H19C20.6569 5 22 6.34315 22 8V18C22 19.6569 20.6569 21 19 21H5C3.34315 21 2 19.6569 2 18ZM4 18C4 18.5523 4.44772 19 5 19H19C19.5523 19 20 18.5523 20 18V8C20 7.44772 19.5523 7 19 7H12.4141C11.8837 6.99996 11.375 6.7891 11 6.41406L9.87891 5.29297C9.69144 5.1055 9.43698 5.00008 9.17188 5H5C4.44772 5 4 5.44772 4 6V18Z" fill="white"/>
</svg>
