<svg width="24" height="24" viewBox="0 0 24 24" fill="none" xmlns="http://www.w3.org/2000/svg">
<path d="M22.9193 15.0842C20.8404 8.39558 15.6068 3.16188 8.91624 1.08242C7.89089 0.770486 6.84362 1.37571 6.54084 2.36233C6.21308 3.36473 6.74742 4.43001 7.7251 4.76163C7.74904 4.77234 7.77359 4.78115 7.79813 4.78936C13.2371 6.49799 17.5044 10.7653 19.213 16.2042C19.2206 16.2282 19.2301 16.2521 19.2401 16.2754C19.5792 17.2778 20.6666 17.7805 21.6262 17.4659C22.6862 17.1459 23.2306 16.0069 22.9193 15.0842ZM6.42499 8.85079C6.20883 8.75549 5.98256 8.71032 5.75237 8.69802L4.54688 12.1997C4.86591 12.4212 5.24413 12.5552 5.64496 12.5552C6.71144 12.5552 7.57904 11.6876 7.57904 10.6211C7.579 9.85495 7.12637 9.15989 6.42499 8.85079ZM9.95819 18.79C9.62893 18.1257 8.96473 17.7127 8.22372 17.7127C7.15723 17.7127 6.28968 18.5803 6.28968 19.6468C6.28968 20.1795 6.50185 20.6756 6.88652 21.0438C6.91523 21.0713 6.94893 21.0907 6.97898 21.1163L10.1075 20.0391C10.1918 19.6073 10.1511 19.1796 9.95819 18.79ZM13.3812 13.8446C13.0255 13.8446 12.7365 14.1336 12.7365 14.4893C12.7365 14.845 13.0255 15.134 13.3812 15.134C13.7369 15.134 14.0259 14.845 14.0259 14.4893C14.0259 14.1336 13.7369 13.8446 13.3812 13.8446Z" fill="white"/>
<path d="M18.0163 16.6884C16.251 11.086 12.5159 7.95346 7.19636 5.93895C7.05082 5.89077 6.90794 5.82066 6.76747 5.74269L6.17884 7.45239C6.43846 7.49585 6.69534 7.56196 6.94332 7.67093C8.1112 8.18652 8.86605 9.34435 8.86605 10.6212C8.86605 12.3985 7.41993 13.8446 5.64261 13.8446C5.09868 13.8446 4.58343 13.6845 4.11988 13.4331L1.03136 22.1453C0.991922 22.2594 0.985413 22.3824 1.01258 22.5C1.03975 22.6177 1.0995 22.7254 1.18499 22.8107C1.36213 22.9878 1.62292 23.0436 1.85043 22.9643L5.64888 21.5733C5.23163 21.0197 4.99793 20.3554 4.99793 19.6468C4.99793 17.8695 6.44405 16.4233 8.22137 16.4233C9.45597 16.4233 10.5634 17.1108 11.1111 18.2176C11.326 18.6513 11.4009 19.1185 11.4081 19.5906L18.26 17.2317C18.1632 17.0598 18.0806 16.8787 18.0163 16.6884ZM9.96663 14.9451C9.71482 15.1969 9.30669 15.1969 9.05484 14.9451C8.80308 14.6933 8.80308 14.2851 9.05484 14.0334C9.30664 13.7816 9.71478 13.7816 9.96663 14.0334C10.2184 14.2851 10.2184 14.6933 9.96663 14.9451ZM10.3443 9.78757C10.0925 9.53572 10.0925 9.12775 10.3443 8.87595C10.5961 8.62415 11.0041 8.62415 11.2559 8.87595L12.5453 10.1653C12.7971 10.4171 12.7971 10.8251 12.5453 11.0769C12.2934 11.3288 11.8855 11.3288 11.6336 11.0769L10.3443 9.78757ZM13.3789 16.4233C12.3124 16.4233 11.4448 15.5557 11.4448 14.4892C11.4448 13.4228 12.3124 12.5552 13.3789 12.5552C14.4453 12.5552 15.3129 13.4228 15.3129 14.4892C15.3129 15.5557 14.4453 16.4233 13.3789 16.4233Z" fill="white"/>
</svg>
