<svg width="24" height="24" viewBox="0 0 24 24" fill="none" xmlns="http://www.w3.org/2000/svg">
<path fill-rule="evenodd" clip-rule="evenodd" d="M13.2931 7.29289C13.6836 6.90237 14.3167 6.90237 14.7073 7.29289L18.4144 11L14.7073 14.7071C14.3167 15.0976 13.6836 15.0976 13.2931 14.7071C12.9025 14.3166 12.9025 13.6834 13.2931 13.2929L14.5859 12H12.0002C10.1327 12 8.5641 13.2798 8.12359 15.0101C7.98733 15.5453 7.55244 16 7.00016 16C6.44788 16 5.99143 15.5489 6.08242 15.0042C6.55677 12.1644 9.0257 10 12.0002 10H14.5859L13.2931 8.70711C12.9025 8.31658 12.9025 7.68342 13.2931 7.29289Z" fill="white"/>
</svg>
