<svg width="24" height="24" viewBox="0 0 24 24" fill="none" xmlns="http://www.w3.org/2000/svg">
<path fill-rule="evenodd" clip-rule="evenodd" d="M16.7139 4.598C15.4273 3.30296 13.2549 4.24343 13.2549 6.034V6.8269C9.87893 7.48758 7.37279 9.06182 5.57067 11.1349C3.63425 13.3624 2.55395 16.1142 2.01927 18.8051C1.92733 19.2678 2.17127 19.7318 2.60456 19.9184C3.03784 20.105 3.5426 19.9635 3.81562 19.5787C5.98732 16.5184 8.94665 14.9726 13.2549 14.7706V15.4882C13.2549 17.3003 15.4425 18.1936 16.7139 16.9139L21.4102 12.1868C22.1967 11.3951 22.1967 10.1167 21.4102 9.32508L16.7139 4.598ZM15.2869 6.00021C15.2888 6.0017 15.2951 6.00759 15.2951 6.00759L19.9914 10.7347C19.9955 10.7388 19.997 10.7417 19.998 10.744C19.9991 10.7469 20.0001 10.751 20.0001 10.7559C20.0001 10.7608 19.9991 10.7649 19.998 10.7679C19.997 10.7701 19.9955 10.773 19.9914 10.7772L15.2951 15.5043C15.2903 15.5091 15.2868 15.5119 15.2849 15.5133L15.2834 15.5144C15.281 15.5143 15.2757 15.5138 15.2683 15.5108C15.2617 15.5081 15.2579 15.5051 15.2561 15.5035L15.2558 15.502C15.2554 15.4996 15.2549 15.4951 15.2549 15.4882V13.7477C15.2549 13.1954 14.8072 12.7477 14.2549 12.7477C10.6155 12.7477 7.64542 13.5527 5.24381 15.2887C5.72905 14.2652 6.33491 13.3042 7.08008 12.447C8.70963 10.5725 11.0483 9.14285 14.3972 8.6613C14.8895 8.59052 15.2549 8.16878 15.2549 7.67148V6.034C15.2549 6.02156 15.2567 6.01549 15.2567 6.01549" fill="white"/>
</svg>
