<svg width="24" height="24" viewBox="0 0 24 24" fill="none" xmlns="http://www.w3.org/2000/svg">
<path d="M12.75 4.5C12.75 4.08579 13.0858 3.75 13.5 3.75L19.5 3.75V9.75C19.5 10.1642 19.1642 10.5 18.75 10.5C18.3358 10.5 18 10.1642 18 9.75V6.3066L14.0358 10.2709C13.7429 10.5638 13.268 10.5638 12.9751 10.2709C12.6822 9.97797 12.6822 9.50309 12.9751 9.2102L16.9353 5.25H13.5C13.0858 5.25 12.75 4.91421 12.75 4.5Z" fill="white"/>
<path d="M10.5 19.5C10.5 19.9143 10.1642 20.25 9.75 20.25H3.75L3.75 14.25C3.75 13.8358 4.08579 13.5 4.5 13.5C4.91421 13.5 5.25 13.8358 5.25 14.25L5.25 17.693L9.22072 13.7223C9.51361 13.4294 9.98849 13.4294 10.2814 13.7223C10.5743 14.0152 10.5743 14.4901 10.2814 14.783L6.3143 18.75H9.75C10.1642 18.75 10.5 19.0858 10.5 19.5Z" fill="white"/>
</svg>
