<svg width="24" height="24" viewBox="0 0 24 24" fill="none" xmlns="http://www.w3.org/2000/svg">
<path fill-rule="evenodd" clip-rule="evenodd" d="M13.8027 2H7C4.23858 2 2 4.23858 2 7V17C2 19.7614 4.23858 22 7 22H17C19.7614 22 22 19.7614 22 17V10.1973C21.3926 10.5487 20.7179 10.7966 20 10.917V11.8501C19.3701 11.4733 18.6297 11.1641 17.7632 11.0486C16.1861 10.8383 14.3791 11.2915 12.2695 12.7438C9.69011 14.5197 6.70861 14.8316 4 13.3109V7C4 5.34315 5.34315 4 7 4H13.083C13.2034 3.28208 13.4513 2.60738 13.8027 2ZM4 15.5377V17C4 18.6569 5.34315 20 7 20H17C18.6569 20 20 18.6569 20 17V14.3042L19.9855 14.3209C19.2565 13.6845 18.4717 13.1607 17.4989 13.031C16.5476 12.9042 15.232 13.1325 13.4037 14.3912C10.5713 16.3412 7.18274 16.8959 4 15.5377Z" fill="white"/>
<path d="M11.2856 8.92855C11.2856 10.2304 10.2302 11.2857 8.92843 11.2857C7.62662 11.2857 6.57129 10.2304 6.57129 8.92855C6.57129 7.62674 7.62662 6.57141 8.92843 6.57141C10.2302 6.57141 11.2856 7.62674 11.2856 8.92855Z" fill="white"/>
<path d="M19.0001 1C19.491 1 19.8889 1.40934 19.8889 1.91429L19.889 5.8783L21.4826 4.23918C21.8297 3.88213 22.3925 3.88213 22.7397 4.23918C23.0868 4.59624 23.0868 5.17514 22.7397 5.53219L19.6285 8.73221C19.2814 9.08926 18.7186 9.08926 18.3715 8.73221L15.2603 5.53219C14.9132 5.17514 14.9132 4.59624 15.2603 4.23918C15.6075 3.88213 16.1703 3.88213 16.5174 4.23918L18.1112 5.87852V1.91429C18.1112 1.40934 18.5091 1 19.0001 1Z" fill="white"/>
</svg>
