<svg width="24" height="24" viewBox="0 0 24 24" fill="none" xmlns="http://www.w3.org/2000/svg">
<path d="M5.25 3C4.25544 3 3.30161 3.39509 2.59835 4.09835C1.89509 4.80161 1.5 5.75544 1.5 6.75V17.25C1.5 18.2446 1.89509 19.1984 2.59835 19.9016C3.30161 20.6049 4.25544 21 5.25 21H18.75C19.7446 21 20.6984 20.6049 21.4016 19.9016C22.1049 19.1984 22.5 18.2446 22.5 17.25V6.75C22.5 5.75544 22.1049 4.80161 21.4016 4.09835C20.6984 3.39509 19.7446 3 18.75 3H5.25ZM3 6.75C3 6.15326 3.23705 5.58097 3.65901 5.15901C4.08097 4.73705 4.65326 4.5 5.25 4.5H18.75C19.3467 4.5 19.919 4.73705 20.341 5.15901C20.7629 5.58097 21 6.15326 21 6.75V17.25C21 17.8467 20.7629 18.419 20.341 18.841C19.919 19.2629 19.3467 19.5 18.75 19.5H5.25C4.65326 19.5 4.08097 19.2629 3.65901 18.841C3.23705 18.419 3 17.8467 3 17.25V6.75Z" fill="white"/>
<path d="M9.057 10.2153C8.8575 10.1163 8.2995 9.98579 7.578 10.0608C6.8505 10.1373 6 10.7883 6 12.0153C6 13.2078 6.8535 13.9653 7.95 13.9653C8.33198 13.9544 8.69896 13.8142 8.991 13.5678C8.99696 13.5326 8.99997 13.497 9 13.4613V12.7653H8.5395C8.34059 12.7653 8.14982 12.6863 8.00917 12.5456C7.86852 12.405 7.7895 12.2142 7.7895 12.0153C7.7895 11.8164 7.86852 11.6256 8.00917 11.485C8.14982 11.3443 8.34059 11.2653 8.5395 11.2653H9.75C9.94891 11.2653 10.1397 11.3443 10.2803 11.485C10.421 11.6256 10.5 11.8164 10.5 12.0153V13.4613C10.5 13.7703 10.4385 14.2638 10.0455 14.6358C9.6 15.0573 8.82 15.4653 7.95 15.4653C6.081 15.4653 4.5 14.0928 4.5 12.0153C4.5 9.97079 5.982 8.71979 7.422 8.56979C8.3355 8.47379 9.201 8.61029 9.7275 8.87429C9.81868 8.91641 9.90048 8.97642 9.96803 9.05075C10.0356 9.12508 10.0875 9.21223 10.1207 9.30701C10.154 9.4018 10.1678 9.5023 10.1615 9.60254C10.1551 9.70278 10.1287 9.80072 10.0838 9.89056C10.0389 9.9804 9.97638 10.0603 9.89999 10.1255C9.8236 10.1907 9.7349 10.24 9.63913 10.2702C9.54336 10.3005 9.44248 10.3113 9.34249 10.3018C9.24249 10.2924 9.14541 10.263 9.057 10.2153Z" fill="white"/>
<path d="M13.2803 8.78646C13.421 8.92711 13.5 9.11788 13.5 9.31679V14.7168C13.5 14.9157 13.421 15.1065 13.2803 15.2471C13.1397 15.3878 12.9489 15.4668 12.75 15.4668C12.5511 15.4668 12.3603 15.3878 12.2197 15.2471C12.079 15.1065 12 14.9157 12 14.7168V9.31679C12 9.11788 12.079 8.92711 12.2197 8.78646C12.3603 8.6458 12.5511 8.56679 12.75 8.56679C12.9489 8.56679 13.1397 8.6458 13.2803 8.78646Z" fill="white"/>
<path d="M15.2197 8.78646C15.3603 8.6458 15.5511 8.56679 15.75 8.56679L18.75 8.56529C18.9489 8.56529 19.1397 8.64431 19.2803 8.78496C19.421 8.92561 19.5 9.11637 19.5 9.31529C19.5 9.5142 19.421 9.70497 19.2803 9.84562C19.1397 9.98627 18.9489 10.0653 18.75 10.0653H16.5V11.2608L17.9955 11.2518C18.1944 11.2506 18.3857 11.3285 18.5271 11.4683C18.6686 11.6081 18.7488 11.7984 18.75 11.9973C18.7512 12.1962 18.6733 12.3874 18.5335 12.5289C18.3937 12.6704 18.2034 12.7506 18.0045 12.7518L16.5 12.7608V14.7168C16.5 14.9157 16.421 15.1065 16.2803 15.2471C16.1397 15.3878 15.9489 15.4668 15.75 15.4668C15.5511 15.4668 15.3603 15.3878 15.2197 15.2471C15.079 15.1065 15 14.9157 15 14.7168V9.31679C15 9.11788 15.079 8.92711 15.2197 8.78646Z" fill="white"/>
</svg>
