<svg width="24" height="24" viewBox="0 0 24 24" fill="none" xmlns="http://www.w3.org/2000/svg">
<path fill-rule="evenodd" clip-rule="evenodd" d="M3.06189 11H6.0312C6.05869 10.6195 6.10387 10.2454 6.165 9.87826C6.52168 7.7361 7.41346 5.87516 8.43274 4.42082C5.57765 5.38759 3.44567 7.92234 3.06189 11ZM11 4.40694C9.79487 5.72286 8.54541 7.75897 8.13784 10.2067C8.09472 10.4657 8.06085 10.7303 8.03748 11H12.101C11.5151 11.5741 11.0297 12.2504 10.6736 13H8.06477C8.28111 14.8956 9.06256 16.9769 10.7489 19.1536C11.2856 20.2153 12.0847 21.1216 13.061 21.7874C12.3959 21.9267 11.7065 22 11 22C5.47715 22 1 17.5228 1 12C1 6.47715 5.47715 2 11 2C15.8865 2 19.9543 5.50482 20.8269 10.1378C20.1225 9.67695 19.3299 9.3397 18.48 9.15676C17.6348 6.93442 15.8277 5.18622 13.5673 4.42082C14.4649 5.70155 15.2636 7.29758 15.6851 9.12331C15.0116 9.2513 14.3724 9.47576 13.7822 9.78178C13.3087 7.52339 12.1347 5.64594 11 4.40694ZM8.62561 19.6418C7.02627 17.3523 6.25376 15.105 6.05377 13H3.06189C3.45427 16.1466 5.674 18.7257 8.62561 19.6418ZM13.8996 15.7678C13.8996 14.1848 15.1829 12.9016 16.7659 12.9016C18.3489 12.9016 19.6322 14.1848 19.6322 15.7678C19.6322 17.3508 18.3489 18.6341 16.7659 18.6341C15.1829 18.6341 13.8996 17.3508 13.8996 15.7678ZM16.7659 11.1016C14.1888 11.1016 12.0996 13.1907 12.0996 15.7678C12.0996 18.345 14.1888 20.4341 16.7659 20.4341C17.7275 20.4341 18.6212 20.1432 19.3638 19.6446L21.4032 21.678C21.7552 22.0289 22.3251 22.0281 22.676 21.6761C23.027 21.3241 23.0261 20.7542 22.6741 20.4033L20.6378 18.373C21.1394 17.629 21.4322 16.7326 21.4322 15.7678C21.4322 13.1907 19.343 11.1016 16.7659 11.1016Z" fill="white"/>
</svg>
