<svg width="24" height="24" viewBox="0 0 24 24" fill="none" xmlns="http://www.w3.org/2000/svg">
<path fill-rule="evenodd" clip-rule="evenodd" d="M5.53414 19.659L8.23281 19.0592C9.3917 19.6788 10.6859 20.002 12 20C16.4184 20 20 16.4184 20 12C20 7.5816 16.4184 4 12 4C7.58161 4 4.00001 7.5816 4.00001 12C3.99803 13.3141 4.32123 14.6083 4.94081 15.7672L4.34099 18.4659C4.18218 19.1804 4.81961 19.8178 5.53414 19.659ZM11.6559 9.1147L13.8329 11.3491H8.63413C8.28391 11.3491 8 11.6405 8 12C8 12.3595 8.28391 12.6509 8.63413 12.6509H13.8329L11.6559 14.8853C11.4075 15.1403 11.4075 15.5537 11.6559 15.8087C11.9044 16.0638 12.3072 16.0638 12.5556 15.8087L15.8116 12.4669C16.0628 12.209 16.0628 11.791 15.8116 11.5331L12.5556 8.19125C12.3072 7.93625 11.9044 7.93625 11.6559 8.19125C11.4075 8.44625 11.4075 8.85969 11.6559 9.1147Z" fill="white"/>
</svg>
