<svg width="24" height="24" viewBox="0 0 24 24" fill="none" xmlns="http://www.w3.org/2000/svg">
<path d="M13.7803 6.93934L16.7722 9.93121C16.9127 10.0675 17 10.2583 17 10.4695C17 10.5527 16.9865 10.6327 16.9615 10.7075C16.9258 10.8144 16.8655 10.9149 16.7803 11L13.7803 14C13.4874 14.2929 13.0126 14.2929 12.7197 14C12.4268 13.7071 12.4268 13.2322 12.7197 12.9393L14.4395 11.2195H7.75C7.33579 11.2195 7 10.8838 7 10.4695C7 10.0553 7.33579 9.71955 7.75 9.71955H14.4392L12.7197 8C12.4268 7.70711 12.4268 7.23223 12.7197 6.93934C13.0126 6.64645 13.4874 6.64645 13.7803 6.93934Z" fill="white"/>
<path fill-rule="evenodd" clip-rule="evenodd" d="M18 19H12.8284L8.58492 22.2435C7.26199 23.5664 5 22.6295 5 20.7586V18.874C3.27477 18.4299 2 16.8638 2 15V6C2 3.79086 3.79086 2 6 2H18C20.2091 2 22 3.79086 22 6V15C22 17.2091 20.2091 19 18 19ZM7 20.7586C7 20.8477 7.10771 20.8923 7.17071 20.8293L12 17H18C19.1046 17 20 16.1046 20 15V6C20 4.89543 19.1046 4 18 4H6C4.89543 4 4 4.89543 4 6V15C4 16.1046 4.89543 17 6 17H7V20.7586Z" fill="white"/>
</svg>
