<svg width="24" height="24" viewBox="0 0 24 24" fill="none" xmlns="http://www.w3.org/2000/svg">
<path fill-rule="evenodd" clip-rule="evenodd" d="M13.0341 7.5C13.0341 9.98528 11.0193 12 8.53406 12C6.04878 12 4.03406 9.98528 4.03406 7.5C4.03406 5.01472 6.04878 3 8.53406 3C11.0193 3 13.0341 5.01472 13.0341 7.5ZM11.0341 7.5C11.0341 8.88071 9.91477 10 8.53406 10C7.15335 10 6.03406 8.88071 6.03406 7.5C6.03406 6.11929 7.15335 5 8.53406 5C9.91477 5 11.0341 6.11929 11.0341 7.5Z" fill="white"/>
<path fill-rule="evenodd" clip-rule="evenodd" d="M21.0341 9.5C21.0341 11.433 19.4671 13 17.5341 13C15.6011 13 14.0341 11.433 14.0341 9.5C14.0341 7.567 15.6011 6 17.5341 6C19.4671 6 21.0341 7.567 21.0341 9.5ZM19.0341 9.5C19.0341 10.3284 18.3625 11 17.5341 11C16.7056 11 16.0341 10.3284 16.0341 9.5C16.0341 8.67157 16.7056 8 17.5341 8C18.3625 8 19.0341 8.67157 19.0341 9.5Z" fill="white"/>
<path d="M19.8166 21H17.8775C18.1898 20.3875 18.3824 19.7093 18.4257 19H19.8166C20.4036 19 20.8908 18.7408 21.1538 18.4154C21.3931 18.1193 21.4594 17.771 21.2597 17.3776C20.6208 16.1193 19.5374 15 17.534 15C17.4227 15 17.3143 15.0035 17.2086 15.0102C16.8508 14.3979 16.4184 13.7801 15.8999 13.1975C16.3945 13.0708 16.9378 13 17.5341 13C20.5256 13 22.1845 14.7813 23.043 16.4721C23.6307 17.6296 23.3993 18.8188 22.7092 19.6726C22.0429 20.4971 20.969 21 19.8166 21Z" fill="white"/>
<path fill-rule="evenodd" clip-rule="evenodd" d="M1.36132 17.1253C2.50284 14.8522 4.70108 12 8.53406 12C12.367 12 14.5652 14.8522 15.7067 17.1253C16.3098 18.3264 16.1171 19.5843 15.4308 20.514C14.7591 21.424 13.6372 22 12.3867 22H4.6813C3.43085 22 2.30892 21.424 1.63721 20.514C0.950947 19.5843 0.758204 18.3264 1.36132 17.1253ZM8.53402 14C5.87102 14 4.18831 15.9525 3.14862 18.0229C2.90394 18.5101 2.97979 18.9652 3.24634 19.3263C3.52746 19.7071 4.04259 20 4.6813 20H12.3867C13.0254 20 13.5406 19.7071 13.8217 19.3263C14.0882 18.9652 14.1641 18.5101 13.9194 18.0229C12.8797 15.9525 11.197 14 8.53402 14Z" fill="white"/>
</svg>
