<svg width="24" height="24" viewBox="0 0 24 24" fill="none" xmlns="http://www.w3.org/2000/svg">
<path d="M4.59092 10.2609C5.19728 9.91629 5.95484 10.1718 6.28302 10.7954L7.89973 14.0932C7.93002 14.1557 7.98292 14.2042 8.04771 14.2291C8.11249 14.254 8.18431 14.2533 8.24862 14.2272C8.29956 14.2069 8.34324 14.1718 8.37396 14.1264C8.40469 14.081 8.42104 14.0273 8.42091 13.9725V4.81301C8.42091 4.26956 8.92296 3.87534 9.46681 3.87534C10.0107 3.87534 10.4826 4.26956 10.4826 4.81301V10.9329C10.4813 11.0472 10.5246 11.1575 10.6033 11.2404C10.682 11.3232 10.79 11.3721 10.9042 11.3767C10.9613 11.3778 11.0181 11.3675 11.0712 11.3464C11.1243 11.3253 11.1726 11.2938 11.2134 11.2538C11.2542 11.2138 11.2866 11.166 11.3087 11.1133C11.3308 11.0606 11.3422 11.0041 11.3421 10.9469V2.93767C11.3421 2.39421 11.7696 2 12.3134 2C12.8573 2 13.2956 2.39421 13.2956 2.93767V10.9329C13.2943 11.0472 13.3376 11.1575 13.4163 11.2404C13.4951 11.3232 13.603 11.3721 13.7172 11.3767C13.7743 11.3778 13.8311 11.3675 13.8842 11.3464C13.9373 11.3253 13.9856 11.2938 14.0264 11.2538C14.0672 11.2138 14.0996 11.166 14.1217 11.1133C14.1438 11.0606 14.1552 11.0041 14.1552 10.9469V4.1879C14.1552 3.64444 14.6271 3.25023 15.171 3.25023C15.7148 3.25023 16.1868 3.68351 16.1868 4.22697V11.558C16.1855 11.6723 16.2288 11.7826 16.3075 11.8655C16.3862 11.9483 16.4941 11.9973 16.6083 12.0018C16.6655 12.0029 16.7222 11.9926 16.7753 11.9715C16.8284 11.9504 16.8768 11.9189 16.9176 11.8789C16.9583 11.8389 16.9907 11.7911 17.0128 11.7384C17.0349 11.6858 17.0463 11.6292 17.0463 11.5721V6.68836C17.0463 6.1449 17.4792 5.75069 18.0231 5.75069C18.5669 5.75069 19.0045 6.14998 18.9998 6.68836V15.1274C18.9998 19.7146 16.1868 22.0037 12.7487 22.0037H12.1235C8.68541 22.0037 7.6028 20.4565 6.81007 18.5655L4.1256 11.9628C3.86696 11.2595 3.98495 10.6051 4.59092 10.2609Z" fill="white"/>
</svg>
