<svg width="24" height="24" viewBox="0 0 24 24" fill="none" xmlns="http://www.w3.org/2000/svg">
<path d="M12.012 3.22833C7.03736 3.22833 3 7.26569 3 12.2403V16.8064C3.02403 18.9933 4.82642 20.7716 7.01333 20.7716H7.54203C7.99864 20.7716 8.38315 20.3871 8.38315 19.9305V13.562C8.38315 13.1054 7.99864 12.7209 7.54203 12.7209H7.01333C6.14818 12.7209 5.33109 13.0093 4.6582 13.49V12.2403C4.6582 8.20294 7.95057 4.91057 11.9879 4.91057C16.0253 4.91057 19.3417 8.20294 19.3417 12.2403V13.49C18.6688 13.0093 17.8757 12.7209 16.9866 12.7209H16.4579C16.0013 12.7209 15.6167 13.1054 15.6167 13.562V19.9305C15.6167 20.3871 16.0013 20.7716 16.4579 20.7716H16.9866C19.1975 20.7716 20.9759 18.9933 20.9999 16.8064V12.2403C21.0239 7.26569 16.9866 3.22833 12.012 3.22833Z" fill="white"/>
</svg>
