<svg width="24" height="24" viewBox="0 0 24 24" fill="none" xmlns="http://www.w3.org/2000/svg">
<path d="M2.75537 10.1922C2.75537 8.8638 3.28299 7.58967 4.22217 6.65021C5.16163 5.71103 6.43576 5.18341 7.76416 5.18341C9.09216 5.18345 10.3658 5.71055 11.3052 6.64923L11.9985 7.34064L12.6685 6.67267C13.6078 5.73391 14.8814 5.20693 16.2095 5.20685C17.5379 5.20685 18.812 5.73447 19.7515 6.67365C20.6906 7.61311 21.2183 8.88724 21.2183 10.2156C21.2182 11.546 20.7113 12.8 19.8032 13.9031C17.3993 16.8232 15.6585 17.9815 12.5698 20.5838C12.272 20.8347 11.8374 20.8347 11.5396 20.5838C8.46922 17.997 6.57545 16.8012 4.17041 13.8797C3.26224 12.7765 2.75541 11.5226 2.75537 10.1922ZM4.35498 10.1922C4.35502 11.0942 4.6941 11.9986 5.40576 12.8631C7.56176 15.482 9.17976 16.5472 12.0532 18.9324C14.8984 16.5621 16.4122 15.5063 18.5688 12.8865C19.2804 12.0221 19.6186 11.1175 19.6187 10.2156C19.6187 9.31156 19.2598 8.44391 18.6206 7.8045C17.9812 7.16531 17.1136 6.80646 16.2095 6.80646C15.3056 6.80654 14.4386 7.1655 13.7993 7.8045L12.5659 9.03693C12.2538 9.34875 11.7475 9.34935 11.4351 9.0379L10.1753 7.78204L10.1743 7.78107C9.53497 7.14214 8.66804 6.78306 7.76416 6.78302C6.86006 6.78302 5.99244 7.14189 5.35303 7.78107C4.71385 8.42048 4.35498 9.2881 4.35498 10.1922Z" fill="white"/>
</svg>
