<svg width="24" height="24" viewBox="0 0 24 24" fill="none" xmlns="http://www.w3.org/2000/svg">
<path fill-rule="evenodd" clip-rule="evenodd" d="M11.517 20.1541C8.65421 17.6075 7.05898 16.1337 4.88218 13.3418C4.05517 12.2811 3.59375 11.0754 3.59375 9.79621C3.59375 8.51904 4.07419 7.29416 4.92941 6.39093C5.78489 5.48798 6.94516 4.98056 8.15481 4.98056C9.36439 4.98056 10.5245 5.48776 11.3799 6.39062L12.0108 7.05611L12.6203 6.41309C13.4758 5.51013 14.6359 5.00288 15.8456 5.00288C17.0552 5.00288 18.2153 5.51013 19.0708 6.41309C19.926 7.31632 20.4066 8.54136 20.4066 9.81853C20.4066 11.0977 19.9452 12.3035 19.1182 13.3641C16.9409 16.1566 15.3455 17.6305 12.4815 20.1781C12.1971 20.4312 11.7827 20.4148 11.517 20.1541Z" fill="white"/>
</svg>
