<svg width="24" height="24" viewBox="0 0 24 24" fill="none" xmlns="http://www.w3.org/2000/svg">
<path d="M13.0001 3C8.0301 3 4.0001 7.03 4.0001 12H2.19241C1.74906 12 1.52504 12.5342 1.83577 12.8504L4.25392 15.3113C4.64307 15.7074 5.28034 15.7106 5.67343 15.3184L8.14399 12.854C8.45957 12.5392 8.23662 12 7.79087 12H6.0001C6.0001 8.13 9.1301 5 13.0001 5C16.8701 5 20.0001 8.13 20.0001 12C20.0001 15.87 16.8701 19 13.0001 19C11.4308 19 9.98044 18.4777 8.8158 17.5997C8.37356 17.2663 7.74031 17.2598 7.3487 17.6514C6.95817 18.0419 6.95357 18.6816 7.38444 19.0271C8.92319 20.261 10.8702 21 13.0001 21C17.9701 21 22.0001 16.97 22.0001 12C22.0001 7.03 17.9701 3 13.0001 3ZM12.7501 8C12.3359 8 12.0001 8.33579 12.0001 8.75V13L15.6752 15.181C16.0094 15.3793 16.4411 15.2695 16.6398 14.9355C16.8387 14.6012 16.7289 14.1688 16.3944 13.97L13.5001 12.25V8.75C13.5001 8.33579 13.1643 8 12.7501 8Z" fill="white"/>
</svg>
