<svg width="24" height="24" viewBox="0 0 24 24" fill="none" xmlns="http://www.w3.org/2000/svg">
<path fill-rule="evenodd" clip-rule="evenodd" d="M18.9551 3.73899C18.5966 2.80841 17.6072 2.28419 16.6359 2.51008L11.7948 3.63589L7.22304 2.53425C6.19892 2.28748 5.15895 2.8774 4.84525 3.88304L3.00313 9.78856H1.31641C0.764121 9.78856 0.316406 10.2363 0.316406 10.7886C0.316406 11.3408 0.764121 11.7886 1.31641 11.7886H3.71601C3.73139 11.7889 3.74673 11.7889 3.76202 11.7886H20.5769C20.5923 11.7889 20.6077 11.7889 20.6232 11.7886H22.6838C23.236 11.7886 23.6838 11.3408 23.6838 10.7886C23.6838 10.2363 23.236 9.78856 22.6838 9.78856H21.2862L18.9551 3.73899ZM19.1428 9.78856H5.09817L6.75452 4.4786L11.3263 5.58024C11.629 5.65318 11.9446 5.65443 12.2479 5.5839L17.0889 4.4581L19.1428 9.78856Z" fill="white"/>
<path fill-rule="evenodd" clip-rule="evenodd" d="M2.85156 17.8765L0.988054 16.354C0.560368 16.0045 0.496932 15.3746 0.846365 14.9469C1.1958 14.5192 1.82578 14.4558 2.25346 14.8052L2.85252 15.2946C2.88743 14.1574 3.86798 13.2726 5.01063 13.3637L9.48299 13.7206C10.4723 13.7995 11.2459 14.5893 11.3184 15.5643C11.4045 15.5436 11.4925 15.5259 11.5823 15.5117C11.9747 15.4497 12.3886 15.4567 12.8053 15.5557C12.8817 14.5847 13.6536 13.7993 14.6401 13.7206L19.1124 13.3637C20.2054 13.2765 21.15 14.0822 21.2607 15.1477L21.7392 14.7041C22.1442 14.3287 22.7769 14.3527 23.1524 14.7577C23.5278 15.1628 23.5038 15.7955 23.0988 16.1709L21.2715 17.8647V19.2134C21.2715 20.2481 20.4822 21.1121 19.4516 21.2052L14.9792 21.6096C13.8083 21.7155 12.7991 20.7935 12.7991 19.6178V17.7175C12.4544 17.4706 12.1486 17.447 11.8947 17.4872C11.6859 17.5202 11.4878 17.6029 11.3239 17.6986V19.6178C11.3239 20.7935 10.3147 21.7155 9.14381 21.6096L4.67145 21.2052C3.64088 21.1121 2.85156 20.2481 2.85156 19.2134V17.8765ZM4.85156 15.8989C4.85156 15.6071 5.10043 15.3772 5.39133 15.4005L8.86369 15.6775C9.12358 15.6982 9.32392 15.9152 9.32392 16.1759L9.32392 19.0705C9.32392 19.3644 9.07162 19.595 8.77889 19.5685L5.30653 19.2545C5.04889 19.2312 4.85156 19.0152 4.85156 18.7565V15.8989ZM14.7991 16.1759C14.7991 15.9152 14.9995 15.6982 15.2594 15.6775L18.7317 15.4005C19.0226 15.3772 19.2715 15.6071 19.2715 15.8989V18.7565C19.2715 19.0152 19.0742 19.2312 18.8165 19.2545L15.3442 19.5685C15.0514 19.595 14.7991 19.3644 14.7991 19.0705L14.7991 16.1759Z" fill="white"/>
</svg>
