<svg width="24" height="24" viewBox="0 0 24 24" fill="none" xmlns="http://www.w3.org/2000/svg"><path d="M8.929 6.571a2.357 2.357 0 1 1-.001 4.714 2.357 2.357 0 0 1 0-4.714" fill="#fff" fill-opacity=".55"/><path fill-rule="evenodd" clip-rule="evenodd" d="M17 2a5 5 0 0 1 5 5v10a5 5 0 0 1-5 5H7a5 5 0 0 1-5-5V7a5 5 0 0 1 5-5zm.499 11.031c-.951-.127-2.267.102-4.096 1.36-2.832 1.95-6.22 2.505-9.403 1.147V17a3 3 0 0 0 3 3h10a3 3 0 0 0 3-3v-2.695l-.015.016c-.729-.636-1.513-1.16-2.486-1.29M7 4a3 3 0 0 0-3 3v6.31c2.709 1.521 5.69 1.21 8.27-.566 2.11-1.452 3.917-1.905 5.494-1.695a5.8 5.8 0 0 1 2.236.8V7a3 3 0 0 0-3-3z" fill="#fff" fill-opacity=".55"/></svg>