<svg width="24" height="24" viewBox="0 0 24 24" fill="none" xmlns="http://www.w3.org/2000/svg">
<path d="M8.92871 6.57129C10.2304 6.57144 11.2852 7.62699 11.2852 8.92871C11.2851 10.2304 10.2303 11.286 8.92871 11.2861C7.62695 11.2861 6.57137 10.2305 6.57129 8.92871C6.57129 7.6269 7.6269 6.57129 8.92871 6.57129Z" fill="white"/>
<path fill-rule="evenodd" clip-rule="evenodd" d="M17 2C19.7614 2 22 4.23858 22 7V17C22 19.7614 19.7614 22 17 22H7C4.23858 22 2 19.7614 2 17V7C2 4.23858 4.23858 2 7 2H17ZM17.499 13.0312C16.5477 12.9044 15.2316 13.1329 13.4033 14.3916C10.5711 16.3413 7.18253 16.8961 4 15.5381V17C4 18.6569 5.34315 20 7 20H17C18.6569 20 20 18.6569 20 17V14.3047L19.9854 14.3213C19.2564 13.685 18.4718 13.161 17.499 13.0312ZM7 4C5.34315 4 4 5.34315 4 7V13.3105C6.70856 14.8312 9.69013 14.5199 12.2695 12.7441C14.3791 11.2918 16.1866 10.8386 17.7637 11.0488C18.6298 11.1644 19.3703 11.4729 20 11.8496V7C20 5.34315 18.6569 4 17 4H7Z" fill="white"/>
</svg>
