<svg width="24" height="24" viewBox="0 0 24 24" fill="none" xmlns="http://www.w3.org/2000/svg">
<path d="M20.9999 17.537C20.9951 17.8928 20.8376 18.2897 20.4701 18.671L19.1044 20.0591L19.0948 20.0694C18.5211 20.6863 17.8398 20.9863 16.977 20.9997C16.9025 21.0008 16.8294 20.9989 16.7427 20.9965L16.727 20.996C15.3531 20.9265 14.1116 20.427 13.1448 19.9822C10.6321 18.7982 8.44121 17.1049 6.63121 14.9373C5.13286 13.1332 4.14352 11.4534 3.49994 9.64757L3.49908 9.64519C3.08146 8.48269 2.94041 7.5522 3.02219 6.69287C3.08696 6.0459 3.3546 5.48445 3.83229 5.00847L5.34163 3.50454C5.70612 3.16072 6.08745 3.00581 6.45221 3.00016C6.82037 2.99446 7.17627 3.13705 7.4961 3.44928L9.84995 5.79419L9.85429 5.79847C10.2018 6.14178 10.3509 6.51004 10.3454 6.86051C10.3399 7.21466 10.1711 7.6074 9.79563 7.98162L8.10417 9.64423L8.42888 10.2946C8.55694 10.5511 8.70494 10.8068 8.87614 11.0691C9.05771 11.3474 9.26553 11.6333 9.50315 11.9353L9.50824 11.9418L9.51344 11.9482C10.6447 13.3384 11.8433 14.4268 13.1781 15.2587C13.3323 15.355 13.4999 15.4381 13.6564 15.5143L14.3545 15.8542L14.8585 15.3512C15.0406 15.1693 15.3173 14.8932 15.5555 14.6559L15.8667 14.3458L15.9686 14.2445L15.9999 14.2136L16.0087 14.2049L16.0113 14.2024L16.0164 14.1974L16.0215 14.1923C16.3813 13.8339 16.7672 13.6696 17.1327 13.664C17.4922 13.6584 17.8472 13.8054 18.1632 14.1317L18.1695 14.1382L20.5238 16.4836C20.8623 16.8207 21.0046 17.1864 20.9999 17.537Z" fill="white"/>
<path fill-rule="evenodd" clip-rule="evenodd" d="M20.2929 8.70711C20.2319 9.25601 19.7375 9.65155 19.1886 9.59056L14.8874 9.11265L14.4094 4.81142C14.3485 4.26252 14.744 3.7681 15.2929 3.70711C15.8418 3.64612 16.3362 4.04165 16.3972 4.59056L16.557 6.02878L18.8787 3.70711C19.2692 3.31658 19.9024 3.31658 20.2929 3.70711C20.6834 4.09763 20.6834 4.7308 20.2929 5.12132L17.9712 7.44299L19.4094 7.60279C19.9583 7.66378 20.3539 8.1582 20.2929 8.70711Z" fill="white"/>
</svg>
