<svg width="24" height="24" viewBox="0 0 24 24" fill="none" xmlns="http://www.w3.org/2000/svg">
<path fill-rule="evenodd" clip-rule="evenodd" d="M3 12C3 7.032 7.032 3 12 3C16.968 3 21 7.032 21 12C21 16.968 16.968 21 12 21C7.032 21 3 16.968 3 12ZM5 12C5 15.8587 8.14125 19 12 19C15.8587 19 19 15.8587 19 12C19 8.14125 15.8587 5 12 5C8.14125 5 5 8.14125 5 12ZM11 8C11 7.44772 11.4477 7 12 7C12.5523 7 13 7.44772 13 8C13 8.55228 12.5523 9 12 9C11.4477 9 11 8.55228 11 8ZM12 10C11.4477 10 11 10.4477 11 11V16C11 16.5523 11.4477 17 12 17C12.5523 17 13 16.5523 13 16V11C13 10.4477 12.5523 10 12 10Z" fill="white"/>
</svg>
