<svg width="24" height="24" viewBox="0 0 24 24" fill="none" xmlns="http://www.w3.org/2000/svg">
<path d="M18.9189 4H10.5586C10.2718 4 9.99686 4.10536 9.79412 4.29289C9.59138 4.48043 9.47748 4.73478 9.47748 5C9.47748 5.26522 9.59138 5.51957 9.79412 5.70711C9.99686 5.89464 10.2718 6 10.5586 6H13.4559L8.51459 18H5.08108C4.79436 18 4.51938 18.1054 4.31664 18.2929C4.1139 18.4804 4 18.7348 4 19C4 19.2652 4.1139 19.5196 4.31664 19.7071C4.51938 19.8946 4.79436 20 5.08108 20H13.4414C13.7282 20 14.0031 19.8946 14.2059 19.7071C14.4086 19.5196 14.5225 19.2652 14.5225 19C14.5225 18.7348 14.4086 18.4804 14.2059 18.2929C14.0031 18.1054 13.7282 18 13.4414 18H10.8295L15.7708 6H18.9189C19.2056 6 19.4806 5.89464 19.6834 5.70711C19.8861 5.51957 20 5.26522 20 5C20 4.73478 19.8861 4.48043 19.6834 4.29289C19.4806 4.10536 19.2056 4 18.9189 4Z" fill="white"/>
</svg>
