<svg width="24" height="24" viewBox="0 0 24 24" fill="none" xmlns="http://www.w3.org/2000/svg">
<path fill-rule="evenodd" clip-rule="evenodd" d="M16.7368 5.11765H7.26316C5.5191 5.11765 4.10526 6.5398 4.10526 8.29412V15.7059C4.10526 17.4602 5.5191 18.8824 7.26316 18.8824H16.7368C18.4809 18.8824 19.8947 17.4602 19.8947 15.7059V8.29412C19.8947 6.5398 18.4809 5.11765 16.7368 5.11765ZM7.26316 3C4.3564 3 2 5.37026 2 8.29412V15.7059C2 18.6297 4.3564 21 7.26316 21H16.7368C19.6436 21 22 18.6297 22 15.7059V8.29412C22 5.37026 19.6436 3 16.7368 3H7.26316Z" fill="white"/>
<path d="M7.26316 15.7059C7.26316 15.1211 7.73444 14.6471 8.31579 14.6471H15.6842C16.2656 14.6471 16.7368 15.1211 16.7368 15.7059C16.7368 16.2907 16.2656 16.7647 15.6842 16.7647H8.31579C7.73444 16.7647 7.26316 16.2907 7.26316 15.7059Z" fill="white"/>
<path d="M6.21053 7.44706C6.21053 7.3301 6.30478 7.23529 6.42105 7.23529H8.10526C8.22153 7.23529 8.31579 7.3301 8.31579 7.44706V9.14118C8.31579 9.25813 8.22153 9.35294 8.10526 9.35294H6.42105C6.30478 9.35294 6.21053 9.25813 6.21053 9.14118V7.44706Z" fill="white"/>
<path d="M12.5263 7.44706C12.5263 7.3301 12.6206 7.23529 12.7368 7.23529H14.4211C14.5373 7.23529 14.6316 7.3301 14.6316 7.44706V9.14118C14.6316 9.25813 14.5373 9.35294 14.4211 9.35294H12.7368C12.6206 9.35294 12.5263 9.25813 12.5263 9.14118V7.44706Z" fill="white"/>
<path d="M9.36842 10.6235C9.36842 10.5066 9.46268 10.4118 9.57895 10.4118H11.2632C11.3794 10.4118 11.4737 10.5066 11.4737 10.6235V12.3176C11.4737 12.4346 11.3794 12.5294 11.2632 12.5294H9.57895C9.46268 12.5294 9.36842 12.4346 9.36842 12.3176V10.6235Z" fill="white"/>
<path d="M9.36842 7.44706C9.36842 7.3301 9.46268 7.23529 9.57895 7.23529H11.2632C11.3794 7.23529 11.4737 7.3301 11.4737 7.44706V9.14118C11.4737 9.25813 11.3794 9.35294 11.2632 9.35294H9.57895C9.46268 9.35294 9.36842 9.25813 9.36842 9.14118V7.44706Z" fill="white"/>
<path d="M6.21053 10.6235C6.21053 10.5066 6.30478 10.4118 6.42105 10.4118H8.10526C8.22153 10.4118 8.31579 10.5066 8.31579 10.6235V12.3176C8.31579 12.4346 8.22153 12.5294 8.10526 12.5294H6.42105C6.30478 12.5294 6.21053 12.4346 6.21053 12.3176V10.6235Z" fill="white"/>
<path d="M12.5263 10.6235C12.5263 10.5066 12.6206 10.4118 12.7368 10.4118H14.4211C14.5373 10.4118 14.6316 10.5066 14.6316 10.6235V12.3176C14.6316 12.4346 14.5373 12.5294 14.4211 12.5294H12.7368C12.6206 12.5294 12.5263 12.4346 12.5263 12.3176V10.6235Z" fill="white"/>
<path d="M15.6842 7.44706C15.6842 7.3301 15.7785 7.23529 15.8947 7.23529H17.5789C17.6952 7.23529 17.7895 7.3301 17.7895 7.44706V9.14118C17.7895 9.25813 17.6952 9.35294 17.5789 9.35294H15.8947C15.7785 9.35294 15.6842 9.25813 15.6842 9.14118V7.44706Z" fill="white"/>
<path d="M15.6842 10.6235C15.6842 10.5066 15.7785 10.4118 15.8947 10.4118H17.5789C17.6952 10.4118 17.7895 10.5066 17.7895 10.6235V12.3176C17.7895 12.4346 17.6952 12.5294 17.5789 12.5294H15.8947C15.7785 12.5294 15.6842 12.4346 15.6842 12.3176V10.6235Z" fill="white"/>
</svg>
