<svg width="24" height="24" viewBox="0 0 24 24" fill="none" xmlns="http://www.w3.org/2000/svg">
<circle cx="12" cy="12" r="11" fill="black"/>
<path d="M13.5825 17.1425C13.5825 18.0165 12.874 18.725 11.9999 18.725C11.1259 18.725 10.4173 18.0165 10.4173 17.1425C10.4173 16.2684 11.1259 15.5599 11.9999 15.5599C12.874 15.5599 13.5825 16.2684 13.5825 17.1425Z" fill="white"/>
<path d="M9.23047 7.77834C8.90103 6.51153 9.85714 5.27496 11.1661 5.27496H12.788C14.1111 5.27496 15.0695 6.53669 14.7147 7.81133L13.0498 13.7921C12.9088 14.2984 12.4477 14.6487 11.9222 14.6487C11.3892 14.6487 10.9235 14.2886 10.7894 13.7728L9.23047 7.77834Z" fill="white"/>
</svg>
