<svg width="24" height="24" viewBox="0 0 24 24" fill="none" xmlns="http://www.w3.org/2000/svg">
<path d="M8.36818 20.5222C8.36818 20.7928 8.45073 21.0568 8.60836 21.2824L9.38745 22.3863C9.62609 22.7248 10.1679 23 10.5984 23H13.4015C13.8305 23 14.3725 22.7249 14.6111 22.3863L15.3875 21.2828C15.521 21.0921 15.6305 20.7512 15.6305 20.5222L15.6364 18.8376H8.36364L8.36818 20.5222ZM11.9727 1.00004C7.33818 1.01347 4 4.56495 4 8.52407C4 10.4312 4.74727 12.1699 5.98 13.5004C6.73136 14.31 7.90455 16.0027 8.35364 17.4303C8.35506 17.441 8.3579 17.4524 8.35932 17.4639H15.6411C15.6426 17.4525 15.6454 17.4417 15.6468 17.4303C16.0957 16.0027 17.2691 14.31 18.0205 13.5004C19.2545 12.2069 20 10.4708 20 8.52407C20 4.37759 16.4045 0.987277 11.9727 1.00004ZM12 5.12532C9.99409 5.12532 8.36364 6.66763 8.36364 8.5245C8.36364 8.94091 8.03636 9.25031 7.63636 9.25031C7.23636 9.25031 6.90909 8.94091 6.90909 8.56274C6.90909 5.90872 9.19318 3.78843 12 3.78843C12.402 3.78843 12.7273 4.09607 12.7273 4.476C12.7273 4.85592 12.4 5.12532 12 5.12532Z" fill="white"/>
</svg>
