<svg width="24" height="24" viewBox="0 0 24 24" fill="none" xmlns="http://www.w3.org/2000/svg">
<path d="M17.5947 2.00324C18.1738 2.00388 18.7472 2.11886 19.2822 2.34113C19.8172 2.56338 20.3037 2.88812 20.7129 3.29816C21.1222 3.70831 21.4468 4.19535 21.668 4.73078C21.889 5.26607 22.0025 5.83991 22.002 6.41925C22.0014 6.99867 21.8863 7.57275 21.6641 8.10773C21.4421 8.64202 21.1163 9.12659 20.707 9.53546L15.9072 14.346L15.9063 14.347C15.0794 15.173 13.9589 15.638 12.79 15.638C11.6212 15.638 10.4998 15.173 9.67285 14.347C9.28249 13.9566 9.28265 13.3235 9.67285 12.9329C10.0632 12.5426 10.6963 12.5427 11.0869 12.9329C11.5388 13.3841 12.1515 13.638 12.79 13.638C13.4286 13.638 14.0413 13.3842 14.4932 12.9329L19.292 8.12335L19.2939 8.12238C19.5181 7.89868 19.6959 7.63258 19.8174 7.34015C19.9389 7.04768 20.0016 6.73388 20.002 6.4173C20.0023 6.10082 19.9402 5.78716 19.8193 5.49445C19.6984 5.20164 19.5205 4.93538 19.2969 4.71125C19.0733 4.48722 18.8079 4.30929 18.5156 4.18781C18.2234 4.0664 17.9095 4.00362 17.5928 4.00324C17.276 4.00291 16.9616 4.06498 16.6689 4.18585C16.3765 4.30666 16.1108 4.48385 15.8867 4.70734L13.9893 6.61554C13.5998 7.00709 12.9658 7.00797 12.5742 6.61847C12.1831 6.22894 12.1819 5.59581 12.5713 5.20441L14.4707 3.29425L14.4736 3.2923C14.8836 2.88317 15.3699 2.55839 15.9053 2.33722C16.4408 2.11603 17.0154 2.00264 17.5947 2.00324Z" fill="white"/>
<path d="M11.21 8.35248C12.3786 8.35251 13.4993 8.81665 14.3262 9.64252C14.7169 10.0328 14.7175 10.6659 14.3272 11.0566C13.9368 11.4473 13.3038 11.4479 12.9131 11.0576C12.4612 10.6062 11.8487 10.3525 11.21 10.3525C10.5713 10.3525 9.95876 10.6061 9.50684 11.0576L4.70801 15.8759L4.70606 15.8779C4.48192 16.1016 4.3041 16.3677 4.18262 16.6601C4.06118 16.9525 3.99838 17.2664 3.99805 17.5829C3.99778 17.8994 4.05978 18.2131 4.18067 18.5058C4.30159 18.7986 4.47948 19.0649 4.70313 19.289C4.92674 19.513 5.19211 19.691 5.48438 19.8124C5.77669 19.9339 6.09044 19.9967 6.40723 19.997C6.72386 19.9973 7.03755 19.9351 7.33008 19.8144C7.62264 19.6936 7.88896 19.5158 8.11328 19.2919L10.0088 17.3769C10.3972 16.9844 11.0303 16.9809 11.4229 17.3691C11.8154 17.7575 11.819 18.3906 11.4307 18.7831L9.53028 20.7031L9.52637 20.7079C9.1164 21.1171 8.62942 21.4418 8.09375 21.663C7.55828 21.8841 6.98444 21.9976 6.40528 21.997C5.82618 21.9964 5.25281 21.8813 4.71778 21.6591C4.18274 21.4368 3.69636 21.1112 3.28711 20.7011C2.87793 20.2911 2.55314 19.8047 2.33203 19.2695C2.11091 18.7341 1.99745 18.1595 1.99805 17.58C1.99871 17.0007 2.11375 16.4274 2.33594 15.8925C2.55821 15.3575 2.88386 14.8711 3.29395 14.4619L8.0918 9.64447L8.09278 9.64252C8.91965 8.81649 10.0411 8.35248 11.21 8.35248Z" fill="white"/>
</svg>
