<svg width="24" height="24" viewBox="0 0 24 24" fill="none" xmlns="http://www.w3.org/2000/svg">
<path d="M12 17C13.1046 17 14 16.1046 14 15C14 13.8954 13.1046 13 12 13C10.8954 13 10 13.8954 10 15C10 16.1046 10.8954 17 12 17Z" fill="white"/>
<path fill-rule="evenodd" clip-rule="evenodd" d="M8.02782 2.67712C8.83353 1.69794 10.1268 1 12 1C13.9259 1 15.2261 1.82489 16.0115 2.91571C16.7602 3.95551 17 5.17334 17 6V8C18.6569 8 20 9.34314 20 11V19C20 20.6569 18.6569 22 17 22H7C5.34315 22 4 20.6569 4 19V11C4 9.34314 5.34315 8 7 8V5.5C7 4.72705 7.25578 3.61536 8.02782 2.67712ZM15 6V8H9V5.5C9 5.10626 9.14422 4.46802 9.57218 3.94788C9.96648 3.46875 10.6732 3 12 3C13.2741 3 13.9739 3.50848 14.3885 4.08429C14.8398 4.71112 15 5.49335 15 6ZM7 10C6.44772 10 6 10.4477 6 11V19C6 19.5523 6.44772 20 7 20H17C17.5523 20 18 19.5523 18 19V11C18 10.4477 17.5523 10 17 10H7Z" fill="white"/>
</svg>
