<svg width="24" height="24" viewBox="0 0 24 24" fill="none" xmlns="http://www.w3.org/2000/svg">
<path fill-rule="evenodd" clip-rule="evenodd" d="M23.7287 5.21301C23.7287 8.09207 21.3948 10.426 18.5157 10.426C15.6367 10.426 13.3027 8.09207 13.3027 5.21301C13.3027 2.33394 15.6367 0 18.5157 0C21.3948 0 23.7287 2.33394 23.7287 5.21301ZM21.9244 2.76656C22.2818 3.08671 22.312 3.63599 21.9918 3.99342L18.1115 8.32562L15.5474 6.26489C15.1734 5.96429 15.1139 5.41741 15.4145 5.04339C15.7151 4.66937 16.2619 4.60985 16.636 4.91045L17.9161 5.93929L20.6975 2.83405C21.0176 2.47663 21.5669 2.44641 21.9244 2.76656Z" fill="white"/>
<path d="M8 2C4.13401 2 1 5.13401 1 9V12C1 15.5922 3.70581 18.5524 7.19048 18.9537V21.8981C7.19048 23.1869 8.70836 23.8756 9.67823 23.027L14.2805 19H16C19.866 19 23 15.866 23 12V11.933C23 11.3807 22.5523 10.933 22 10.933C21.4477 10.933 21 11.3807 21 11.933V12C21 14.7614 18.7614 17 16 17H13.529L9.19048 20.7962V17H8C5.23858 17 3 14.7614 3 12V9C3 6.23858 5.23858 4 8 4H11.2361C11.7884 4 12.2361 3.55228 12.2361 3C12.2361 2.44772 11.7884 2 11.2361 2H8Z" fill="white"/>
</svg>
