<svg width="24" height="24" viewBox="0 0 24 24" fill="none" xmlns="http://www.w3.org/2000/svg">
<path d="M19.5 9C21.9853 9 24 6.98528 24 4.5C24 2.01472 21.9853 0 19.5 0C17.0147 0 15 2.01472 15 4.5C15 6.98528 17.0147 9 19.5 9Z" fill="white"/>
<path d="M8 2C4.13401 2 1 5.13401 1 9V12C1 15.5922 3.70581 18.5524 7.19048 18.9537V21.8981C7.19048 23.1869 8.70836 23.8756 9.67823 23.027L14.2805 19H16C19.866 19 23 15.866 23 12V11.2388C23 10.6866 22.5523 10.2388 22 10.2388C21.4477 10.2388 21 10.6866 21 11.2388V12C21 14.7614 18.7614 17 16 17H13.529L9.19048 20.7962V17H8C5.23858 17 3 14.7614 3 12V9C3 6.23858 5.23858 4 8 4H12.5836C13.1358 4 13.5836 3.55228 13.5836 3C13.5836 2.44772 13.1358 2 12.5836 2H8Z" fill="white"/>
</svg>
