<svg width="24" height="24" viewBox="0 0 24 24" fill="none" xmlns="http://www.w3.org/2000/svg">
<path d="M12.4617 7.92133C12.2909 7.51068 11.7091 7.51068 11.5383 7.92133L10.7948 9.7091C10.7228 9.88221 10.56 10.0005 10.3731 10.0155L8.44302 10.1702C7.99969 10.2058 7.81993 10.759 8.1577 11.0483L9.62819 12.308C9.77058 12.4299 9.83277 12.6213 9.78926 12.8037L9.34 14.6871C9.23681 15.1197 9.70744 15.4617 10.087 15.2298L11.7394 14.2206C11.8994 14.1228 12.1006 14.1228 12.2606 14.2206L13.913 15.2298C14.2926 15.4617 14.7632 15.1197 14.66 14.6871L14.2107 12.8037C14.1672 12.6213 14.2294 12.4299 14.3718 12.308L15.8423 11.0483C16.1801 10.759 16.0003 10.2058 15.557 10.1702L13.6269 10.0155C13.44 10.0005 13.2772 9.88221 13.2052 9.7091L12.4617 7.92133Z" fill="white"/>
<path fill-rule="evenodd" clip-rule="evenodd" d="M11.1877 1.17238C11.7049 0.942541 12.2951 0.942541 12.8123 1.17238L19.8123 4.28349C20.5345 4.60449 21 5.32073 21 6.11111V10.8114C21 16.1909 17.3922 21.4799 12.4716 22.9319C12.3177 22.9773 12.1588 23 12 23C11.8412 23 11.6823 22.9773 11.5284 22.9319C6.60778 21.4799 3 16.1909 3 10.8114V6.11111C3 5.32073 3.46547 4.60449 4.18772 4.28349L11.1877 1.17238ZM12.5826 20.7862C16.3046 19.3399 19 15.1101 19 10.8114V6.76133C19 6.3661 18.7672 6.00794 18.406 5.84747L12.406 3.18175C12.1475 3.06691 11.8525 3.06691 11.594 3.18175L5.59398 5.84747C5.23279 6.00794 5 6.3661 5 6.76133V10.8114C5 15.1101 7.69543 19.3399 11.4174 20.7862C11.7921 20.9317 12.2079 20.9317 12.5826 20.7862Z" fill="white"/>
</svg>
