<svg width="24" height="24" viewBox="0 0 24 24" fill="none" xmlns="http://www.w3.org/2000/svg">
<path fill-rule="evenodd" clip-rule="evenodd" d="M10.9745 1.42432C9.17458 1.42432 7.7798 2.99831 7.99632 4.78519L9.13806 14.2076C9.31197 15.6429 10.5302 16.7224 11.9759 16.7224C13.4174 16.7224 14.6333 15.6492 14.8124 14.2189L15.9922 4.79706C16.2165 3.00629 14.8202 1.42432 13.0155 1.42432H10.9745ZM9.9818 4.54461C9.90963 3.94898 10.3746 3.42432 10.9745 3.42432H13.0155C13.6171 3.42432 14.0825 3.95164 14.0077 4.54856L12.8279 13.9705C12.7741 14.4001 12.4089 14.7224 11.9759 14.7224C11.5417 14.7224 11.1758 14.3982 11.1235 13.9671L9.9818 4.54461Z" fill="white"/>
<path fill-rule="evenodd" clip-rule="evenodd" d="M9.49976 20.2531C9.49976 21.6338 10.619 22.7531 11.9998 22.7531C13.3805 22.7531 14.4998 21.6338 14.4998 20.2531C14.4998 18.8724 13.3805 17.7531 11.9998 17.7531C10.619 17.7531 9.49976 18.8724 9.49976 20.2531ZM10.9998 20.2531C10.9998 19.7008 11.4475 19.2531 11.9998 19.2531C12.552 19.2531 12.9998 19.7008 12.9998 20.2531C12.9998 20.8054 12.552 21.2531 11.9998 21.2531C11.4475 21.2531 10.9998 20.8054 10.9998 20.2531Z" fill="white"/>
</svg>
