<svg width="24" height="24" viewBox="0 0 24 24" fill="none" xmlns="http://www.w3.org/2000/svg">
<path fill-rule="evenodd" clip-rule="evenodd" d="M16.9999 6C16.9999 5.44772 17.4476 5 17.9999 5C19.6567 5 20.9999 6.34315 20.9999 8C20.9999 9.65685 19.6567 11 17.9999 11C17.4476 11 16.9999 10.5523 16.9999 10C16.9999 9.44772 17.4476 9 17.9999 9C18.5521 9 18.9999 8.55228 18.9999 8C18.9999 7.44772 18.5521 7 17.9999 7C17.4476 7 16.9999 6.55228 16.9999 6Z" fill="white"/>
<path fill-rule="evenodd" clip-rule="evenodd" d="M17.0237 11.7831C17.1435 11.2439 17.6777 10.904 18.2168 11.0238C21.6321 11.7828 23.0676 14.0887 23.6312 15.5522C23.8718 16.1767 23.7429 16.8191 23.3738 17.2863C23.0163 17.7387 22.4601 18 21.8671 18H20.9999C20.4476 18 19.9999 17.5523 19.9999 17C19.9999 16.4477 20.4476 16 20.9999 16H21.6522C21.1816 14.9484 20.135 13.4989 17.7829 12.9762C17.2438 12.8564 16.9039 12.3222 17.0237 11.7831Z" fill="white"/>
<path fill-rule="evenodd" clip-rule="evenodd" d="M6.99986 6C6.99986 5.44772 6.55215 5 5.99986 5C4.34301 5 2.99986 6.34315 2.99986 8C2.99986 9.65685 4.34301 11 5.99986 11C6.55215 11 6.99986 10.5523 6.99986 10C6.99986 9.44772 6.55215 9 5.99986 9C5.44758 9 4.99986 8.55228 4.99986 8C4.99986 7.44772 5.44758 7 5.99986 7C6.55215 7 6.99986 6.55228 6.99986 6Z" fill="white"/>
<path fill-rule="evenodd" clip-rule="evenodd" d="M6.99986 12C6.99986 11.4477 6.55215 11 5.99986 11C4.14743 11 2.81207 11.7421 1.89397 12.7202C1.00227 13.6701 0.53083 14.81 0.284927 15.6227C-0.11513 16.9447 0.969154 18 2.11698 18H3.49986C4.05215 18 4.49986 17.5523 4.49986 17C4.49986 16.4477 4.05215 16 3.49986 16H2.26372C2.47172 15.3822 2.81272 14.6637 3.35216 14.089C3.92516 13.4786 4.74616 13 5.99986 13C6.55215 13 6.99986 12.5523 6.99986 12Z" fill="white"/>
<path fill-rule="evenodd" clip-rule="evenodd" d="M11.9999 10C13.1044 10 13.9999 9.10457 13.9999 8C13.9999 6.89543 13.1044 6 11.9999 6C10.8953 6 9.99986 6.89543 9.99986 8C9.99986 9.10457 10.8953 10 11.9999 10ZM11.9999 12C14.209 12 15.9999 10.2091 15.9999 8C15.9999 5.79086 14.209 4 11.9999 4C9.79072 4 7.99986 5.79086 7.99986 8C7.99986 10.2091 9.79072 12 11.9999 12Z" fill="white"/>
<path fill-rule="evenodd" clip-rule="evenodd" d="M11.9999 14C9.41517 14 7.94201 15.6166 7.01766 17.6122C6.86409 17.9438 6.9158 18.1973 7.11056 18.4406C7.34292 18.7309 7.80719 19 8.41389 19H15.5858C16.1925 19 16.6568 18.7309 16.8892 18.4406C17.0839 18.1973 17.1356 17.9438 16.9821 17.6122C16.0577 15.6166 14.5845 14 11.9999 14ZM15.5858 21H8.41389C6.04953 21 4.20917 18.9171 5.20288 16.7717C6.28524 14.4349 8.3006 12 11.9999 12C15.6991 12 17.7145 14.4349 18.7968 16.7717C19.7905 18.9171 17.9502 21 15.5858 21Z" fill="white"/>
</svg>
