<svg width="24" height="24" viewBox="0 0 24 24" fill="none" xmlns="http://www.w3.org/2000/svg">
<path fill-rule="evenodd" clip-rule="evenodd" d="M8.33487 7.21186C9.16019 6.74489 10.0919 6.49598 11.0412 6.48883C12.4377 6.48552 13.7823 7.01481 14.7988 7.96781L14.9422 8.10227L14.9679 7.90737C15 7.66378 15.1204 7.4402 15.3068 7.27883C15.4931 7.11745 15.7332 7.02945 15.9803 7.03154C16.2488 7.03154 16.5061 7.1377 16.6958 7.32653C16.8855 7.51535 16.9919 7.77134 16.9919 8.03817V12.8209C16.9715 13.3555 17.1552 13.878 17.5059 14.2832C17.8571 14.6889 18.3496 14.9471 18.8842 15.0056L18.891 15.0058C19.1599 15.0168 19.4282 14.9737 19.68 14.8792C19.9318 14.7846 20.1619 14.6405 20.3565 14.4554C20.5512 14.2704 20.7064 14.0481 20.8129 13.8019C20.9194 13.5558 20.975 13.2902 20.9763 13.0222V12.2696C21.0052 10.0053 20.1896 7.81089 18.6874 6.11067C17.1851 4.41028 15.1029 3.32499 12.8435 3.06465L12.8411 3.06443C11.3849 2.93126 9.91806 3.1533 8.56742 3.71136C7.21678 4.26943 6.02302 5.14674 5.08944 6.26741C4.15585 7.38808 3.51058 8.71837 3.20947 10.1432C2.90837 11.568 2.96051 13.0444 3.3614 14.4447C3.76228 15.8449 4.49981 17.1268 5.51014 18.1794C6.52047 19.232 7.77317 20.0236 9.15984 20.4859C10.5465 20.9481 12.0254 21.0671 13.4686 20.8324C14.9118 20.5977 16.2759 20.0165 17.4428 19.139L17.4436 19.1384C17.5496 19.0569 17.6708 18.9972 17.8001 18.9627C17.9295 18.9282 18.0644 18.9196 18.1972 18.9374C18.3299 18.9552 18.4578 18.999 18.5733 19.0664C18.6889 19.1337 18.79 19.2236 18.8705 19.33C19.0325 19.5423 19.1032 19.8099 19.0672 20.074C19.0312 20.338 18.8913 20.5774 18.6782 20.7391C16.7545 22.2054 14.3991 23 11.9761 23C10.4541 22.9727 8.95288 22.6362 7.56585 22.0118C5.17068 20.9574 3.23086 19.0887 2.09368 16.7403C0.956504 14.392 0.696202 11.7174 1.35935 9.19547C2.02251 6.67352 3.56584 4.46886 5.71309 2.97636C7.86004 1.48407 10.4705 0.801237 13.0771 1.05018C15.8286 1.37486 18.3628 2.69921 20.1939 4.7692C22.0252 6.83946 23.0242 9.51072 22.9996 12.269L22.9995 13.0222L22.9996 13.0236C23.0072 13.5699 22.9013 14.1119 22.6885 14.6156C22.4756 15.1192 22.1605 15.5737 21.7628 15.9504L21.7615 15.9516C21.3485 16.3567 20.85 16.6652 20.3022 16.8546C19.7544 17.044 19.1711 17.1096 18.5946 17.0465C18.0182 16.9834 17.4631 16.7933 16.9697 16.49C16.4764 16.1867 16.0571 15.7778 15.7424 15.2931L15.6627 15.1705L15.5763 15.2884C15.0168 16.0518 14.2702 16.66 13.4077 17.055C12.5451 17.45 11.5954 17.6187 10.6488 17.5448C9.70222 17.471 8.79043 17.1572 8.00022 16.6333C7.21002 16.1094 6.56772 15.3929 6.13445 14.5521C5.70118 13.7112 5.49133 12.774 5.52487 11.8296C5.55841 10.8852 5.83422 9.96505 6.32607 9.15675C6.81793 8.34844 7.50946 7.67888 8.33487 7.21186ZM9.09724 14.955C9.67915 15.3421 10.3632 15.5486 11.063 15.5486C12.0003 15.5456 12.8988 15.1736 13.5618 14.5136C14.2247 13.8536 14.5986 12.9589 14.6016 12.0254C14.6016 11.3284 14.394 10.6472 14.0051 10.0678C13.6163 9.48838 13.0636 9.03685 12.417 8.77024C11.7705 8.50363 11.0591 8.43388 10.3727 8.56979C9.68641 8.7057 9.05591 9.04119 8.561 9.53389C8.06608 10.0266 7.72899 10.6544 7.59241 11.3379C7.45584 12.0215 7.52594 12.73 7.79383 13.3738C8.06171 14.0177 8.51532 14.5679 9.09724 14.955Z" fill="white"/>
</svg>
