<svg width="24" height="24" viewBox="0 0 24 24" fill="none" xmlns="http://www.w3.org/2000/svg">
<path d="M6 8C6 7.44772 6.44772 7 7 7H17C17.5523 7 18 7.44772 18 8C18 8.55228 17.5523 9 17 9H7C6.44771 9 6 8.55228 6 8Z" fill="white"/>
<path d="M7 11C6.44772 11 6 11.4477 6 12C6 12.5523 6.44772 13 7 13H14C14.5523 13 15 12.5523 15 12C15 11.4477 14.5523 11 14 11H7Z" fill="white"/>
<path fill-rule="evenodd" clip-rule="evenodd" d="M8.58124 22.8137L14 19H16.0005C19.8664 19 23 15.866 23 12V7.99948C23 4.13349 19.8673 1 16.0013 1H7.99998C4.13399 1 1 4.13401 1 8V12C1 15.866 3 19 7 19V22C7 22.8134 7.91937 23.2865 8.58124 22.8137ZM9 20.0733L13.3668 17H16.0005C18.7617 17 21 14.7616 21 12V7.99948C21 5.23776 18.7624 3 16.0013 3H7.99998C5.23856 3 3 5.23857 3 8V12C3 13.6154 3.42055 14.8881 4.06981 15.7105C4.6723 16.4737 5.58208 17 7 17H9V20.0733Z" fill="white"/>
</svg>
