<svg width="24" height="24" viewBox="0 0 24 24" fill="none" xmlns="http://www.w3.org/2000/svg">
<path fill-rule="evenodd" clip-rule="evenodd" d="M11.2932 20.3172C11.3775 19.7714 11.0033 19.2606 10.4575 19.1763C6.80027 18.6116 4 15.4484 4 11.6331C4 7.41744 7.41744 4 11.6331 4C15.4965 4 18.6909 6.87109 19.1964 10.5956C19.2706 11.1429 19.7745 11.5264 20.3218 11.4521C20.869 11.3778 21.2525 10.8739 21.1782 10.3267C20.54 5.62403 16.5106 2 11.6331 2C6.31287 2 2 6.31287 2 11.6331C2 16.4502 5.53484 20.4399 10.1523 21.1529C10.6981 21.2372 11.2089 20.863 11.2932 20.3172ZM8.16269 15.1502C8.48703 15.4702 9.00938 15.4667 9.32939 15.1424L12.2201 12.2126C12.3724 12.0582 12.4578 11.85 12.4578 11.6332V5.81267C12.4578 5.35704 12.0885 4.98767 11.6328 4.98767C11.1772 4.98767 10.8078 5.35704 10.8078 5.81267V11.2947L8.15486 13.9835C7.83485 14.3078 7.83835 14.8302 8.16269 15.1502ZM19.3017 20.5542C20.9127 20.5542 22.2185 19.2482 22.2185 17.6372V15.9702C22.2185 14.3592 20.9131 13.0534 19.3021 13.0534H15.9679C14.3569 13.0534 13.0509 14.3594 13.0509 15.9704V17.6372C13.0509 19.2482 13.8843 20.5542 15.5512 20.5542V21.8043C15.5512 22.1432 15.9343 22.3404 16.2101 22.1434L18.4681 20.5542H19.3017Z" fill="white"/>
</svg>
