<svg width="24" height="24" viewBox="0 0 24 24" fill="none" xmlns="http://www.w3.org/2000/svg">
<path fill-rule="evenodd" clip-rule="evenodd" d="M23 12C23 15.866 19.8664 19 16.0005 19H14L8.58124 22.8137C7.91937 23.2865 7 22.8134 7 22V19C3 19 1 15.866 1 12V8C1 4.13401 4.13399 1 7.99998 1H16.0013C19.8673 1 23 4.13349 23 7.99948V12ZM6 8C6 7.44772 6.44772 7 7 7H17C17.5523 7 18 7.44772 18 8C18 8.55228 17.5523 9 17 9H7C6.44771 9 6 8.55228 6 8ZM7 11C6.44772 11 6 11.4477 6 12C6 12.5523 6.44772 13 7 13H14C14.5523 13 15 12.5523 15 12C15 11.4477 14.5523 11 14 11H7Z" fill="white"/>
</svg>
