<svg width="24" height="24" viewBox="0 0 24 24" fill="none" xmlns="http://www.w3.org/2000/svg">
<path fill-rule="evenodd" clip-rule="evenodd" d="M21 12.0002C21 15.1633 18.4362 17.7275 15.2731 17.7275H13.6364L9.20283 20.8478C8.6613 21.2346 7.90909 20.8475 7.90909 20.182V17.7275C4.63636 17.7275 3 15.1633 3 12.0002V8.72746C3 5.56437 5.56417 3.00018 8.72726 3.00018H15.2738C18.4369 3.00018 21 5.56395 21 8.72703V12.0002ZM7.09091 8.72745C7.09091 8.27558 7.45722 7.90927 7.90909 7.90927H16.0909C16.5428 7.90927 16.9091 8.27558 16.9091 8.72745C16.9091 9.17932 16.5428 9.54563 16.0909 9.54563H7.90909C7.45722 9.54563 7.09091 9.17932 7.09091 8.72745ZM7.90909 11.182C7.45722 11.182 7.09091 11.5483 7.09091 12.0002C7.09091 12.452 7.45722 12.8184 7.90909 12.8184H13.6364C14.0882 12.8184 14.4545 12.452 14.4545 12.0002C14.4545 11.5483 14.0882 11.182 13.6364 11.182H7.90909Z" fill="white"/>
</svg>
