<svg width="24" height="24" viewBox="0 0 24 24" fill="none" xmlns="http://www.w3.org/2000/svg">
<path d="M15 7C15 5.34315 13.6569 4 12 4C11.1279 4 10.3428 4.3721 9.79462 4.96619L8.37971 3.55129C9.2904 2.59558 10.5756 2 12 2C14.7614 2 17 4.23858 17 7V11C17 11.3634 16.9612 11.7178 16.8876 12.0592L15 10.1716V7Z" fill="white"/>
<path fill-rule="evenodd" clip-rule="evenodd" d="M7 8.41418L3.70711 5.12129C3.31658 4.73077 3.31658 4.0976 3.70711 3.70708C4.09763 3.31655 4.7308 3.31655 5.12132 3.70708L21.0208 19.6066C21.4113 19.9971 21.4113 20.6303 21.0208 21.0208C20.6303 21.4113 19.9971 21.4113 19.6066 21.0208L17.042 18.4562C15.8638 19.2544 14.4865 19.7808 13 19.9451V23C13 23.5523 12.5523 24 12 24C11.4477 24 11 23.5523 11 23V19.9451C6.50005 19.4476 3 15.6326 3 11V9C3 8.44772 3.44772 8 4 8C4.55228 8 5 8.44772 5 9V11C5 14.866 8.13401 18 12 18C13.314 18 14.5434 17.638 15.594 17.0082L14.1169 15.5311C13.474 15.8319 12.7567 16 12 16C9.23858 16 7 13.7614 7 11V8.41418ZM12.5378 13.9519C12.3633 13.9835 12.1836 14 12 14C10.3431 14 9 12.6569 9 11V10.4142L12.5378 13.9519Z" fill="white"/>
<path d="M21 11C21 12.4994 20.6334 13.9131 19.9848 15.1564L18.4802 13.6518C18.8153 12.8339 19 11.9385 19 11V9C19 8.44772 19.4477 8 20 8C20.5523 8 21 8.44772 21 9V11Z" fill="white"/>
</svg>
