<svg width="24" height="24" viewBox="0 0 24 24" fill="none" xmlns="http://www.w3.org/2000/svg">
<path d="M13.7273 7.63636C13.7273 6.43138 12.7504 5.45455 11.5455 5.45455C10.9112 5.45455 10.3402 5.72516 9.94154 6.15723L8.91252 5.12821C9.57484 4.43315 10.5096 4 11.5455 4C13.5538 4 15.1818 5.62806 15.1818 7.63636V10.5455C15.1818 10.8098 15.1536 11.0675 15.1001 11.3158L13.7273 9.94297V7.63636Z" fill="white"/>
<path fill-rule="evenodd" clip-rule="evenodd" d="M7.90909 8.66486L5.51426 6.27003C5.23024 5.98601 5.23024 5.52553 5.51426 5.24151C5.79828 4.95749 6.25876 4.95749 6.54278 5.24151L18.106 16.8048C18.3901 17.0888 18.3901 17.5493 18.106 17.8333C17.822 18.1173 17.3615 18.1173 17.0775 17.8333L15.2124 15.9681C14.3555 16.5487 13.3538 16.9315 12.2727 17.051V19.2727C12.2727 19.6744 11.9471 20 11.5455 20C11.1438 20 10.8182 19.6744 10.8182 19.2727V17.051C7.54549 16.6892 5 13.9146 5 10.5455V9.09091C5 8.68925 5.32561 8.36364 5.72727 8.36364C6.12893 8.36364 6.45455 8.68925 6.45455 9.09091V10.5455C6.45455 13.3571 8.73382 15.6364 11.5455 15.6364C12.5011 15.6364 13.3952 15.3731 14.1593 14.915L13.085 13.8408C12.6175 14.0596 12.0957 14.1818 11.5455 14.1818C9.53715 14.1818 7.90909 12.5538 7.90909 10.5455V8.66486ZM11.9365 12.6923C11.8097 12.7153 11.679 12.7273 11.5455 12.7273C10.3405 12.7273 9.36364 11.7504 9.36364 10.5455V10.1194L11.9365 12.6923Z" fill="white"/>
<path d="M18.0909 10.5455C18.0909 11.6359 17.8243 12.6641 17.3526 13.5683L16.2584 12.4741C16.502 11.8792 16.6364 11.228 16.6364 10.5455V9.09091C16.6364 8.68925 16.962 8.36364 17.3636 8.36364C17.7653 8.36364 18.0909 8.68925 18.0909 9.09091V10.5455Z" fill="white"/>
</svg>
