<svg width="24" height="24" viewBox="0 0 24 24" fill="none" xmlns="http://www.w3.org/2000/svg">
<path d="M9.04148 7.20143V7.20904L6.80414 4.9717C6.43711 4.60467 5.84202 4.60467 5.47498 4.9717C5.10795 5.33874 5.10795 5.93383 5.47498 6.30086L9.04148 9.86735V11.0054C9.04148 12.7164 10.3169 14.1036 12.0458 14.1036C12.4151 14.1036 12.7696 14.0404 13.0986 13.9245L14.0814 14.9073C13.4716 15.2186 12.7795 15.3945 12.0458 15.3945C9.593 15.3945 7.60463 13.4294 7.60463 11.0054C7.60463 10.5776 7.25374 10.2308 6.8209 10.2308C6.38806 10.2308 6.03717 10.5776 6.03717 11.0054C6.03717 13.9344 8.18303 16.3682 11.0059 16.855C11.0025 16.884 11.0008 16.9136 11.0008 16.9436V19.4491C11.0008 19.8769 11.3517 20.2237 11.7845 20.2237C12.2174 20.2237 12.5682 19.8769 12.5682 19.4491V16.9436L12.5679 16.9215C13.5363 16.8391 14.4391 16.5297 15.2215 16.0474L16.6352 17.461C17.0022 17.8281 17.5973 17.8281 17.9643 17.461C18.3314 17.094 18.3314 16.4989 17.9643 16.1319L16.6313 14.7989L16.6348 14.7947L15.5291 13.689L15.5256 13.6932L14.5588 12.7264L14.5617 12.7216L9.04148 7.20143Z" fill="white"/>
<path d="M16.2521 12.4183L17.4442 13.6104C17.4567 13.587 17.4685 13.5647 17.4795 13.5434C17.8482 12.7738 18.0544 11.9134 18.0544 11.0054C18.0544 10.5776 17.7035 10.2308 17.2707 10.2308C16.8378 10.2308 16.4869 10.5776 16.4869 11.0054C16.4869 11.4751 16.4123 11.9277 16.274 12.352C16.2669 12.3742 16.2596 12.3963 16.2521 12.4183Z" fill="white"/>
<path d="M15.053 11.2193L9.2922 5.45842C9.74487 4.38693 10.7711 3.77625 12.0458 3.77625C13.7772 3.77625 15.0501 4.90286 15.0501 6.78055V11.0054C15.0501 11.0332 15.0508 11.0637 15.0516 11.0951C15.0526 11.1363 15.0536 11.1791 15.053 11.2193Z" fill="white"/>
</svg>
