<svg width="24" height="24" viewBox="0 0 24 24" fill="none" xmlns="http://www.w3.org/2000/svg">
<path fill-rule="evenodd" clip-rule="evenodd" d="M11.5455 3.99997C9.53715 3.99997 7.90909 5.62803 7.90909 7.63633V10.5454C7.90909 12.5537 9.53715 14.1818 11.5455 14.1818C13.5538 14.1818 15.1818 12.5537 15.1818 10.5454V7.63633C15.1818 5.62803 13.5538 3.99997 11.5455 3.99997ZM13.7273 7.63633C13.7273 6.43135 12.7504 5.45451 11.5455 5.45451C10.3405 5.45451 9.36364 6.43135 9.36364 7.63633V10.5454C9.36364 11.7504 10.3405 12.7272 11.5455 12.7272C12.7504 12.7272 13.7273 11.7504 13.7273 10.5454V7.63633Z" fill="white"/>
<path d="M5.72727 8.36361C6.12893 8.36361 6.45455 8.68922 6.45455 9.09088V10.5454C6.45455 13.3571 8.73382 15.6363 11.5455 15.6363C14.3571 15.6363 16.6364 13.3571 16.6364 10.5454V9.09088C16.6364 8.68922 16.962 8.36361 17.3636 8.36361C17.7653 8.36361 18.0909 8.68922 18.0909 9.09088V10.5454C18.0909 13.9146 15.5454 16.6892 12.2727 17.0509V19.2727C12.2727 19.6744 11.9471 20 11.5455 20C11.1438 20 10.8182 19.6744 10.8182 19.2727V17.0509C7.54549 16.6892 5 13.9146 5 10.5454V9.09088C5 8.68922 5.32561 8.36361 5.72727 8.36361Z" fill="white"/>
</svg>
