<svg width="24" height="24" viewBox="0 0 24 24" fill="none" xmlns="http://www.w3.org/2000/svg">
<path d="M9.05021 11.0054V9.70889V6.78055C9.05021 4.90286 10.3231 3.77625 12.0545 3.77625C13.7859 3.77625 15.0588 4.90286 15.0588 6.78055V11.0054C15.0588 11.0915 15.0658 11.2027 15.0588 11.287C14.8309 12.9835 13.7424 13.7292 13.1666 13.9029C12.821 14.0326 12.4461 14.1036 12.0545 14.1036C10.3256 14.1036 9.05021 12.7164 9.05021 11.0054Z" fill="white"/>
<path d="M12.0545 15.3945C12.8127 15.3945 13.5265 15.2067 14.1509 14.8757C14.6334 14.5941 15.8396 13.7384 16.2827 12.352C16.421 11.9277 16.4957 11.4751 16.4957 11.0054C16.4957 10.5776 16.8466 10.2308 17.2794 10.2308C17.7122 10.2308 18.0631 10.5776 18.0631 11.0054C18.0631 11.9134 17.8569 12.7738 17.4882 13.5434C17.2022 14.0988 16.3631 15.3691 15.2953 16.0067C14.4981 16.5123 13.5721 16.8368 12.5767 16.9215L12.577 16.9436V19.4491C12.577 19.8769 12.2261 20.2237 11.7932 20.2237C11.3604 20.2237 11.0095 19.8769 11.0095 19.4491V16.9436C11.0095 16.9136 11.0112 16.884 11.0146 16.855C8.19176 16.3682 6.0459 13.9344 6.0459 11.0054C6.0459 10.5776 6.39679 10.2308 6.82963 10.2308C7.26247 10.2308 7.61336 10.5776 7.61336 11.0054C7.61336 13.4294 9.60173 15.3945 12.0545 15.3945Z" fill="white"/>
</svg>
