<svg width="24" height="24" viewBox="0 0 24 24" fill="none" xmlns="http://www.w3.org/2000/svg">
<path fill-rule="evenodd" clip-rule="evenodd" d="M12 0.75C9.23858 0.75 7 2.98858 7 5.75V11.2305C7 13.9919 9.23858 16.2305 12 16.2305C14.7614 16.2305 17 13.9919 17 11.2305V5.75C17 2.98858 14.7614 0.75 12 0.75ZM15 5.75C15 4.09315 13.6569 2.75 12 2.75C10.3431 2.75 9 4.09315 9 5.75V11.2305C9 12.8874 10.3431 14.2305 12 14.2305C13.6569 14.2305 15 12.8874 15 11.2305V5.75Z" fill="white"/>
<path d="M4 9.75C4.55228 9.75 5 10.1977 5 10.75V11.2305C5 15.0965 8.13401 18.2305 12 18.2305C15.866 18.2305 19 15.0965 19 11.2305V10.75C19 10.1977 19.4477 9.75 20 9.75C20.5523 9.75 21 10.1977 21 10.75V11.2305C21 15.8631 17.5 19.6781 13 20.1756V22.25C13 22.8023 12.5523 23.25 12 23.25C11.4477 23.25 11 22.8023 11 22.25V20.1756C6.50005 19.6781 3 15.8631 3 11.2305V10.75C3 10.1977 3.44772 9.75 4 9.75Z" fill="white"/>
</svg>
