<svg width="24" height="24" viewBox="0 0 24 24" fill="none" xmlns="http://www.w3.org/2000/svg">
<path d="M8 11.125V9.39885V5.5C8 3 9.69481 1.5 12 1.5C14.3052 1.5 16 3 16 5.5V11.125C16 11.2397 16.0093 11.3877 16 11.5C15.6966 13.7588 14.2473 14.7516 13.4807 14.9829C13.0205 15.1555 12.5214 15.25 12 15.25C9.69808 15.25 8 13.4032 8 11.125Z" fill="white"/>
<path d="M12 16.9688C13.0094 16.9688 13.9598 16.7188 14.7912 16.278C15.4336 15.9031 17.0395 14.7638 17.6295 12.9179C17.8136 12.353 17.913 11.7505 17.913 11.125C17.913 10.5555 18.3802 10.0938 18.9565 10.0938C19.5328 10.0938 20 10.5555 20 11.125C20 12.334 19.7254 13.4795 19.2346 14.5042C18.8537 15.2437 17.7365 16.9349 16.3148 17.7838C15.2534 18.457 14.0205 18.8891 12.6952 19.0018L12.6956 19.0313V21.4688C12.6956 22.0383 12.2284 22.5 11.6521 22.5C11.0758 22.5 10.6087 22.0383 10.6087 21.4688V19.0313C10.6087 18.9914 10.611 18.952 10.6154 18.9133C6.85705 18.2652 4 15.0248 4 11.125C4 10.5555 4.46718 10.0938 5.04348 10.0938C5.61978 10.0938 6.08696 10.5555 6.08696 11.125C6.08696 14.3524 8.73432 16.9688 12 16.9688Z" fill="white"/>
</svg>
