<svg width="24" height="24" viewBox="0 0 24 24" fill="none" xmlns="http://www.w3.org/2000/svg">
<path d="M8.00024 9.7142V11.125C8.00024 13.4032 9.69832 15.25 12.0002 15.25C12.463 15.25 12.9082 15.1756 13.3242 15.0382L14.6411 16.355C13.8462 16.7478 12.9493 16.9688 12.0002 16.9688C8.73456 16.9688 6.0872 14.3524 6.0872 11.125C6.0872 10.5555 5.62002 10.0938 5.04372 10.0938C4.46743 10.0938 4.00024 10.5555 4.00024 11.125C4.00024 15.0248 6.85729 18.2652 10.6157 18.9133C10.6112 18.952 10.6089 18.9914 10.6089 19.0313V21.4688C10.6089 22.0383 11.0761 22.5 11.6524 22.5C12.2287 22.5 12.6959 22.0383 12.6959 21.4688V19.0313L12.6954 19.0018C13.9581 18.8944 15.137 18.4971 16.1636 17.8776L19.4931 21.207C19.8836 21.5976 20.5168 21.5976 20.9073 21.207C21.2978 20.8165 21.2978 20.1834 20.9073 19.7928L3.9073 2.79283C3.51678 2.40231 2.88361 2.40231 2.49309 2.79283C2.10256 3.18336 2.10256 3.81652 2.49309 4.20705L8.00024 9.7142Z" fill="white"/>
<path d="M15.9112 11.9968L8.15992 4.24546C8.63279 2.5068 10.1117 1.5 12.0002 1.5C14.3054 1.5 16.0002 3 16.0002 5.5V11.125C16.0002 11.1621 16.0012 11.2028 16.0022 11.2446C16.0043 11.3318 16.0065 11.4241 16.0002 11.5C15.977 11.6729 15.9471 11.8384 15.9112 11.9968Z" fill="white"/>
<path d="M17.4056 13.4911L18.9371 15.0226C19.0614 14.8232 19.1617 14.6461 19.2348 14.5042C19.7257 13.4795 20.0002 12.334 20.0002 11.125C20.0002 10.5555 19.5331 10.0938 18.9568 10.0938C18.3805 10.0938 17.9133 10.5555 17.9133 11.125C17.9133 11.7505 17.8139 12.353 17.6298 12.9179C17.5661 13.1173 17.4905 13.3084 17.4056 13.4911Z" fill="white"/>
</svg>
