<svg width="24" height="24" viewBox="0 0 24 24" fill="none" xmlns="http://www.w3.org/2000/svg">
<path d="M13 9C13 10.3059 13.8353 11.4141 15 11.8262V20C15 20.5523 15.4477 21 16 21C16.5523 21 17 20.5523 17 20V11.8262C18.1647 11.4141 19 10.3059 19 9C19 7.69415 18.1647 6.58594 17 6.17383V4C17 3.44772 16.5523 3 16 3C15.4477 3 15 3.44772 15 4V6.17383C13.8353 6.58594 13 7.69415 13 9ZM15 9C15 8.44772 15.4477 8 16 8C16.5523 8 17 8.44772 17 9C17 9.55228 16.5523 10 16 10C15.4477 10 15 9.55228 15 9ZM4 15C4 16.3059 4.83532 17.4141 6 17.8262L6 20C6 20.5523 6.44772 21 7 21C7.55228 21 8 20.5523 8 20V17.8262C9.16468 17.4141 10 16.3059 10 15C10 13.6941 9.16468 12.5859 8 12.1738V4C8 3.44772 7.55228 3 7 3C6.44772 3 6 3.44772 6 4L6 12.1738C4.83532 12.5859 4 13.6941 4 15ZM6 15C6 14.4477 6.44772 14 7 14C7.55228 14 8 14.4477 8 15C8 15.5523 7.55228 16 7 16C6.44772 16 6 15.5523 6 15Z" fill="white"/>
</svg>
