<svg width="24" height="24" viewBox="0 0 24 24" fill="none" xmlns="http://www.w3.org/2000/svg">
<path d="M16.3086 2.00781C19.4789 2.16843 22 4.78979 22 8V16L21.9922 16.3086C21.8367 19.3767 19.3767 21.8367 16.3086 21.9922L16 22H8C4.78979 22 2.16843 19.4789 2.00781 16.3086L2 16V8C2 4.68629 4.68629 2 8 2H16L16.3086 2.00781ZM8 4C5.79086 4 4 5.79086 4 8V16C4 18.2091 5.79086 20 8 20H16C18.2091 20 20 18.2091 20 16V8C20 5.79086 18.2091 4 16 4H8ZM9.67285 7L12.2295 14.3076L14.7861 7H17.4658V16.9531H15.415V14.123L15.6182 9.5L12.9268 16.9531H11.5322L8.83984 9.5L9.04395 14.123V16.9531H7V7H9.67285Z" fill="white"/>
</svg>
