<svg width="24" height="24" viewBox="0 0 24 24" fill="none" xmlns="http://www.w3.org/2000/svg">
<path d="M5 4C4.44772 4 4 4.44772 4 5C4 5.55228 4.44772 6 5 6H6.00012V18H5.5C4.94772 18 4.5 18.4477 4.5 19C4.5 19.5523 4.94772 20 5.5 20H8.5C9.05228 20 9.5 19.5523 9.5 19C9.5 18.4477 9.05228 18 8.5 18H8.00012V8.4868L11.0673 13.3943C11.4982 14.0837 12.5021 14.0836 12.9329 13.3943L16.0001 8.4868V18H15.5C14.9477 18 14.5 18.4477 14.5 19C14.5 19.5523 14.9477 20 15.5 20H18.5C19.0523 20 19.5 19.5523 19.5 19C19.5 18.4477 19.0523 18 18.5 18H18.0001V6H19C19.5523 6 20 5.55228 20 5C20 4.44772 19.5523 4 19 4H17C16.5827 4 16.2252 4.25556 16.0753 4.6187C16.0368 4.66339 16.0007 4.71235 15.9673 4.76568L12.0001 11.1132L8.03292 4.76568C7.99945 4.71213 7.96317 4.663 7.92451 4.61815C7.77448 4.25531 7.41705 4 7 4H5Z" fill="white"/>
</svg>
