<svg width="24" height="24" viewBox="0 0 24 24" fill="none" xmlns="http://www.w3.org/2000/svg">
<path d="M16.2002 12.0942C16.2002 8.11779 12.9764 4.89404 9 4.89404C5.02355 4.89404 1.7998 8.11779 1.7998 12.0942C1.7998 16.0707 5.02355 19.2944 9 19.2944C12.9764 19.2944 16.2002 16.0707 16.2002 12.0942ZM17.3799 4.67725C17.4411 4.26735 17.8248 3.98071 18.2266 4.08252C19.5872 4.4275 20.8296 5.14861 21.8066 6.17041C22.9571 7.37365 23.6746 8.9257 23.8467 10.5815C24.0187 12.2375 23.6345 13.9038 22.7559 15.3179C22.0098 16.5185 20.9431 17.4799 19.6826 18.0972C19.3104 18.2794 18.8756 18.0775 18.7314 17.689C18.5876 17.3005 18.7888 16.8726 19.1562 16.6812C20.1064 16.1861 20.9112 15.4436 21.4814 14.5259C22.1844 13.3946 22.4911 12.0616 22.3535 10.7368C22.2159 9.41225 21.6419 8.17107 20.7217 7.2085C19.975 6.42757 19.0345 5.8659 18.0029 5.57666C17.6039 5.4648 17.3187 5.08712 17.3799 4.67725ZM11.623 9.30713C11.9381 9.02314 12.4487 9.02306 12.7637 9.30713C13.0787 9.59148 13.0787 10.0531 12.7637 10.3374L8.32129 14.9897C8.19505 15.122 7.97345 15.1296 7.83691 15.0063L5.23633 12.6587C4.92142 12.3743 4.92135 11.9137 5.23633 11.6294C5.55136 11.3451 6.06189 11.3451 6.37695 11.6294L8.08887 13.0083L11.623 9.30713ZM18 12.0942C18 17.0648 13.9706 21.0942 9 21.0942C4.02944 21.0942 6.44276e-08 17.0648 0 12.0942C0 7.12368 4.02944 3.09424 9 3.09424C13.9706 3.09424 18 7.12368 18 12.0942Z" fill="white"/>
</svg>
