<svg width="24" height="24" viewBox="0 0 24 24" fill="none" xmlns="http://www.w3.org/2000/svg">
<path d="M11 2C11 1.44772 11.4477 1 12 1C13.8565 1 15.637 1.7375 16.9497 3.05025C18.2625 4.36301 19 6.14348 19 8V12.9993C19 13.5516 18.5523 14 18 14C17.4477 14 17 13.5523 17 13V8C17 6.67392 16.4732 5.40215 15.5355 4.46447C14.5979 3.52678 13.3261 3 12 3C11.4477 3 11 2.55228 11 2Z" fill="white"/>
<path d="M6 9C6.55228 9 7 9.44772 7 10C7 12.9079 6.50153 14.7875 5.80341 16H13C13.5523 16 14 16.4477 14 17C14 17.5523 13.5523 18 13 18H3C2.44772 18 2 17.5523 2 17C2 16.4615 2.42561 16.0224 2.95878 16.0008L2.96451 15.9999C2.98564 15.9964 3.03578 15.986 3.1063 15.9586C3.24168 15.906 3.47799 15.7808 3.74074 15.4742C4.27236 14.854 5 13.3803 5 10C5 9.44772 5.44772 9 6 9Z" fill="white"/>
<path d="M9.76823 20.135C10.246 19.8579 10.8579 20.0205 11.135 20.4983C11.2229 20.6498 11.3491 20.7756 11.5009 20.863C11.6527 20.9505 11.8248 20.9965 12 20.9965C12.1752 20.9965 12.3473 20.9505 12.4991 20.863C12.6509 20.7756 12.7771 20.6498 12.865 20.4983C13.1421 20.0205 13.754 19.8579 14.2318 20.135C14.7095 20.4122 14.8721 21.0241 14.595 21.5018C14.3313 21.9564 13.9528 22.3338 13.4973 22.5961C13.0419 22.8584 12.5256 22.9965 12 22.9965C11.4744 22.9965 10.9581 22.8584 10.5027 22.5961C10.0472 22.3338 9.66872 21.9564 9.405 21.5018C9.12788 21.0241 9.2905 20.4122 9.76823 20.135Z" fill="white"/>
<path d="M4.12129 2.29292C3.73077 1.9024 3.0976 1.9024 2.70708 2.29292C2.31655 2.68345 2.31655 3.31661 2.70708 3.70714L21.2929 22.2929C21.6834 22.6834 22.3166 22.6834 22.7071 22.2929C23.0976 21.9024 23.0976 21.2692 22.7071 20.8787L13.4142 11.5858L4.12129 2.29292Z" fill="white"/>
</svg>
