<svg width="24" height="24" viewBox="0 0 24 24" fill="none" xmlns="http://www.w3.org/2000/svg">
<path d="M17.2943 16.6236L6.8967 5.71077L6.00023 6.62256L7.9767 8.63282V8.64C7.60964 9.35077 7.41199 10.1908 7.41199 11.0954V14.6851L6.00023 16.121L6 17H15.8826L17.1038 18.2749L18.0002 17.3631L17.2943 16.6236ZM11.6473 19C12.4308 19 13.059 18.361 13.059 17.5641H10.2355C10.2355 18.361 10.8638 19 11.6473 19ZM15.8826 13.7446V11.1026C15.8826 8.89128 14.7249 7.05333 12.7061 6.56513V6.07692C12.7061 5.48103 12.2332 5 11.6473 5C11.0614 5 10.5885 5.48103 10.5885 6.07692V6.56513C10.4826 6.58667 10.3838 6.62256 10.292 6.65128C10.2214 6.67282 10.1508 6.70154 10.0802 6.73026H10.0732C10.0661 6.73026 10.0661 6.73026 10.059 6.73744C9.8967 6.80205 9.73434 6.88103 9.57905 6.96C9.57905 6.96 9.57199 6.96 9.57199 6.96718L15.8826 13.7446Z" fill="white"/>
</svg>
