<svg width="24" height="24" viewBox="0 0 24 24" fill="none" xmlns="http://www.w3.org/2000/svg">
<path d="M0 6C0 3.79086 1.79086 2 4 2H18C20.2091 2 22 3.79086 22 6V12C22 12.5523 21.5523 13 21 13C20.4477 13 20 12.5523 20 12V6C20 4.89543 19.1046 4 18 4H4C2.89543 4 2 4.89543 2 6V18C2 19.1046 2.89543 20 4 20H12C12.5523 20 13 20.4477 13 21C13 21.5523 12.5523 22 12 22H4C1.79086 22 0 20.2091 0 18V6Z" fill="white"/>
<path d="M13 15C13.5523 15 14 15.4477 14 16C14 16.5523 13.5523 17 13 17H5C4.44772 17 4 16.5523 4 16C4 15.4477 4.44772 15 5 15H13Z" fill="white"/>
<path d="M6.5 12C7.88071 12 9 10.8807 9 9.5C9 8.11929 7.88071 7 6.5 7C5.11929 7 4 8.11929 4 9.5C4 10.8807 5.11929 12 6.5 12Z" fill="white"/>
<path d="M12 7C11.4477 7 11 7.44772 11 8C11 8.55228 11.4477 9 12 9H17C17.5523 9 18 8.55228 18 8C18 7.44772 17.5523 7 17 7H12Z" fill="white"/>
<path d="M11 12C11 11.4477 11.4477 11 12 11H17C17.5523 11 18 11.4477 18 12C18 12.5523 17.5523 13 17 13H12C11.4477 13 11 12.5523 11 12Z" fill="white"/>
<path d="M18 16C18 15.4477 18.4477 15 19 15C19.5523 15 20 15.4477 20 16V18H22C22.5523 18 23 18.4477 23 19C23 19.5523 22.5523 20 22 20H20V22C20 22.5523 19.5523 23 19 23C18.4477 23 18 22.5523 18 22V20H16C15.4477 20 15 19.5523 15 19C15 18.4477 15.4477 18 16 18H18V16Z" fill="white"/>
</svg>
