<svg width="24" height="24" viewBox="0 0 24 24" fill="none" xmlns="http://www.w3.org/2000/svg"><path d="M10 9.5a2.5 2.5 0 1 1-5 0 2.5 2.5 0 0 1 5 0" fill="#fff" fill-opacity=".55"/><path d="M13 7a1 1 0 1 0 0 2h5a1 1 0 1 0 0-2z" fill="#fff" fill-opacity=".55"/><path d="M12 12a1 1 0 0 1 1-1h5a1 1 0 1 1 0 2h-5a1 1 0 0 1-1-1" fill="#fff" fill-opacity=".55"/><path d="M6 15a1 1 0 1 0 0 2h12a1 1 0 1 0 0-2z" fill="#fff" fill-opacity=".55"/><path fill-rule="evenodd" clip-rule="evenodd" d="M5 2a4 4 0 0 0-4 4v12a4 4 0 0 0 4 4h14a4 4 0 0 0 4-4V6a4 4 0 0 0-4-4zm14 2H5a2 2 0 0 0-2 2v12a2 2 0 0 0 2 2h14a2 2 0 0 0 2-2V6a2 2 0 0 0-2-2" fill="#fff" fill-opacity=".55"/></svg>