<svg width="24" height="24" viewBox="0 0 24 24" fill="none" xmlns="http://www.w3.org/2000/svg">
<path fill-rule="evenodd" clip-rule="evenodd" d="M16.6177 18.0319C15.078 19.2635 13.125 20 11 20C6.02944 20 2 15.9706 2 11C2 6.02944 6.02944 2 11 2C15.9706 2 20 6.02944 20 11C20 13.125 19.2635 15.078 18.0319 16.6177L21.7071 20.2929C22.0977 20.6834 22.0977 21.3166 21.7071 21.7071C21.3166 22.0977 20.6834 22.0977 20.2929 21.7071L16.6177 18.0319ZM4 11C4 7.13401 7.13401 4 11 4C14.866 4 18 7.13401 18 11C18 12.886 17.2541 14.5978 16.0412 15.8566C16.0071 15.8828 15.9742 15.9116 15.9429 15.9429C15.9116 15.9742 15.8828 16.0071 15.8566 16.0412C14.5978 17.2541 12.886 18 11 18C7.13401 18 4 14.866 4 11Z" fill="white"/>
<path d="M9.58577 8.17156C9.19524 7.78103 8.56208 7.78103 8.17156 8.17156C7.78103 8.56208 7.78103 9.19524 8.17156 9.58577L9.58579 11L8.17158 12.4142C7.78106 12.8047 7.78106 13.4379 8.17158 13.8284C8.56211 14.2189 9.19527 14.2189 9.5858 13.8284L11 12.4142L12.4142 13.8284C12.8047 14.2189 13.4379 14.2189 13.8284 13.8284C14.2189 13.4379 14.2189 12.8047 13.8284 12.4142L12.4142 11L13.8284 9.58577C14.219 9.19525 14.219 8.56209 13.8284 8.17156C13.4379 7.78104 12.8047 7.78104 12.4142 8.17156L11 9.58579L9.58577 8.17156Z" fill="white"/>
</svg>
