<svg width="24" height="24" viewBox="0 0 24 24" fill="none" xmlns="http://www.w3.org/2000/svg">
<path d="M12.7839 4.03657C10.8881 3.85531 8.98936 4.35187 7.42776 5.4373C5.86616 6.52273 4.74369 8.12614 4.26136 9.96039C3.77904 11.7946 3.96837 13.7399 4.79544 15.4479C5.62251 17.1558 7.03331 18.5149 8.77518 19.2816C9.78397 19.7358 10.8752 19.9802 11.9822 20C13.7444 20.0001 15.4576 19.4223 16.8568 18.3558C17.0257 18.2276 17.1366 18.0379 17.1651 17.8284C17.1937 17.6189 17.1376 17.4067 17.0091 17.2383C16.9453 17.1539 16.8653 17.083 16.7737 17.0296C16.6822 16.9763 16.5809 16.9415 16.4757 16.9274C16.3706 16.9133 16.2637 16.9201 16.1612 16.9475C16.0587 16.9748 15.9627 17.0221 15.8787 17.0867C15.0472 17.712 14.0751 18.1261 13.0467 18.2934C12.0182 18.4606 10.9644 18.3759 9.9762 18.0465C8.98805 17.7171 8.0954 17.1529 7.37548 16.4029C6.65556 15.6528 6.13005 14.7394 5.84441 13.7417C5.55878 12.7441 5.52162 11.6921 5.73616 10.6769C5.9507 9.6617 6.41048 8.71383 7.0757 7.91529C7.74093 7.11675 8.59158 6.4916 9.55405 6.09392C10.5165 5.69624 11.5618 5.538 12.5995 5.63291C14.21 5.81848 15.6941 6.59203 16.7649 7.80394C17.8356 9.01586 18.4168 10.58 18.3962 12.1939V12.7366C18.3953 12.92 18.3572 13.1013 18.2844 13.2697C18.2115 13.4381 18.1053 13.5902 17.9721 13.7168C17.8389 13.8435 17.6814 13.9421 17.5091 14.0068C17.3368 14.0716 17.1531 14.101 16.9691 14.0935C16.602 14.0534 16.2639 13.8763 16.0229 13.5978C15.7819 13.3193 15.6559 12.9603 15.6702 12.593V9.14487C15.6702 8.93318 15.5858 8.73016 15.4354 8.58047C15.285 8.43079 15.0811 8.34669 14.8685 8.34669C14.6727 8.34504 14.4831 8.41475 14.3354 8.54266C14.1877 8.67058 14.0922 8.84787 14.0667 9.0411C13.3206 8.34157 12.3497 7.99753 11.3247 8C10.6282 8.0052 9.92849 8.14341 9.32287 8.48608C8.71725 8.82874 8.20982 9.32003 7.84889 9.91317C7.48797 10.5063 7.28556 11.1816 7.26095 11.8746C7.23633 12.5677 7.39033 13.2555 7.70828 13.8725C8.02622 14.4895 8.49753 15.0153 9.07733 15.3997C9.65713 15.7841 10.3055 15.9458 11 16C11.5 16 12.4119 15.9989 13.0447 15.7091C13.6776 15.4193 14.2254 14.973 14.636 14.4128C14.8687 14.7712 15.1787 15.0735 15.5434 15.2977C15.9082 15.522 16.3185 15.6625 16.7446 15.7091C17.1707 15.7557 17.6019 15.7073 18.0068 15.5673C18.4118 15.4273 18.7803 15.1992 19.0857 14.8997C19.3796 14.6213 19.6125 14.2855 19.7698 13.9133C19.927 13.541 20.0053 13.1404 19.9997 12.7366V12.1939C20.0176 10.1881 19.2911 8.24625 17.9595 6.74086C16.6278 5.23547 14.7848 4.27248 12.7839 4.03657ZM11.3247 14.4846C10.8348 14.4846 10.3558 14.34 9.94837 14.069C9.54096 13.798 9.22343 13.4128 9.03592 12.9621C8.84841 12.5114 8.79935 12.0155 8.89494 11.5371C8.99053 11.0587 9.22648 10.6192 9.57295 10.2743C9.91943 9.92939 10.3609 9.69449 10.8414 9.59932C11.322 9.50416 11.8201 9.553 12.2728 9.73967C12.7255 9.92635 13.1124 10.2425 13.3846 10.6481C13.6569 11.0536 13.8022 11.5305 13.8022 12.0183C13.8 12.6718 13.5383 13.2979 13.0742 13.7599C12.6101 14.222 11.9811 14.4825 11.3247 14.4846Z" fill="white"/>
</svg>
