<svg width="24" height="24" viewBox="0 0 24 24" fill="none" xmlns="http://www.w3.org/2000/svg">
<path d="M22 13.1695H13.1694V22H22V13.1695ZM21.4913 4.62969C20.7052 3.07133 19.0895 2 17.2281 2C14.5969 2 12.4564 4.14062 12.4564 6.77188C12.4564 9.40313 14.5969 11.5436 17.2281 11.5436C19.0895 11.5436 20.7052 10.4723 21.4913 8.91391C21.8164 8.26937 22 7.54168 22 6.77172C22 6.00191 21.8164 5.27422 21.4913 4.62969ZM7.13094 2L2 11.0357H12.2617L7.13094 2ZM2 17.6937L4.48625 22H9.45879L11.9451 17.6937L9.45879 13.3872H4.48625L2 17.6937Z" fill="white"/>
</svg>
