<svg width="24" height="24" viewBox="0 0 24 24" fill="none" xmlns="http://www.w3.org/2000/svg">
<path d="M19 11C19 10.4477 18.5523 10 18 10H16C15.4477 10 15 10.4477 15 11V19H18C18.5523 19 19 18.5523 19 18V11ZM10.5 15C11.0523 15 11.5 15.4477 11.5 16C11.5 16.5523 11.0523 17 10.5 17H7.5C6.94772 17 6.5 16.5523 6.5 16C6.5 15.4477 6.94772 15 7.5 15H10.5ZM10.5 11C11.0523 11 11.5 11.4477 11.5 12C11.5 12.5523 11.0523 13 10.5 13H7.5C6.94772 13 6.5 12.5523 6.5 12C6.5 11.4477 6.94772 11 7.5 11H10.5ZM10.5 7C11.0523 7 11.5 7.44772 11.5 8C11.5 8.55228 11.0523 9 10.5 9H7.5C6.94772 9 6.5 8.55228 6.5 8C6.5 7.44772 6.94772 7 7.5 7H10.5ZM13 6C13 5.44772 12.5523 5 12 5H6C5.44772 5 5 5.44772 5 6V18C5 18.5523 5.44772 19 6 19H13V6ZM15 8.17383C15.3131 8.06306 15.649 8 16 8H18C19.6569 8 21 9.34315 21 11V18C21 19.6569 19.6569 21 18 21H6C4.34315 21 3 19.6569 3 18V6C3 4.34315 4.34315 3 6 3H12C13.6569 3 15 4.34315 15 6V8.17383Z" fill="white"/>
</svg>
