<svg width="24" height="24" viewBox="0 0 24 24" fill="none" xmlns="http://www.w3.org/2000/svg">
<path d="M20.9999 17.537C20.9951 17.8928 20.8376 18.2897 20.4701 18.6711L19.1044 20.0591L19.0948 20.0694C18.5211 20.6863 17.8398 20.9863 16.977 20.9997C16.9025 21.0008 16.8294 20.9989 16.7427 20.9965L16.727 20.9961C15.3531 20.9266 14.1116 20.427 13.1448 19.9823C10.6321 18.7982 8.44121 17.1049 6.63121 14.9373C5.13286 13.1332 4.14352 11.4534 3.49994 9.64759L3.49908 9.64521C3.08146 8.48272 2.94041 7.55222 3.02219 6.69289C3.08696 6.04592 3.3546 5.48447 3.83229 5.00849L5.34163 3.50456C5.70612 3.16075 6.08745 3.00584 6.45221 3.00019C6.82037 2.99448 7.17627 3.13707 7.4961 3.4493L9.84995 5.79421L9.85429 5.79849C10.2018 6.1418 10.3509 6.51006 10.3454 6.86053C10.3399 7.21468 10.1711 7.60742 9.79563 7.98164L8.10417 9.64426L8.42888 10.2946C8.55694 10.5511 8.70494 10.8068 8.87614 11.0691C9.05771 11.3474 9.26553 11.6333 9.50315 11.9354L9.50824 11.9418L9.51344 11.9482C10.6447 13.3384 11.8433 14.4269 13.1781 15.2587C13.3323 15.355 13.4999 15.4382 13.6564 15.5143L14.3545 15.8543L14.8585 15.3512C15.0406 15.1694 15.3173 14.8933 15.5555 14.6559L15.8667 14.3458L15.9686 14.2445L15.9999 14.2136L16.0087 14.2049L16.0113 14.2024L16.0164 14.1974L16.0215 14.1923C16.3813 13.8339 16.7672 13.6696 17.1327 13.664C17.4922 13.6584 17.8472 13.8054 18.1632 14.1317L18.1695 14.1382L20.5238 16.4836C20.8623 16.8207 21.0046 17.1864 20.9999 17.537Z" fill="white"/>
<path fill-rule="evenodd" clip-rule="evenodd" d="M15.0061 3.727C15.0671 3.17809 15.5615 2.78256 16.1104 2.84355L20.4117 3.32146L20.8896 7.62268C20.9506 8.17159 20.555 8.66601 20.0061 8.727C19.4572 8.78799 18.9628 8.39245 18.9018 7.84355L18.742 6.40533L16.4203 8.727C16.0298 9.11752 15.3966 9.11752 15.0061 8.727C14.6156 8.33647 14.6156 7.70331 15.0061 7.31278L17.3278 4.99112L15.8896 4.83131C15.3407 4.77032 14.9451 4.2759 15.0061 3.727Z" fill="white"/>
</svg>
