<svg width="24" height="24" viewBox="0 0 24 24" fill="none" xmlns="http://www.w3.org/2000/svg">
<path d="M8.19922 5C8.19922 5.82843 7.52765 6.5 6.69922 6.5C5.87079 6.5 5.19922 5.82843 5.19922 5C5.19922 4.17157 5.87079 3.5 6.69922 3.5C7.52765 3.5 8.19922 4.17157 8.19922 5Z" fill="white"/>
<path d="M8.19922 10C8.19922 10.8284 7.52765 11.5 6.69922 11.5C5.87079 11.5 5.19922 10.8284 5.19922 10C5.19922 9.17157 5.87079 8.5 6.69922 8.5C7.52765 8.5 8.19922 9.17157 8.19922 10Z" fill="white"/>
<path d="M8.19922 15C8.19922 15.8284 7.52765 16.5 6.69922 16.5C5.87079 16.5 5.19922 15.8284 5.19922 15C5.19922 14.1716 5.87079 13.5 6.69922 13.5C7.52765 13.5 8.19922 14.1716 8.19922 15Z" fill="white"/>
<path d="M13.5 5C13.5 5.82843 12.8284 6.5 12 6.5C11.1716 6.5 10.5 5.82843 10.5 5C10.5 4.17157 11.1716 3.5 12 3.5C12.8284 3.5 13.5 4.17157 13.5 5Z" fill="white"/>
<path d="M13.5 10C13.5 10.8284 12.8284 11.5 12 11.5C11.1716 11.5 10.5 10.8284 10.5 10C10.5 9.17157 11.1716 8.5 12 8.5C12.8284 8.5 13.5 9.17157 13.5 10Z" fill="white"/>
<path d="M13.5 15C13.5 15.8284 12.8284 16.5 12 16.5C11.1716 16.5 10.5 15.8284 10.5 15C10.5 14.1716 11.1716 13.5 12 13.5C12.8284 13.5 13.5 14.1716 13.5 15Z" fill="white"/>
<path d="M13.5 20C13.5 20.8284 12.8284 21.5 12 21.5C11.1716 21.5 10.5 20.8284 10.5 20C10.5 19.1716 11.1716 18.5 12 18.5C12.8284 18.5 13.5 19.1716 13.5 20Z" fill="white"/>
<path d="M18.8008 5C18.8008 5.82843 18.1292 6.5 17.3008 6.5C16.4724 6.5 15.8008 5.82843 15.8008 5C15.8008 4.17157 16.4724 3.5 17.3008 3.5C18.1292 3.5 18.8008 4.17157 18.8008 5Z" fill="white"/>
<path d="M18.8008 10C18.8008 10.8284 18.1292 11.5 17.3008 11.5C16.4724 11.5 15.8008 10.8284 15.8008 10C15.8008 9.17157 16.4724 8.5 17.3008 8.5C18.1292 8.5 18.8008 9.17157 18.8008 10Z" fill="white"/>
<path d="M18.8008 15C18.8008 15.8284 18.1292 16.5 17.3008 16.5C16.4724 16.5 15.8008 15.8284 15.8008 15C15.8008 14.1716 16.4724 13.5 17.3008 13.5C18.1292 13.5 18.8008 14.1716 18.8008 15Z" fill="white"/>
</svg>
