<svg width="24" height="24" viewBox="0 0 24 24" fill="none" xmlns="http://www.w3.org/2000/svg">
<path d="M16.1568 15.6256C15.8957 15.3654 15.5449 15.2467 15.1957 15.2651L15.1971 15.2639C13.6342 15.3305 13.1389 16.5613 13.0275 16.9188C7.88492 15.2347 7.413 11.2939 7.413 11.2939C8.43088 10.8752 8.82444 10.1191 8.97707 9.58195C9.05836 9.38404 9.09074 9.17208 9.07331 8.96511C9.04908 8.67707 8.92929 8.39899 8.71303 8.18229L6.20242 5.671C5.70356 5.17213 4.87499 5.18731 4.35666 5.70564L3.64901 6.41736L3.66826 6.43661C3.43094 6.73937 3.2328 7.08855 3.08516 7.46513C2.94907 7.82359 2.86437 8.16553 2.82565 8.50837C2.49436 11.257 3.75023 13.7687 7.1587 17.1772C11.8701 21.8884 15.667 21.5324 15.8309 21.515C16.1876 21.4724 16.5295 21.3871 16.8771 21.2521C17.2503 21.1063 17.5992 20.9083 17.9018 20.6715L17.9172 20.6853L18.6341 19.9833C19.1513 19.465 19.1663 18.6369 18.6676 18.1364L16.1568 15.6256Z" fill="white"/>
<path d="M19.5108 13.0115C19.5108 13.4851 19.8948 13.8691 20.3684 13.8691C20.8422 13.8691 21.2261 13.4851 21.2261 13.0115C21.2261 10.3598 20.1933 7.86689 18.3183 5.99174C16.4434 4.11659 13.9503 3.08398 11.2986 3.08398C10.825 3.08398 10.4409 3.46803 10.4409 3.94163C10.4409 4.41522 10.825 4.79927 11.2986 4.79927C15.8269 4.79927 19.5108 8.48339 19.5108 13.0115Z" fill="white"/>
<path d="M16.1456 12.6136C16.1456 13.0872 16.5296 13.4712 17.0032 13.4712C17.477 13.4712 17.8609 13.0872 17.8609 12.6136C17.8609 9.21467 15.0956 6.44941 11.6967 6.44941C11.2231 6.44941 10.839 6.83345 10.839 7.30705C10.839 7.78064 11.2231 8.16469 11.6967 8.16469C14.1499 8.16469 16.1456 10.1604 16.1456 12.6136Z" fill="white"/>
</svg>
