<svg width="24" height="24" viewBox="0 0 24 24" fill="none" xmlns="http://www.w3.org/2000/svg">
<path fill-rule="evenodd" clip-rule="evenodd" d="M17 13C17 15.7614 14.7614 18 12 18C9.23858 18 7 15.7614 7 13C7 10.2386 9.23858 8 12 8C14.7614 8 17 10.2386 17 13ZM15 13C15 14.6569 13.6569 16 12 16C10.3431 16 9 14.6569 9 13C9 11.3431 10.3431 10 12 10C13.6569 10 15 11.3431 15 13Z" fill="white"/>
<path fill-rule="evenodd" clip-rule="evenodd" d="M7.66657 2.97024C8.23251 2.35962 9.03678 2 9.88 2H14.12C14.9593 2 15.7683 2.35696 16.3292 2.97649L17.2693 4H20C21.6523 4 23 5.34772 23 7V19C23 20.6523 21.6523 22 20 22H4C2.34772 22 1 20.6523 1 19V7C1 5.34772 2.34772 4 4 4H6.72829L7.66657 2.97024ZM9.13583 4.32719L7.9092 5.67349C7.7197 5.88147 7.45136 6 7.17 6H4C3.45228 6 3 6.45228 3 7V19C3 19.5477 3.45228 20 4 20H20C20.5477 20 21 19.5477 21 19V7C21 6.45228 20.5477 6 20 6H16.83C16.55 6 16.2829 5.88265 16.0935 5.67647L14.8476 4.31999C14.6686 4.1217 14.3991 4 14.12 4H9.88C9.60435 4 9.32976 4.1194 9.13583 4.32719Z" fill="white"/>
</svg>
