<svg width="24" height="24" viewBox="0 0 24 24" fill="none" xmlns="http://www.w3.org/2000/svg">
<path fill-rule="evenodd" clip-rule="evenodd" d="M21.7067 10.7917C21.3155 11.1829 20.6814 11.1829 20.2903 10.7917L15 16V18C15 18.3984 14.7597 19.1551 14.4779 19.4368L13.5623 20.3524C12.9756 20.9391 12.0244 20.9391 11.4377 20.3524L8.25081 17.1656L4.70976 20.7067C4.31862 21.0978 3.68448 21.0978 3.29335 20.7067C2.90222 20.3155 2.90222 19.6814 3.29335 19.2903L6.83441 15.7492L3.64742 12.5622C3.06073 11.9756 3.06073 11.0243 3.64742 10.4376L4.56306 9.52202C4.8448 9.24028 5.10156 9 5.5 9H8L13.2082 3.70973C12.8171 3.3186 12.8171 2.68447 13.2082 2.29335C13.5993 1.90222 14.2335 1.90222 14.6246 2.29335L21.7066 9.37534C22.0978 9.76646 22.0978 10.4006 21.7067 10.7917ZM9 11L14.6246 5.12613L18.8738 9.37533L13 15V18L12.5 18.5819L5.41793 11.4999L6 11H9Z" fill="white"/>
</svg>
