<svg width="24" height="24" viewBox="0 0 24 24" fill="none" xmlns="http://www.w3.org/2000/svg">
<path d="M12.1623 5.20711C12.4384 4.93096 12.8862 4.93096 13.1623 5.20711L19.2334 11.2782C19.5095 11.5543 19.5095 12.002 19.2334 12.2782C19.1008 12.4108 18.9209 12.4853 18.7334 12.4853H17.612C17.1992 12.4853 16.794 12.4105 16.4147 12.2684L14.0765 14.6066L14.0765 17.0208C14.0765 17.286 13.9711 17.5404 13.7836 17.7279L13.0158 18.4957C12.4301 19.0815 11.4803 19.0815 10.8945 18.4957L9.12676 16.7279L7.46001 18.3947C7.16107 18.6936 6.79664 18.9188 6.39557 19.0525L5.26359 19.4299C5.10724 19.482 4.95849 19.3332 5.01061 19.1769L5.38793 18.0449C5.52162 17.6438 5.74686 17.2794 6.0458 16.9805L7.71255 15.3137L5.94478 13.5459C5.35899 12.9602 5.35899 12.0104 5.94478 11.4246L6.71255 10.6569C6.90008 10.4693 7.15444 10.364 7.41965 10.364H9.83387L12.172 8.0258C12.03 7.64646 11.9552 7.2413 11.9552 6.82843V5.70711C11.9552 5.51957 12.0297 5.33972 12.1623 5.20711Z" fill="white"/>
</svg>
