<svg width="24" height="24" viewBox="0 0 24 24" fill="none" xmlns="http://www.w3.org/2000/svg">
<path d="M2 5.00284C2 4.45055 2.44772 4.00284 3 4.00284H21C21.5523 4.00284 22 4.45055 22 5.00284C22 5.55512 21.5523 6.00284 21 6.00284H3C2.44772 6.00284 2 5.55512 2 5.00284Z" fill="white"/>
<path d="M2.0001 12.0051C2.0001 11.4528 2.44781 11.0051 3.0001 11.0051H10.0001C10.5524 11.0051 11.0001 11.4528 11.0001 12.0051C11.0001 12.5574 10.5524 13.0051 10.0001 13.0051H3.0001C2.44781 13.0051 2.0001 12.5574 2.0001 12.0051Z" fill="white"/>
<path d="M3.0001 18.0021C2.44781 18.0021 2.0001 18.4498 2.0001 19.0021C2.0001 19.5544 2.44781 20.0021 3.0001 20.0021H10.0001C10.5524 20.0021 11.0001 19.5544 11.0001 19.0021C11.0001 18.4498 10.5524 18.0021 10.0001 18.0021H3.0001Z" fill="white"/>
<path d="M21.7669 16.3543C22.4621 15.9992 22.4621 15.0057 21.7669 14.6506L15.5003 11.45C14.8638 11.125 14.1087 11.5872 14.1087 12.3019V18.703C14.1087 19.4176 14.8638 19.8799 15.5003 19.5548L21.7669 16.3543Z" fill="white"/>
</svg>
