<svg width="24" height="24" viewBox="0 0 24 24" fill="none" xmlns="http://www.w3.org/2000/svg">
<path d="M12 7C11.5398 7 11.1667 7.3731 11.1667 7.83333V11.1667H7.83333C7.3731 11.1667 7 11.5398 7 12C7 12.4602 7.3731 12.8333 7.83333 12.8333H11.1667V16.1667C11.1667 16.6269 11.5398 17 12 17C12.4602 17 12.8333 16.6269 12.8333 16.1667V12.8333H16.1667C16.6269 12.8333 17 12.4602 17 12C17 11.5398 16.6269 11.1667 16.1667 11.1667H12.8333V7.83333C12.8333 7.3731 12.4602 7 12 7Z" fill="white"/>
<path d="M11.99 2C6.47 2 2 6.48 2 12C2 17.52 6.47 22 11.99 22C17.52 22 22 17.52 22 12C22 6.48 17.52 2 11.99 2ZM12 20C7.58 20 4 16.42 4 12C4 7.58 7.58 4 12 4C16.42 4 20 7.58 20 12C20 16.42 16.42 20 12 20Z" fill="white"/>
</svg>
