<svg width="24" height="24" viewBox="0 0 24 24" fill="none" xmlns="http://www.w3.org/2000/svg">
<path fill-rule="evenodd" clip-rule="evenodd" d="M12 3C11.4477 3 11 3.44772 11 4V10C11 10.5523 11.4477 11 12 11C12.5523 11 13 10.5523 13 10V4C13 3.44772 12.5523 3 12 3ZM8.94721 6.89443C9.44119 6.64744 9.64142 6.04676 9.39443 5.55279C9.14744 5.05881 8.54676 4.85858 8.05279 5.10557C7.49106 5.38644 6.47217 5.96525 5.59413 7.06281C4.70296 8.17677 4 9.77184 4 12C4 16.5769 7.73935 20 12 20C16.2606 20 20 16.5769 20 12C20 9.77184 19.297 8.17677 18.4059 7.06281C17.5278 5.96525 16.5089 5.38644 15.9472 5.10557C15.4532 4.85858 14.8526 5.05881 14.6056 5.55279C14.3586 6.04676 14.5588 6.64744 15.0528 6.89443C15.4911 7.11356 16.2222 7.53475 16.8441 8.31219C17.453 9.07323 18 10.2282 18 12C18 15.4231 15.206 18 12 18C8.79398 18 6 15.4231 6 12C6 10.2282 6.54704 9.07323 7.15587 8.31219C7.77783 7.53475 8.50894 7.11356 8.94721 6.89443Z" fill="white"/>
</svg>
