<svg width="24" height="24" viewBox="0 0 24 24" fill="none" xmlns="http://www.w3.org/2000/svg">
<g clip-path="url(#clip0_7942_2175)">
<path d="M7.75725 7.75737C8.14777 7.36685 8.78094 7.36685 9.17146 7.75737L11.9999 10.5858L14.8283 7.75737C15.2188 7.36685 15.852 7.36685 16.2425 7.75737C16.6331 8.14789 16.6331 8.78106 16.2425 9.17158L13.4141 12L16.2425 14.8284C16.6331 15.219 16.6331 15.8521 16.2425 16.2427C15.852 16.6332 15.2188 16.6332 14.8283 16.2427L11.9999 13.4142L9.17146 16.2427C8.78094 16.6332 8.14777 16.6332 7.75725 16.2427C7.36672 15.8521 7.36672 15.219 7.75725 14.8284L10.5857 12L7.75725 9.17158C7.36672 8.78106 7.36672 8.14789 7.75725 7.75737Z" fill="white"/>
<path fill-rule="evenodd" clip-rule="evenodd" d="M12 22C17.5228 22 22 17.5228 22 12C22 6.47715 17.5228 2 12 2C6.47715 2 2 6.47715 2 12C2 17.5228 6.47715 22 12 22ZM12 24C18.6274 24 24 18.6274 24 12C24 5.37258 18.6274 0 12 0C5.37258 0 0 5.37258 0 12C0 18.6274 5.37258 24 12 24Z" fill="white"/>
<mask id="path-3-inside-1_7942_2175" fill="white">
<path d="M23.0025 12C23.5533 12 24.0041 12.4473 23.9584 12.9962C23.893 13.7805 23.7507 14.5566 23.5334 15.3131C23.3813 15.8425 22.8011 16.1006 22.2861 15.9051C21.7712 15.7096 21.5174 15.1345 21.6607 14.6027C21.8026 14.0759 21.9012 13.5385 21.9555 12.9957C22.0103 12.4476 22.4517 12 23.0025 12Z"/>
</mask>
<path d="M23.9584 12.9962L21.9653 12.8302L21.9653 12.8302L23.9584 12.9962ZM23.5334 15.3131L21.6111 14.7609L21.6111 14.7609L23.5334 15.3131ZM22.2861 15.9051L21.5763 17.7749L21.5763 17.7749L22.2861 15.9051ZM21.6607 14.6027L19.7296 14.0824V14.0824L21.6607 14.6027ZM21.9555 12.9957L19.9654 12.7967V12.7967L21.9555 12.9957ZM23.0025 12V14C22.4976 14 21.9046 13.5583 21.9653 12.8302L23.9584 12.9962L25.9515 13.1622C26.1036 11.3363 24.609 10 23.0025 10V12ZM23.9584 12.9962L21.9653 12.8302C21.9108 13.4838 21.7922 14.1305 21.6111 14.7609L23.5334 15.3131L25.4557 15.8652C25.7092 14.9827 25.8752 14.0773 25.9515 13.1622L23.9584 12.9962ZM23.5334 15.3131L21.6111 14.7609C21.8128 14.0586 22.524 13.8561 22.996 14.0353L22.2861 15.9051L21.5763 17.7749C23.0782 18.3451 24.9498 17.6263 25.4557 15.8652L23.5334 15.3131ZM22.2861 15.9051L22.996 14.0353C23.5553 14.2477 23.683 14.7846 23.5919 15.1229L21.6607 14.6027L19.7296 14.0824C19.3519 15.4844 19.9871 17.1716 21.5763 17.7749L22.2861 15.9051ZM21.6607 14.6027L23.5919 15.1229C23.7621 14.4909 23.8804 13.846 23.9455 13.1947L21.9555 12.9957L19.9654 12.7967C19.922 13.231 19.8431 13.661 19.7296 14.0824L21.6607 14.6027ZM21.9555 12.9957L23.9455 13.1947C23.9107 13.5434 23.6007 14 23.0025 14V12V10C21.3026 10 20.1099 11.3519 19.9654 12.7967L21.9555 12.9957Z" fill="white" mask="url(#path-3-inside-1_7942_2175)"/>
</g>
<defs>
<clipPath id="clip0_7942_2175">
<rect width="24" height="24" fill="white"/>
</clipPath>
</defs>
</svg>
