<svg width="24" height="24" viewBox="0 0 24 24" fill="none" xmlns="http://www.w3.org/2000/svg">
<g clip-path="url(#clip0_508_15)">
<path opacity="0.45" fill-rule="evenodd" clip-rule="evenodd" d="M12 22C17.5228 22 22 17.5228 22 12C22 6.47715 17.5228 2 12 2C6.47715 2 2 6.47715 2 12C2 17.5228 6.47715 22 12 22ZM12 24C18.6274 24 24 18.6274 24 12C24 5.37258 18.6274 0 12 0C5.37258 0 0 5.37258 0 12C0 18.6274 5.37258 24 12 24Z" fill="white"/>
<path fill-rule="evenodd" clip-rule="evenodd" d="M10.9999 1C10.9999 0.447715 11.4476 0 11.9999 0C18.5476 0 24.0008 5.36804 24.0008 12C24.0008 18.684 18.2599 24 11.3085 24C10.7562 24 10.3085 23.5523 10.3085 23C10.3085 22.4477 10.7562 22 11.3085 22C17.2721 22 22.0008 17.4662 22.0008 12C22.0008 6.48169 17.4522 2 11.9999 2C11.4476 2 10.9999 1.55228 10.9999 1Z" fill="white"/>
<path d="M7.75725 7.75729C8.14777 7.36676 8.78094 7.36676 9.17146 7.75729L11.9999 10.5857L14.8283 7.75729C15.2188 7.36676 15.852 7.36676 16.2425 7.75729C16.6331 8.14781 16.6331 8.78098 16.2425 9.1715L13.4141 11.9999L16.2425 14.8284C16.6331 15.2189 16.6331 15.852 16.2425 16.2426C15.852 16.6331 15.2188 16.6331 14.8283 16.2426L11.9999 13.4141L9.17146 16.2426C8.78094 16.6331 8.14777 16.6331 7.75725 16.2426C7.36672 15.852 7.36672 15.2189 7.75725 14.8284L10.5857 11.9999L7.75725 9.1715C7.36672 8.78098 7.36672 8.14781 7.75725 7.75729Z" fill="white"/>
</g>
<defs>
<clipPath id="clip0_508_15">
<rect width="24" height="24" fill="white"/>
</clipPath>
</defs>
</svg>
