<svg width="24" height="24" viewBox="0 0 24 24" fill="none" xmlns="http://www.w3.org/2000/svg">
<g clip-path="url(#clip0_7852_2175)">
<path opacity="0.45" fill-rule="evenodd" clip-rule="evenodd" d="M12 22C17.5228 22 22 17.5228 22 12C22 6.47715 17.5228 2 12 2C6.47715 2 2 6.47715 2 12C2 17.5228 6.47715 22 12 22ZM12 24C18.6274 24 24 18.6274 24 12C24 5.37258 18.6274 0 12 0C5.37258 0 0 5.37258 0 12C0 18.6274 5.37258 24 12 24Z" fill="white"/>
<path d="M12 0C13.4322 2.85022e-08 14.8119 0.256868 16.0937 0.727539C16.6432 0.9293 17.1747 1.17029 17.6845 1.44727C18.7042 2.0012 19.6378 2.69853 20.456 3.5127C21.0016 4.0556 21.4959 4.6505 21.9306 5.28906C22.2565 5.76777 22.5485 6.27132 22.8036 6.7959C22.9737 7.14555 23.1276 7.50454 23.2636 7.87207C23.7399 9.15893 24.0009 10.5492 24.0009 12C24.0009 12.4178 23.9783 12.8302 23.9345 13.2363C23.322 18.9217 18.5312 23.3705 12.5967 23.9385C12.1728 23.979 11.7431 24 11.3086 24C10.7563 24 10.3086 23.5523 10.3086 23C10.3086 22.4477 10.7563 22 11.3086 22C11.8676 22 12.4158 21.9605 12.9502 21.8838C17.9389 21.1678 21.7316 17.2387 21.9872 12.5098C21.9964 12.3408 22.0009 12.1709 22.0009 12C22.0009 9.41343 21.0013 7.05467 19.3779 5.27832C18.945 4.80461 18.4676 4.3724 17.9531 3.98828C17.8244 3.89225 17.6937 3.79889 17.5605 3.70898C17.2941 3.52914 17.0186 3.36208 16.7353 3.20801C15.3193 2.43785 13.7038 2 12 2C11.4477 2 11 1.55228 11 1C11 0.447715 11.4477 0 12 0Z" fill="url(#paint0_radial_7852_2175)"/>
<path d="M7.75725 7.75736C8.14777 7.36683 8.78094 7.36683 9.17146 7.75736L11.9999 10.5858L14.8283 7.75736C15.2188 7.36683 15.852 7.36683 16.2425 7.75736C16.6331 8.14788 16.6331 8.78105 16.2425 9.17157L13.4141 12L16.2425 14.8284C16.6331 15.2189 16.6331 15.8521 16.2425 16.2426C15.852 16.6332 15.2188 16.6332 14.8283 16.2426L11.9999 13.4142L9.17146 16.2426C8.78094 16.6332 8.14777 16.6332 7.75725 16.2426C7.36672 15.8521 7.36672 15.2189 7.75725 14.8284L10.5857 12L7.75725 9.17157C7.36672 8.78104 7.36672 8.14788 7.75725 7.75736Z" fill="white"/>
</g>
<defs>
<radialGradient id="paint0_radial_7852_2175" cx="0" cy="0" r="1" gradientTransform="matrix(16.735 26.6667 -15.2137 7.33333 11.0693 4.41517e-09)" gradientUnits="userSpaceOnUse">
<stop stop-color="#B4B5B7"/>
<stop offset="1" stop-color="white" stop-opacity="0"/>
</radialGradient>
<clipPath id="clip0_7852_2175">
<rect width="24" height="24" fill="white"/>
</clipPath>
</defs>
</svg>
