<svg width="24" height="24" viewBox="0 0 24 24" fill="none" xmlns="http://www.w3.org/2000/svg">
<g clip-path="url(#clip0_7948_2189)">
<path d="M2 3.00586C2 2.45357 2.44772 2.00586 3 2.00586H6.5C7.05228 2.00586 7.5 1.55814 7.5 1.00586C7.5 0.453575 7.05228 0.00585938 6.5 0.00585938H3C1.34315 0.00585938 0 1.34901 0 3.00586V6.50586C0 7.05814 0.447715 7.50586 1 7.50586C1.55228 7.50586 2 7.05814 2 6.50586V3.00586Z" fill="white"/>
<path fill-rule="evenodd" clip-rule="evenodd" d="M6.18706 3.95605H8.78706C10.0021 3.95605 10.9871 4.94103 10.9871 6.15605V8.75605C10.9871 9.97108 10.0021 10.9561 8.78706 10.9561H6.18706C4.97203 10.9561 3.98706 9.97108 3.98706 8.75605V6.15605C3.98706 4.94103 4.97203 3.95605 6.18706 3.95605ZM6.18706 5.95605C6.0766 5.95605 5.98706 6.0456 5.98706 6.15605V8.75605C5.98706 8.86651 6.0766 8.95605 6.18706 8.95605H8.78706C8.89752 8.95605 8.98706 8.86651 8.98706 8.75605V6.15605C8.98706 6.0456 8.89752 5.95605 8.78706 5.95605H6.18706Z" fill="white"/>
<path fill-rule="evenodd" clip-rule="evenodd" d="M6.18706 13.2285H8.78706C10.0021 13.2285 10.9871 14.2135 10.9871 15.4285V18.0285C10.9871 19.2435 10.0021 20.2285 8.78706 20.2285H6.18706C4.97203 20.2285 3.98706 19.2435 3.98706 18.0285V15.4285C3.98706 14.2135 4.97203 13.2285 6.18706 13.2285ZM6.18706 15.2285C6.0766 15.2285 5.98706 15.3181 5.98706 15.4285V18.0285C5.98706 18.139 6.0766 18.2285 6.18706 18.2285H8.78706C8.89752 18.2285 8.98706 18.139 8.98706 18.0285V15.4285C8.98706 15.3181 8.89752 15.2285 8.78706 15.2285H6.18706Z" fill="white"/>
<path d="M13.3557 17.2441C13.0796 17.2441 12.8557 17.468 12.8557 17.7441V19.7441C12.8557 20.0203 13.0796 20.2441 13.3557 20.2441H15.3557C15.6319 20.2441 15.8557 20.0203 15.8557 19.7441V17.7441C15.8557 17.468 15.6319 17.2441 15.3557 17.2441H13.3557Z" fill="white"/>
<path d="M16.6809 13.7988C16.6809 13.5227 16.9048 13.2988 17.1809 13.2988H19.1809C19.4571 13.2988 19.6809 13.5227 19.6809 13.7988V15.7988C19.6809 16.075 19.4571 16.2988 19.1809 16.2988H17.1809C16.9048 16.2988 16.6809 16.075 16.6809 15.7988V13.7988Z" fill="white"/>
<path d="M17.1809 17.2441C16.9048 17.2441 16.6809 17.468 16.6809 17.7441V19.7441C16.6809 20.0203 16.9048 20.2441 17.1809 20.2441H19.1809C19.4571 20.2441 19.6809 20.0203 19.6809 19.7441V17.7441C19.6809 17.468 19.4571 17.2441 19.1809 17.2441H17.1809Z" fill="white"/>
<path fill-rule="evenodd" clip-rule="evenodd" d="M15.0485 3.95605H17.6485C18.8635 3.95605 19.8485 4.94103 19.8485 6.15605V8.75605C19.8485 9.97108 18.8635 10.9561 17.6485 10.9561H15.0485C13.8335 10.9561 12.8485 9.97108 12.8485 8.75605V6.15605C12.8485 4.94103 13.8335 3.95605 15.0485 3.95605ZM15.0485 5.95605C14.9381 5.95605 14.8485 6.0456 14.8485 6.15605V8.75605C14.8485 8.86651 14.9381 8.95605 15.0485 8.95605H17.6485C17.759 8.95605 17.8485 8.86651 17.8485 8.75605V6.15605C17.8485 6.0456 17.759 5.95605 17.6485 5.95605H15.0485Z" fill="white"/>
<path d="M2 20.9941C2 21.5464 2.44772 21.9941 3 21.9941H6.5C7.05228 21.9941 7.5 22.4419 7.5 22.9941C7.5 23.5464 7.05228 23.9941 6.5 23.9941H3C1.34315 23.9941 0 22.651 0 20.9941V17.4941C0 16.9419 0.447715 16.4941 1 16.4941C1.55228 16.4941 2 16.9419 2 17.4941V20.9941Z" fill="white"/>
<path d="M21.9851 3.00586C21.9851 2.45357 21.5374 2.00586 20.9851 2.00586H17.4851C16.9328 2.00586 16.4851 1.55814 16.4851 1.00586C16.4851 0.453575 16.9328 0.00585938 17.4851 0.00585938H20.9851C22.642 0.00585938 23.9851 1.34901 23.9851 3.00586V6.50586C23.9851 7.05814 23.5374 7.50586 22.9851 7.50586C22.4328 7.50586 21.9851 7.05814 21.9851 6.50586V3.00586Z" fill="white"/>
<path d="M21.9851 20.9941C21.9851 21.5464 21.5374 21.9941 20.9851 21.9941H17.4851C16.9328 21.9941 16.4851 22.4419 16.4851 22.9941C16.4851 23.5464 16.9328 23.9941 17.4851 23.9941H20.9851C22.642 23.9941 23.9851 22.651 23.9851 20.9941V17.4941C23.9851 16.9419 23.5374 16.4941 22.9851 16.4941C22.4328 16.4941 21.9851 16.9419 21.9851 17.4941V20.9941Z" fill="white"/>
<path d="M13.3557 13.2988C13.0796 13.2988 12.8557 13.5227 12.8557 13.7988V15.7988C12.8557 16.075 13.0796 16.2988 13.3557 16.2988H15.3557C15.6319 16.2988 15.8557 16.075 15.8557 15.7988V13.7988C15.8557 13.5227 15.6319 13.2988 15.3557 13.2988H13.3557Z" fill="white"/>
</g>
<defs>
<clipPath id="clip0_7948_2189">
<rect width="24" height="24" fill="white"/>
</clipPath>
</defs>
</svg>
