<svg width="24" height="24" viewBox="0 0 24 24" fill="none" xmlns="http://www.w3.org/2000/svg">
<path d="M14.684 7.22665L7.00915 14.9512L4.30135 12.3057C4.00345 12.0147 3.52761 12.015 3.23006 12.3064C2.92332 12.6068 2.92331 13.1006 3.23005 13.401L6.71477 16.8136C6.87777 16.9732 7.13897 16.9716 7.30003 16.8101L15.7726 8.30993C16.0746 8.00695 16.0707 7.51559 15.764 7.21736C15.4623 6.92396 14.9807 6.92811 14.684 7.22665Z" fill="white"/>
<path d="M19.6963 7.69756L12.0216 15.2134L11.5466 15.6675C11.2534 15.9477 11.227 16.407 11.4861 16.7191C11.7745 17.0665 12.2981 17.0934 12.6206 16.7775L20.7714 8.79538C21.0798 8.49336 21.0789 7.9966 20.7694 7.69566C20.4705 7.40495 19.9942 7.40579 19.6963 7.69756Z" fill="white"/>
</svg>
