<svg width="24" height="24" viewBox="0 0 24 24" fill="none" xmlns="http://www.w3.org/2000/svg">
<path d="M20.333 12.0005C20.333 7.26752 16.5182 3.57887 12 3.57887C7.48176 3.57887 3.66699 7.26752 3.66699 12.0005C3.66721 16.7332 7.48189 20.4211 12 20.4211V22C6.64976 22 2.28055 17.7984 2.0127 12.5147L2 12.0005C2 6.47758 6.47715 2 12 2C17.5228 2 22 6.47758 22 12.0005L21.9873 12.5147C21.7194 17.7984 17.3502 22 12 22V20.4211C16.5181 20.4211 20.3328 16.7332 20.333 12.0005Z" fill="white"/>
<path d="M10 15.6277C10.55 15.6277 11 15.2015 11 14.6806V9.9449C11 9.42398 10.55 8.99777 10 8.99777C9.45 8.99777 9 9.42398 9 9.9449V14.6806C9 15.2015 9.45 15.6277 10 15.6277ZM13 9.9449V14.6806C13 15.2015 13.45 15.6277 14 15.6277C14.55 15.6277 15 15.2015 15 14.6806V9.9449C15 9.42398 14.55 8.99777 14 8.99777C13.45 8.99777 13 9.42398 13 9.9449Z" fill="white"/>
</svg>
