<svg width="24" height="24" viewBox="0 0 24 24" fill="none" xmlns="http://www.w3.org/2000/svg">
<path d="M20.333 12C20.333 7.39763 16.6024 3.66699 12 3.66699C7.39763 3.66699 3.66699 7.39763 3.66699 12C3.66699 16.6024 7.39763 20.333 12 20.333V22C6.47715 22 2 17.5228 2 12C2 6.47715 6.47715 2 12 2C17.5228 2 22 6.47715 22 12C22 17.5228 17.5228 22 12 22V20.333C16.6024 20.333 20.333 16.6024 20.333 12Z" fill="#E06141"/>
<path d="M8 12C8 9.79086 9.79086 8 12 8C14.2091 8 16 9.79086 16 12C16 14.2091 14.2091 16 12 16C9.79086 16 8 14.2091 8 12Z" fill="#E06141"/>
</svg>
