<svg width="24" height="24" viewBox="0 0 24 24" fill="none" xmlns="http://www.w3.org/2000/svg">
<path d="M20.333 12.0005C20.333 7.26752 16.5182 3.57887 12 3.57887C7.48176 3.57887 3.66699 7.26752 3.66699 12.0005C3.66721 16.7332 7.48189 20.4211 12 20.4211V22C6.64976 22 2.28055 17.7984 2.0127 12.5147L2 12.0005C2 6.47758 6.47715 2 12 2C17.5228 2 22 6.47758 22 12.0005L21.9873 12.5147C21.7194 17.7984 17.3502 22 12 22V20.4211C16.5181 20.4211 20.3328 16.7332 20.333 12.0005Z" fill="white"/>
<path d="M16.1666 12C16.1666 14.3012 14.3011 16.1667 11.9999 16.1667C9.69873 16.1667 7.83325 14.3012 7.83325 12C7.83325 9.69881 9.69873 7.83333 11.9999 7.83333C14.3011 7.83333 16.1666 9.69881 16.1666 12Z" fill="white"/>
</svg>
