<svg width="24" height="24" viewBox="0 0 24 24" fill="none" xmlns="http://www.w3.org/2000/svg">
<path d="M14.9225 6.6413C15.4788 6.92133 16.0003 7.29335 16.4643 7.75736L16.0501 8.17157C15.4202 8.80154 15.8663 9.87868 16.7572 9.87868H18.9999C19.5522 9.87868 19.9999 9.43096 19.9999 8.87868V6.63604C19.9999 5.74513 18.9227 5.29897 18.2928 5.92893L17.8786 6.34314C14.7822 3.24683 9.78435 3.218 6.65263 6.25667C5.75661 7.12551 5.07215 8.19611 4.66075 9.38612C4.11857 10.9544 4.07749 12.6525 4.5432 14.2452C5.00891 15.8379 5.95836 17.2464 7.26005 18.2755C8.56173 19.3047 10.1512 19.9036 11.8084 19.9893C13.4656 20.075 15.1084 19.6433 16.5093 18.754C17.6267 18.0446 18.5462 17.072 19.191 15.9279C19.463 15.4453 19.2118 14.8557 18.699 14.6462C18.1861 14.4367 17.6073 14.6886 17.3153 15.1594C16.8417 15.923 16.2 16.5742 15.4341 17.0603C14.3845 17.7267 13.1536 18.0501 11.912 17.9859C10.6704 17.9217 9.47951 17.4729 8.50424 16.7019C7.52897 15.9308 6.81761 14.8755 6.46868 13.6822C6.11975 12.4889 6.15053 11.2166 6.55675 10.0416C6.96297 8.86655 7.72452 7.84691 8.73594 7.12389C9.74736 6.40087 10.9586 6.01025 12.2018 6.00613C13.1089 6.00313 14.0004 6.20599 14.8108 6.59413C14.8474 6.61168 14.8847 6.6274 14.9225 6.6413Z" fill="white"/>
</svg>
