<svg width="24" height="24" viewBox="0 0 24 24" fill="none" xmlns="http://www.w3.org/2000/svg">
<path d="M11.1876 1.17241C11.7047 0.942572 12.295 0.942572 12.8122 1.17241L19.8122 4.28352C20.5344 4.60452 20.9999 5.32076 20.9999 6.11114L20.9999 10.8114C20.9999 13.1807 20.3001 15.5323 19.0965 17.5464L17.6428 16.0927C18.5036 14.4879 18.9999 12.656 18.9999 10.8114V6.76136C18.9999 6.36612 18.7671 6.00797 18.4059 5.8475L12.4059 3.18178C12.1474 3.06694 11.8524 3.06694 11.5939 3.18178L6.84278 5.29263L5.32719 3.77704L11.1876 1.17241Z" fill="white"/>
<path fill-rule="evenodd" clip-rule="evenodd" d="M16.8282 20.3786L18.3979 21.9483C18.7884 22.3388 19.4216 22.3388 19.8121 21.9483C20.2026 21.5578 20.2026 20.9246 19.8121 20.5341L2.91414 3.63605C2.52361 3.24552 1.89045 3.24552 1.49992 3.63605C1.1094 4.02657 1.1094 4.65973 1.49992 5.05026L2.99989 6.55026V10.8114C2.99989 16.191 6.60767 21.4799 11.5283 22.9319C11.6822 22.9773 11.841 23 11.9999 23C12.1587 23 12.3176 22.9773 12.4714 22.9319C14.0939 22.4532 15.5735 21.5573 16.8282 20.3786ZM15.4283 18.9786L11.0756 14.626L10.0869 15.2299C9.70732 15.4617 9.2367 15.1198 9.33989 14.6871L9.68596 13.2363L4.99989 8.55026V10.8114C4.99989 15.1102 7.69532 19.34 11.4173 20.7862C11.792 20.9318 12.2078 20.9318 12.5825 20.7862C13.6236 20.3817 14.5843 19.7593 15.4283 18.9786Z" fill="white"/>
<path d="M14.3717 12.308C14.2696 12.3954 14.2088 12.5185 14.1985 12.6484L10.9311 9.38098L11.5382 7.92136C11.709 7.51071 12.2908 7.51071 12.4615 7.92136L13.2051 9.70913C13.2771 9.88224 13.4399 10.0005 13.6268 10.0155L15.5569 10.1702C16.0002 10.2058 16.18 10.759 15.8422 11.0484L14.3717 12.308Z" fill="white"/>
</svg>
