<svg width="24" height="24" viewBox="0 0 24 24" fill="none" xmlns="http://www.w3.org/2000/svg">
<path fill-rule="evenodd" clip-rule="evenodd" d="M9.70711 4.29289C10.0976 4.68342 10.0976 5.31658 9.70711 5.70711L6.41421 9L5.41421 10L6.41421 11L9.70711 14.2929C10.0976 14.6834 10.0976 15.3166 9.70711 15.7071C9.31658 16.0976 8.68342 16.0976 8.29289 15.7071L3.29289 10.7071C2.90237 10.3166 2.90237 9.68342 3.29289 9.29289L8.29289 4.29289C8.68342 3.90237 9.31658 3.90237 9.70711 4.29289Z" fill="white"/>
<path d="M19.5355 10.4645C18.5979 9.52678 17.3261 9 16 9H6.41421L5.41421 10L6.41421 11H16C16.7956 11 17.5587 11.3161 18.1213 11.8787C18.6839 12.4413 19 13.2044 19 14V18C19 18.5523 19.4477 19 20 19C20.5523 19 21 18.5523 21 18V14C21 12.6739 20.4732 11.4021 19.5355 10.4645Z" fill="white"/>
</svg>
