<svg width="24" height="24" viewBox="0 0 24 24" fill="none" xmlns="http://www.w3.org/2000/svg">
<path fill-rule="evenodd" clip-rule="evenodd" d="M7.28618 4.598C8.57279 3.30296 10.7452 4.24343 10.7452 6.034V6.8269C14.1212 7.48758 16.6273 9.06182 18.4294 11.1349C20.3658 13.3624 21.4461 16.1142 21.9808 18.8051C22.0728 19.2678 21.8288 19.7318 21.3955 19.9184C20.9623 20.105 20.4575 19.9635 20.1845 19.5787C18.0128 16.5184 15.0534 14.9726 10.7452 14.7706V15.4882C10.7452 17.3003 8.55763 18.1936 7.28618 16.9139L2.58986 12.1868C1.80338 11.3951 1.80338 10.1167 2.58986 9.32508L7.28618 4.598ZM8.71316 6.00021C8.71126 6.0017 8.70852 6.00405 8.70501 6.00759L4.00869 10.7347C4.00457 10.7388 4.00305 10.7417 4.00214 10.744C4.00096 10.7469 4 10.751 4 10.7559C4 10.7608 4.00096 10.7649 4.00214 10.7679C4.00305 10.7701 4.00457 10.773 4.00869 10.7772L8.70501 15.5043C8.70979 15.5091 8.71326 15.5119 8.71519 15.5133L8.71673 15.5144C8.71911 15.5143 8.72441 15.5138 8.73176 15.5108C8.73835 15.5081 8.74221 15.5051 8.74403 15.5035L8.74432 15.502C8.74469 15.4996 8.7452 15.4951 8.7452 15.4882V13.7477C8.7452 13.1954 9.19292 12.7477 9.7452 12.7477C13.3846 12.7477 16.3547 13.5527 18.7563 15.2887C18.271 14.2652 17.6652 13.3042 16.92 12.447C15.2905 10.5725 12.9518 9.14285 9.60287 8.6613C9.11063 8.59052 8.7452 8.16878 8.7452 7.67148V6.034C8.7452 6.02156 8.74337 6.01549 8.74337 6.01549" fill="white"/>
</svg>
