<svg width="24" height="24" viewBox="0 0 24 24" fill="none" xmlns="http://www.w3.org/2000/svg">
<path d="M6.67342 9.24673C6.89688 8.81561 6.86025 8.27867 6.5181 7.93409L6.50178 7.91766C6.07662 7.48949 5.36665 7.53113 5.06494 8.05368C4.72697 8.63902 4.46703 9.25664 4.2903 9.89303C4.12964 10.4716 4.59913 11 5.19956 11H5.23786C5.72882 11 6.13858 10.6399 6.28814 10.1723C6.38928 9.85605 6.51823 9.54616 6.67342 9.24673ZM6.28699 13.8296C6.138 13.3611 5.72795 13 5.23632 13H5.19956C4.59913 13 4.12949 13.5284 4.28862 14.1073C4.46342 14.7433 4.72031 15.3605 5.05618 15.9455C5.35661 16.4688 6.06663 16.5105 6.49178 16.0823L6.51345 16.0605C6.85323 15.7183 6.89196 15.1861 6.6712 14.7574C6.51689 14.4577 6.38812 14.1476 6.28699 13.8296ZM7.89621 17.5181C7.473 17.9442 7.51695 18.65 8.03858 18.9477C8.62798 19.2841 9.25105 19.5396 9.89201 19.7133C10.4715 19.8703 10.9998 19.4007 10.9998 18.8002V18.7423C10.9998 18.2556 10.6458 17.8484 10.1824 17.6994C9.8691 17.5987 9.56255 17.4714 9.2658 17.3171C8.82969 17.0903 8.28487 17.1267 7.93848 17.4755L7.89621 17.5181ZM12.9998 4.06999V3.41421C12.9998 2.5233 11.9227 2.07713 11.2927 2.7071L9.16481 4.83499C8.77121 5.22858 8.77477 5.86781 9.17271 6.25701L11.3006 8.33813C11.9337 8.95732 12.9998 8.50877 12.9998 7.62321V6.08999C15.8398 6.56999 17.9998 9.02999 17.9998 12C17.9998 14.6764 16.2457 16.9387 13.8207 17.711C13.3557 17.8591 12.9998 18.2672 12.9998 18.7552V18.7983C12.9998 19.3994 13.5294 19.8693 14.1095 19.7117C17.5067 18.7889 19.9998 15.6887 19.9998 12C19.9998 7.91999 16.9498 4.55999 12.9998 4.06999Z" fill="white"/>
</svg>
