<svg width="24" height="24" viewBox="0 0 24 24" fill="none" xmlns="http://www.w3.org/2000/svg">
<path d="M15.5996 16.25V18.25H8.40039V16.25H15.5996ZM20 11.8496V9.65039C20 8.49728 19.9984 7.75222 19.9521 7.18555C19.9078 6.64231 19.8326 6.44068 19.7822 6.3418C19.5905 5.96554 19.2845 5.65951 18.9082 5.46777C18.8093 5.41739 18.6077 5.34224 18.0645 5.29785C17.4978 5.25155 16.7527 5.25 15.5996 5.25H8.40039C7.24728 5.25 6.50222 5.25155 5.93555 5.29785C5.39231 5.34224 5.19068 5.41739 5.0918 5.46777C4.71554 5.65951 4.40951 5.96554 4.21777 6.3418C4.16739 6.44068 4.09224 6.64231 4.04785 7.18555C4.00155 7.75222 4 8.49728 4 9.65039V11.8496C4 13.0027 4.00155 13.7478 4.04785 14.3145C4.09224 14.8577 4.16739 15.0593 4.21777 15.1582C4.40951 15.5345 4.71554 15.8405 5.0918 16.0322C5.19068 16.0826 5.39231 16.1578 5.93555 16.2021C6.50222 16.2484 7.24728 16.25 8.40039 16.25V18.25L6.91602 18.2432C5.72431 18.2244 4.96088 18.1541 4.34766 17.8906L4.18359 17.8145C3.52512 17.4789 2.97413 16.9683 2.58984 16.3418L2.43555 16.0664C1.99957 15.2108 2 14.0898 2 11.8496V9.65039C2 7.41018 1.99957 6.28924 2.43555 5.43359C2.81902 4.68109 3.43109 4.06902 4.18359 3.68555C4.82525 3.35861 5.61607 3.27728 6.91602 3.25684L8.40039 3.25H15.5996C17.8398 3.25 18.9608 3.24957 19.8164 3.68555C20.5689 4.06902 21.181 4.68109 21.5645 5.43359C22.0004 6.28924 22 7.41018 22 9.65039V11.8496C22 14.0898 22.0004 15.2108 21.5645 16.0664L21.4102 16.3418C21.0259 16.9683 20.4749 17.4789 19.8164 17.8145L19.6523 17.8906C18.816 18.2499 17.6999 18.25 15.5996 18.25V16.25C16.7527 16.25 17.4978 16.2484 18.0645 16.2021C18.6077 16.1578 18.8093 16.0826 18.9082 16.0322C19.2845 15.8405 19.5905 15.5345 19.7822 15.1582C19.8326 15.0593 19.9078 14.8577 19.9521 14.3145C19.9984 13.7478 20 13.0027 20 11.8496Z" fill="white"/>
<path d="M15.4705 21.75H8.52973C7.80362 21.75 7.45305 20.8606 7.9839 20.3651L10.2503 18.25H13.7503L16.0164 20.3652C16.5472 20.8606 16.1966 21.75 15.4705 21.75Z" fill="white"/>
<path d="M11.978 9.50406L13.9255 7.55132C14.2597 7.21621 14.8015 7.21621 15.1357 7.55132C15.47 7.88649 15.47 8.42998 15.1357 8.76516L13.1884 10.7177L15.2001 12.7348C15.5344 13.07 15.5344 13.6135 15.2001 13.9487C14.8659 14.2838 14.3241 14.2838 13.9899 13.9487L11.978 11.9314L10.0117 13.903C9.67748 14.2381 9.13569 14.2381 8.80149 13.903C8.46721 13.5678 8.46721 13.0243 8.80149 12.6892L10.7676 10.7177L8.86586 8.81081C8.53159 8.47564 8.53159 7.93215 8.86586 7.59697C9.20006 7.26186 9.74186 7.26186 10.0761 7.59697L11.978 9.50406Z" fill="white"/>
</svg>
