<svg width="24" height="24" viewBox="0 0 24 24" fill="none" xmlns="http://www.w3.org/2000/svg"><path d="M12.385 1H8a7 7 0 0 0-7 7v4c0 3.866 2 7 6 7v3a1 1 0 0 0 1.581.814L14 19h2a7 7 0 0 0 6.943-6.105 8.3 8.3 0 0 1-2.188.656A5 5 0 0 1 16 17h-2.634L9 20.073V17H7c-1.418 0-2.328-.526-2.93-1.29C3.42 14.889 3 13.615 3 12V8a5 5 0 0 1 5-5h3.5a8.3 8.3 0 0 1 .885-2" fill="#fff" fill-opacity=".55"/><path d="M17.775 2.67c-.59 0-1.069.48-1.069 1.073v1.356h-1.912V3.743A2.99 2.99 0 0 1 17.775.749h.45a2.99 2.99 0 0 1 2.981 2.994v1.356h-.225c.839 0 1.519.683 1.519 1.525v2.6c0 .842-.68 1.524-1.519 1.524H15.02a1.52 1.52 0 0 1-1.52-1.524v-2.6c0-.842.68-1.525 1.519-1.525h4.275V3.743c0-.593-.479-1.074-1.069-1.074z" fill="#fff" fill-opacity=".55"/></svg>