<svg width="24" height="24" viewBox="0 0 24 24" fill="none" xmlns="http://www.w3.org/2000/svg">
<path d="M12.385 1H7.99998C4.13399 1 1 4.13401 1 8V12C1 15.866 3 19 7 19V22C7 22.8134 7.91937 23.2865 8.58124 22.8137L14 19H16.0005C19.5633 19 22.5041 16.3382 22.9434 12.8947C22.2584 13.2089 21.5237 13.4326 20.7549 13.5508C20.1024 15.5532 18.2204 17 16.0005 17H13.3668L9 20.0733V17H7C5.58208 17 4.6723 16.4737 4.06981 15.7105C3.42055 14.8881 3 13.6154 3 12V8C3 5.23857 5.23856 3 7.99998 3H11.4998C11.7072 2.28896 12.007 1.61775 12.385 1Z" fill="white"/>
<path d="M17.775 2.66944C17.1847 2.66944 16.7063 3.15004 16.7063 3.74289V5.09878H14.7937V3.74289C14.7937 2.08915 16.1285 0.748525 17.775 0.748535L18.225 0.748537C19.8715 0.748548 21.2062 2.08916 21.2062 3.74289V5.09881H20.9813C21.82 5.09881 22.5 5.78177 22.5 6.62424V9.22311C22.5 10.0656 21.82 10.7485 20.9813 10.7485H15.0188C14.18 10.7485 13.5 10.0656 13.5 9.22311V6.62424C13.5 5.78177 14.18 5.09881 15.0188 5.09881H19.2938V3.74289C19.2938 3.15005 18.8153 2.66945 18.225 2.66944L17.775 2.66944Z" fill="white"/>
</svg>
