<svg width="24" height="24" viewBox="0 0 24 24" fill="none" xmlns="http://www.w3.org/2000/svg">
<path fill-rule="evenodd" clip-rule="evenodd" d="M1.00128 3.2192C1.00142 2.843 1.09716 2.47301 1.27951 2.14396C1.46185 1.81491 1.72482 1.5376 2.04372 1.33805C2.36262 1.13851 2.727 1.02327 3.10265 1.00317C3.4783 0.983071 3.85289 1.05876 4.19127 1.22314L21.5392 9.66342C21.9772 9.87681 22.3465 10.209 22.6048 10.6222C22.863 11.0353 23 11.5128 23 12C23 12.4872 22.863 12.9647 22.6048 13.3778C22.3465 13.791 21.9772 14.1232 21.5392 14.3366L4.19127 22.7769C3.85282 22.9413 3.47813 23.017 3.1024 22.9968C2.72667 22.9767 2.36223 22.8613 2.0433 22.6617C1.72437 22.462 1.46142 22.1846 1.27914 21.8554C1.09687 21.5262 1.00125 21.1561 1.00128 20.7798C1.00128 20.5868 0.988276 20.3918 1.04528 20.2048L3.04527 13.7046C3.09589 13.54 3.18812 13.3914 3.31302 13.2729C3.43793 13.1545 3.59129 13.0703 3.75827 13.0285L7.87826 11.9995L3.75827 10.9695C3.59129 10.9277 3.43793 10.8435 3.31302 10.7251C3.18812 10.6066 3.09589 10.458 3.04527 10.2934L1.04528 3.79322C0.988276 3.60622 1.00128 3.41121 1.00128 3.2192ZM3.22127 2.9992C3.19238 2.9992 3.16377 3.00489 3.13708 3.01594C3.11039 3.027 3.08614 3.0432 3.06571 3.06363C3.04528 3.08406 3.02907 3.10832 3.01802 3.13501C3.00696 3.1617 3.00127 3.19031 3.00127 3.2192V3.34921L4.79127 9.1664L12.2443 11.0295C12.4605 11.0837 12.6524 11.2086 12.7895 11.3843C12.9267 11.56 13.0011 11.7766 13.0011 11.9995C13.0011 12.2224 12.9267 12.439 12.7895 12.6147C12.6524 12.7905 12.4605 12.9153 12.2443 12.9695L4.79127 14.8326L3.00127 20.6498V20.7798C3.00134 20.8169 3.01082 20.8535 3.02882 20.886C3.04681 20.9185 3.07275 20.9459 3.10419 20.9656C3.13564 20.9854 3.17158 20.9969 3.20867 20.999C3.24575 21.0011 3.28277 20.9938 3.31627 20.9778L20.6642 12.5375C20.7649 12.4882 20.8498 12.4117 20.9091 12.3166C20.9684 12.2215 20.9999 12.1116 20.9999 11.9995C20.9999 11.8874 20.9684 11.7775 20.9091 11.6824C20.8498 11.5873 20.7649 11.5108 20.6642 11.4615L3.31627 3.0212C3.28634 3.0067 3.25452 2.99918 3.22127 2.9992Z" fill="white"/>
</svg>
