<svg width="24" height="24" viewBox="0 0 24 24" fill="none" xmlns="http://www.w3.org/2000/svg">
<path fill-rule="evenodd" clip-rule="evenodd" d="M1.6036 1.3115C2.04866 0.963977 2.64052 0.90234 3.14217 1.15128L22.1421 10.5798C22.666 10.8398 23 11.3927 23 12C23 12.6073 22.666 13.1602 22.1421 13.4202L3.14217 22.8487C2.63389 23.1009 2.03365 23.0341 1.58733 22.6756C1.14101 22.3171 0.92363 21.7271 1.02424 21.1475L2.00681 15.1466C2.10845 14.561 2.51718 14.0858 3.06261 13.9191L8.03697 12.6094C8.55933 12.4719 8.5334 11.6852 8.00323 11.5858L3.17668 10.6804C2.56417 10.5467 2.0952 10.0288 2.00006 9.38094L1.01749 2.81038C0.933081 2.23563 1.15855 1.65903 1.6036 1.3115Z" fill="white"/>
</svg>
