<svg width="24" height="24" viewBox="0 0 24 24" fill="none" xmlns="http://www.w3.org/2000/svg">
<path d="M12.7136 3.29947C12.6897 3.27515 12.6646 3.25205 12.6383 3.23026C12.5686 3.17231 12.4929 3.1253 12.4134 3.08922C12.2874 3.03192 12.1474 3 11.9999 3C11.9969 3 11.9938 3.00001 11.9907 3.00004C11.8725 3.00112 11.7545 3.02302 11.6426 3.06574C11.5151 3.11442 11.3955 3.19014 11.2928 3.29289L7.79277 6.79289C7.40225 7.18342 7.40225 7.81658 7.79277 8.20711C8.1833 8.59763 8.81646 8.59763 9.20698 8.20711L10.9999 6.41415V15.375C10.9999 15.9273 11.4477 16.375 11.9999 16.375C12.5522 16.375 12.9999 15.9273 12.9999 15.375V6.41427L14.7928 8.20711C15.1833 8.59763 15.8165 8.59763 16.207 8.20711C16.5975 7.81658 16.5975 7.18342 16.207 6.79289L12.7136 3.29947Z" fill="white"/>
<path d="M4 12.7501C4.55228 12.7501 5 13.1978 5 13.7501V18.7501C5 18.949 5.07902 19.1397 5.21967 19.2804C5.36032 19.421 5.55109 19.5001 5.75 19.5001H18.25C18.4489 19.5001 18.6397 19.421 18.7803 19.2804C18.921 19.1397 19 18.949 19 18.7501V13.7501C19 13.1978 19.4477 12.7501 20 12.7501C20.5523 12.7501 21 13.1978 21 13.7501V18.7501C21 19.4794 20.7103 20.1789 20.1945 20.6946C19.6788 21.2103 18.9793 21.5001 18.25 21.5001H5.75C5.02065 21.5001 4.32118 21.2103 3.80546 20.6946C3.28973 20.1789 3 19.4794 3 18.7501V13.7501C3 13.1978 3.44772 12.7501 4 12.7501Z" fill="white"/>
</svg>
