<svg width="24" height="24" viewBox="0 0 24 24" fill="none" xmlns="http://www.w3.org/2000/svg">
<path fill-rule="evenodd" clip-rule="evenodd" d="M13.0002 6C13.0002 3.79086 14.791 2 17.0002 2C19.2093 2 21.0002 3.79086 21.0002 6C21.0002 8.20914 19.2093 10 17.0002 10C15.8717 10 14.8524 9.53273 14.1252 8.78112C14.0822 8.81547 14.0357 8.84671 13.986 8.87434L10.3235 10.909C10.4216 11.2558 10.4741 11.6218 10.4741 12C10.4741 12.5346 10.3692 13.0448 10.1789 13.511L13.8414 15.5457C14.5733 14.6051 15.7161 14 17.0002 14C19.2093 14 21.0002 15.7909 21.0002 18C21.0002 20.2091 19.2093 22 17.0002 22C14.791 22 13.0002 20.2091 13.0002 18C13.0002 17.793 13.0159 17.5897 13.0462 17.3911C13.0357 17.3857 13.0252 17.3801 13.0147 17.3743L8.96905 15.1267C8.28503 15.6733 7.41773 16 6.47412 16C4.26498 16 2.47412 14.2091 2.47412 12C2.47412 9.79086 4.26498 8 6.47412 8C7.58417 8 8.58861 8.45217 9.3133 9.18237L13.0147 7.12602C13.0569 7.10261 13.1 7.08257 13.1437 7.0658C13.0502 6.72648 13.0002 6.36908 13.0002 6ZM17.0002 4C15.8956 4 15.0002 4.89543 15.0002 6C15.0002 7.10457 15.8956 8 17.0002 8C18.1048 8 19.0002 7.10457 19.0002 6C19.0002 4.89543 18.1048 4 17.0002 4ZM6.47412 10C5.36955 10 4.47412 10.8954 4.47412 12C4.47412 13.1046 5.36955 14 6.47412 14C7.57869 14 8.47412 13.1046 8.47412 12C8.47412 10.8954 7.57869 10 6.47412 10ZM15.0002 18C15.0002 16.8954 15.8956 16 17.0002 16C18.1048 16 19.0002 16.8954 19.0002 18C19.0002 19.1046 18.1048 20 17.0002 20C15.8956 20 15.0002 19.1046 15.0002 18Z" fill="white"/>
</svg>
