<svg width="24" height="24" viewBox="0 0 24 24" fill="none" xmlns="http://www.w3.org/2000/svg">
<path d="M6.66775 3.24609C6.80178 3.25439 6.93158 3.29297 7.04861 3.35742C7.16409 3.4211 7.26452 3.50804 7.34548 3.61133L19.6092 19.0117C19.692 19.114 19.7542 19.2312 19.7947 19.3564C19.8355 19.4827 19.8542 19.6163 19.8494 19.749C19.8445 19.8816 19.8166 20.0131 19.7664 20.1357C19.716 20.2586 19.6428 20.3721 19.5506 20.4678C19.4584 20.5633 19.3481 20.6401 19.2244 20.6904C19.1002 20.7409 18.966 20.7631 18.8318 20.7549C18.6978 20.7466 18.568 20.708 18.4509 20.6436C18.3355 20.5799 18.235 20.4929 18.1541 20.3896L15.4822 17.0352L11.0164 22.5C10.8781 22.6685 10.6879 22.7899 10.4715 22.833C10.2542 22.8762 10.0326 22.8365 9.84255 22.7256C9.65365 22.6153 9.50972 22.4429 9.42458 22.2432C9.33963 22.0437 9.3149 21.8213 9.35134 21.6074V21.6055L10.4236 15.4668L6.2615 13.6855C6.10814 13.62 5.97665 13.5141 5.87575 13.3828C5.7749 13.2515 5.70643 13.0969 5.67361 12.9346C5.64079 12.7722 5.64394 12.6035 5.68239 12.4424C5.72071 12.282 5.79405 12.131 5.89919 12.0039L8.72243 8.54687L5.8904 4.98926L5.89138 4.98828C5.80877 4.88611 5.74532 4.76956 5.70486 4.64453C5.66399 4.5182 5.64531 4.38475 5.65017 4.25195C5.65505 4.11934 5.68298 3.98791 5.73318 3.86523C5.78351 3.74236 5.85678 3.62889 5.949 3.5332C6.04117 3.43763 6.15146 3.36089 6.27517 3.31055C6.39934 3.26008 6.53352 3.23785 6.66775 3.24609ZM8.25564 12.2744L11.8787 13.8291L11.8806 13.8301C12.1004 13.9255 12.2717 14.1021 12.3748 14.3154C12.4775 14.5281 12.5104 14.7711 12.4695 15.0039L11.8972 18.2686L14.2088 15.4385L9.99489 10.1465L8.25564 12.2744ZM15.0281 1.16699C15.2453 1.1238 15.4669 1.16351 15.657 1.27441C15.8459 1.3847 15.9898 1.55706 16.075 1.75684C16.1599 1.95631 16.1847 2.17873 16.1482 2.39258V2.39453L15.0711 8.54199L19.2351 10.3242L19.2361 10.3252C19.3885 10.3912 19.5187 10.497 19.6189 10.6279C19.719 10.7587 19.7873 10.9118 19.8201 11.0732C19.8528 11.2346 19.85 11.4023 19.8123 11.5625C19.7746 11.7225 19.7026 11.8738 19.5984 12.001L17.8884 14.0918L17.8845 14.0967C17.7142 14.2978 17.4708 14.4256 17.2029 14.4336C16.9348 14.4415 16.6845 14.3281 16.5037 14.1357C16.3242 13.9446 16.2247 13.6891 16.2146 13.4277C16.2046 13.1665 16.2842 12.9048 16.4461 12.6992L16.45 12.6934L17.242 11.7275L13.6238 10.1787L13.6218 10.1777C13.4024 10.0824 13.2308 9.90644 13.1277 9.69336C13.0247 9.4803 12.9928 9.23608 13.034 9.00293L13.6052 5.73633L12.408 7.20215L12.407 7.20117C12.3235 7.30361 12.2211 7.38985 12.1033 7.45117C11.9851 7.51264 11.8552 7.54761 11.7215 7.55273C11.5877 7.55785 11.4553 7.53318 11.3328 7.48047C11.2105 7.4278 11.1017 7.34884 11.0115 7.25195C10.9219 7.1561 10.8511 7.04273 10.8025 6.9209C10.7538 6.79855 10.7274 6.66792 10.7234 6.53613C10.7194 6.40423 10.738 6.27176 10.7791 6.14648C10.8202 6.02134 10.8832 5.90372 10.9666 5.80176L14.4832 1.5C14.6215 1.33149 14.8116 1.21009 15.0281 1.16699Z" fill="white"/>
</svg>
