<svg width="24" height="24" viewBox="0 0 24 24" fill="none" xmlns="http://www.w3.org/2000/svg">
<path d="M14.376 1.01714C14.5934 0.973875 14.8158 1.01354 15.0059 1.12456C15.1948 1.23485 15.3388 1.40723 15.4239 1.60698C15.5088 1.8064 15.5336 2.02894 15.4971 2.24273V2.24468L14.42 8.39214L18.5831 10.1744L18.585 10.1753C18.7373 10.2414 18.8677 10.3472 18.9678 10.4781C19.0678 10.6088 19.1353 10.762 19.168 10.9234C19.2008 11.0847 19.1989 11.2524 19.1612 11.4126C19.1234 11.573 19.0508 11.7248 18.9464 11.8521L18.9454 11.8511L10.3653 22.3501L10.3643 22.3511C10.2261 22.5194 10.0367 22.6401 9.82038 22.6832C9.60303 22.7264 9.38066 22.6868 9.19049 22.5757C9.00173 22.4654 8.8586 22.293 8.7735 22.0933C8.68852 21.8938 8.66286 21.6714 8.69928 21.4576L8.70026 21.4556L9.77253 15.3169L5.61042 13.5357C5.457 13.4702 5.32561 13.3643 5.22467 13.233C5.12384 13.1016 5.05535 12.9471 5.02253 12.7847C4.98971 12.6223 4.99284 12.4536 5.03131 12.2925C5.06964 12.132 5.14289 11.9811 5.24811 11.8541L13.8321 1.35015C13.9703 1.18183 14.1598 1.06029 14.376 1.01714ZM11.7559 7.0523L11.754 7.05425L7.60456 12.1255L11.2276 13.6792L11.2286 13.6802C11.4484 13.7756 11.6205 13.9522 11.7237 14.1656C11.8266 14.3786 11.8586 14.622 11.8174 14.855L11.2452 18.1197L15.7979 12.5445L15.7989 12.5435L16.5909 11.5777L12.9727 10.0289L12.9708 10.0279C12.7511 9.93253 12.5788 9.75679 12.4757 9.54351C12.3727 9.33045 12.3407 9.08623 12.3819 8.85308L12.9542 5.5855L11.7559 7.0523Z" fill="white"/>
</svg>
