<svg width="24" height="24" viewBox="0 0 24 24" fill="none" xmlns="http://www.w3.org/2000/svg">
<path d="M8.29289 15.2929C8.68342 14.9024 9.31658 14.9024 9.70711 15.2929C10.2271 15.8129 11.0735 16.125 12 16.125C12.9265 16.125 13.7729 15.8129 14.2929 15.2929C14.6834 14.9024 15.3166 14.9024 15.7071 15.2929C16.0976 15.6834 16.0976 16.3166 15.7071 16.7071C14.7271 17.6871 13.3235 18 12 18C10.6765 18 9.27287 17.6871 8.29289 16.7071C7.90237 16.3166 7.90237 15.6834 8.29289 15.2929Z" fill="white"/>
<path d="M8.5 12C9.46827 12 10 11.0488 10 10C10 8.95124 9.46827 8 8.5 8C7.53173 8 7 8.95124 7 10C7 11.0488 7.53173 12 8.5 12Z" fill="white"/>
<path d="M15.5 12C16.4683 12 17 11.0488 17 10C17 8.95124 16.4683 8 15.5 8C14.5317 8 14 8.95124 14 10C14 11.0488 14.5317 12 15.5 12Z" fill="white"/>
<path fill-rule="evenodd" clip-rule="evenodd" d="M1 12C1 5.92487 5.92487 1 12 1C18.0751 1 23 5.92487 23 12C23 18.0751 18.0751 23 12 23C5.92487 23 1 18.0751 1 12ZM12 3C7.02944 3 3 7.02944 3 12C3 16.9706 7.02944 21 12 21C16.9706 21 21 16.9706 21 12C21 7.02944 16.9706 3 12 3Z" fill="white"/>
</svg>
