<svg width="24" height="24" viewBox="0 0 24 24" fill="none" xmlns="http://www.w3.org/2000/svg">
<path d="M2 12C2 6.47656 6.47656 2 12 2C17.5234 2 22 6.47656 22 12C22 17.5234 17.5234 22 12 22C6.47656 22 2 17.5234 2 12ZM12 18.875C14.9727 18.875 17.4766 16.9219 18.2188 14.2695C18.3711 13.7344 17.9297 13.25 17.375 13.25L6.625 13.25C6.07031 13.25 5.62969 13.7344 5.77969 14.2695C6.52344 16.9219 9.02734 18.875 12 18.875ZM8.89062 8.25C8.19922 8.25 7.64063 8.80859 7.64063 9.5C7.64063 10.1914 8.19922 10.75 8.89062 10.75C9.57812 10.75 10.1406 10.1914 10.1406 9.5C10.1406 8.80859 9.57812 8.25 8.89062 8.25ZM15.1406 10.75C15.8281 10.75 16.3906 10.1914 16.3906 9.5C16.3906 8.80859 15.8281 8.25 15.1406 8.25C14.4492 8.25 13.8906 8.80859 13.8906 9.5C13.8906 10.1914 14.4492 10.75 15.1406 10.75Z" fill="white"/>
</svg>
