<svg width="24" height="24" viewBox="0 0 24 24" fill="none" xmlns="http://www.w3.org/2000/svg">
<g clip-path="url(#clip0_11184_674)">
<path d="M12.5455 0C11.943 0 11.4546 0.488438 11.4546 1.09092V5.45456C11.4546 6.05705 11.943 6.54548 12.5455 6.54548C13.148 6.54548 13.6364 6.05705 13.6364 5.45456V1.09092C13.6364 0.488438 13.148 0 12.5455 0Z" fill="white"/>
<path opacity="0.5" d="M12.5455 17.4546C11.943 17.4546 11.4546 17.943 11.4546 18.5455V22.9091C11.4546 23.5116 11.943 24 12.5455 24C13.148 24 13.6364 23.5116 13.6364 22.9091V18.5455C13.6364 17.943 13.148 17.4546 12.5455 17.4546Z" fill="white"/>
<path opacity="0.8" d="M8.6886 6.60038L5.60301 3.5147C5.1771 3.08865 4.48635 3.08865 4.06026 3.5147C3.63421 3.94074 3.63421 4.63144 4.06026 5.05744L7.14585 8.14313C7.24703 8.24458 7.36726 8.32503 7.49963 8.37987C7.632 8.43471 7.7739 8.46285 7.91718 8.46268C8.06046 8.46286 8.20236 8.43472 8.33473 8.37989C8.46711 8.32505 8.58733 8.24459 8.68851 8.14313C9.11465 7.71709 9.11465 7.02643 8.6886 6.60038Z" fill="white"/>
<path opacity="0.5" d="M22.3637 10.9091H20.1819C19.5795 10.9091 19.091 11.3975 19.091 12C19.091 12.6025 19.5795 13.0909 20.1819 13.0909H22.3637C22.9662 13.0909 23.4547 12.6025 23.4547 12C23.4547 11.3975 22.9662 10.9091 22.3637 10.9091ZM17.9453 15.857C17.5193 15.431 16.8286 15.4311 16.4025 15.857C15.9765 16.2831 15.9766 16.9737 16.4025 17.3998L19.4882 20.4853C19.5894 20.5868 19.7096 20.6672 19.842 20.722C19.9744 20.7769 20.1163 20.805 20.2596 20.8048C20.4029 20.805 20.5448 20.7769 20.6772 20.722C20.8095 20.6672 20.9298 20.5868 21.0309 20.4853C21.457 20.0593 21.457 19.3686 21.0309 18.9426L17.9453 15.857Z" fill="white"/>
<path opacity="0.6" d="M7.09089 12C7.09089 11.3975 6.60246 10.9091 5.99997 10.9091H1.63633C1.03385 10.9091 0.54541 11.3975 0.54541 12C0.54541 12.6025 1.03385 13.0909 1.63633 13.0909H5.99997C6.60246 13.0909 7.09089 12.6025 7.09089 12Z" fill="white"/>
<path opacity="0.6" d="M8.68855 15.857C8.2626 15.431 7.5718 15.431 7.1458 15.857L4.06026 18.9426C3.63421 19.3685 3.63421 20.0593 4.06026 20.4853C4.16145 20.5868 4.2817 20.6672 4.41409 20.722C4.54647 20.7769 4.68839 20.805 4.83168 20.8048C4.97496 20.805 5.11687 20.7769 5.24924 20.7221C5.38161 20.6672 5.50184 20.5868 5.60301 20.4853L8.68855 17.3998C9.1146 16.9738 9.1146 16.2831 8.68855 15.857Z" fill="white"/>
</g>
<defs>
<clipPath id="clip0_11184_674">
<rect width="24" height="24" fill="white"/>
</clipPath>
</defs>
</svg>
