<svg width="24" height="24" viewBox="0 0 24 24" fill="none" xmlns="http://www.w3.org/2000/svg">
<path d="M21.673 17.1969C22.1377 17.4414 22.3216 18.0173 22.0433 18.4625C20.8824 20.3191 19.2125 21.8059 17.226 22.7373C14.9535 23.8027 12.3935 24.0821 9.94247 23.532C7.49146 22.9819 5.28625 21.6332 3.66845 19.6946C2.05066 17.7561 1.11057 15.336 0.993805 12.8092C0.877045 10.2824 1.59013 7.78998 3.02261 5.718C4.45508 3.64602 6.52699 2.11014 8.91738 1.34827C11.3078 0.586406 13.8832 0.641081 16.2448 1.50383C18.3098 2.25824 20.1105 3.5937 21.438 5.34216C21.7554 5.76016 21.6239 6.35028 21.183 6.63486C20.7383 6.9218 20.1487 6.78859 19.8213 6.37286C18.7264 4.98255 17.2666 3.91929 15.6 3.31045C13.6332 2.59193 11.4883 2.54639 9.49756 3.1809C7.50677 3.8154 5.78123 5.09452 4.58823 6.82012C3.39522 8.54572 2.80134 10.6215 2.89858 12.7259C2.99583 14.8302 3.77876 16.8458 5.12611 18.4602C6.47345 20.0747 8.31001 21.198 10.3513 21.6561C12.3925 22.1142 14.5246 21.8816 16.4172 20.9943C18.0189 20.2433 19.3734 19.0588 20.3354 17.5811C20.6252 17.1359 21.2029 16.9495 21.673 17.1969Z" fill="white"/>
</svg>
