<svg width="24" height="24" viewBox="0 0 24 24" fill="none" xmlns="http://www.w3.org/2000/svg">
<path d="M21.75 12C21.75 13.9284 21.1782 15.8134 20.1068 17.4168C19.0355 19.0202 17.5127 20.2699 15.7312 21.0078C13.9496 21.7458 11.9892 21.9389 10.0979 21.5627C8.20656 21.1865 6.46927 20.2579 5.10571 18.8943C3.74215 17.5307 2.81355 15.7934 2.43735 13.9021C2.06114 12.0108 2.25422 10.0504 2.99218 8.26884C3.73013 6.48726 4.97982 4.96451 6.58319 3.89317C8.18657 2.82183 10.0716 2.25 12 2.25V4.00751C10.4192 4.00751 8.87397 4.47626 7.55961 5.35448C6.24525 6.23271 5.22084 7.48097 4.6159 8.9414C4.01097 10.4018 3.85269 12.0089 4.16108 13.5593C4.46948 15.1097 5.23069 16.5338 6.34846 17.6515C7.46623 18.7693 8.89035 19.5305 10.4407 19.8389C11.9911 20.1473 13.5982 19.989 15.0586 19.3841C16.519 18.7792 17.7673 17.7548 18.6455 16.4404C19.5237 15.126 19.9925 13.5808 19.9925 12H21.75Z" fill="url(#paint0_linear_7795_2139)" fill-opacity="0.5"/>
<defs>
<linearGradient id="paint0_linear_7795_2139" x1="6" y1="5.625" x2="18" y2="2.25" gradientUnits="userSpaceOnUse">
<stop stop-color="white"/>
<stop offset="1" stop-color="white" stop-opacity="0"/>
</linearGradient>
</defs>
</svg>
