<svg width="24" height="24" viewBox="0 0 24 24" fill="none" xmlns="http://www.w3.org/2000/svg">
<path fill-rule="evenodd" clip-rule="evenodd" d="M5.05085 4.28792C4.65771 3.90003 4.02456 3.90427 3.63667 4.29741C3.24877 4.69055 3.25302 5.3237 3.64616 5.71159L5.38081 7.42311C5.14456 7.64446 4.92269 7.86783 4.71544 8.0889C3.90796 8.95021 3.29207 9.80771 2.87793 10.449C2.67024 10.7705 2.51165 11.0403 2.40361 11.2324C2.34955 11.3285 2.30803 11.4053 2.27923 11.4598C2.26483 11.487 2.2536 11.5086 2.24557 11.5242L2.23591 11.5431L2.23289 11.5491L2.23182 11.5512C2.23165 11.5516 2.23106 11.5527 3.12549 12L2.23106 11.5527C2.0903 11.8343 2.0903 12.1656 2.23106 12.4472L3.12549 12C2.23106 12.4472 2.23088 12.4468 2.23106 12.4472L2.23182 12.4487L2.23289 12.4508L2.23591 12.4568L2.24557 12.4757C2.2536 12.4913 2.26483 12.5129 2.27923 12.5402C2.30803 12.5946 2.34955 12.6714 2.40361 12.7675C2.51165 12.9596 2.67024 13.2294 2.87793 13.551C3.29207 14.1922 3.90796 15.0497 4.71544 15.911C6.31217 17.6142 8.77682 19.4542 12.0001 19.4542C13.6608 19.4542 15.1202 18.9657 16.3633 18.2591L18.9493 20.8107C19.3424 21.1985 19.9755 21.1943 20.3634 20.8012C20.7513 20.408 20.7471 19.7749 20.3539 19.387L5.05085 4.28792ZM14.8687 16.7845L13.2407 15.1782C12.8562 15.3283 12.4378 15.4108 12.0001 15.4108C10.1164 15.4108 8.58936 13.8837 8.58936 12C8.58936 11.5785 8.66581 11.1749 8.8056 10.8022L6.80557 8.82888C6.58475 9.03322 6.37431 9.24366 6.17451 9.45678C5.46929 10.209 4.92543 10.9651 4.55801 11.534C4.4442 11.7102 4.34794 11.8675 4.26966 12C4.34794 12.1324 4.4442 12.2897 4.55801 12.4659C4.92543 13.0348 5.46929 13.7909 6.17451 14.5431C7.60321 16.0671 9.57584 17.4542 12.0001 17.4542C13.0422 17.4542 14.0008 17.1979 14.8687 16.7845ZM11.9556 13.9103C10.9442 13.8872 10.127 13.0782 10.0906 12.0701L11.9556 13.9103Z" fill="white"/>
<path d="M11.1552 8.6947L12.7044 10.2232C13.1852 10.414 13.5703 10.7943 13.7673 11.272L15.3164 12.8005C15.3782 12.5437 15.4109 12.2757 15.4109 12C15.4109 10.1163 13.8838 8.58924 12.0001 8.58924C11.7085 8.58924 11.4254 8.62584 11.1552 8.6947Z" fill="white"/>
<path d="M17.8256 14.5431C17.7078 14.6688 17.5863 14.7935 17.4612 14.9166L18.8849 16.3213C19.0237 16.1844 19.1569 16.0472 19.2847 15.911C20.0922 15.0497 20.708 14.1922 21.1222 13.551C21.3299 13.2294 21.4885 12.9596 21.5965 12.7675C21.6506 12.6714 21.6921 12.5946 21.7209 12.5402C21.7353 12.5129 21.7465 12.4913 21.7545 12.4757L21.7642 12.4568L21.7672 12.4508L21.7683 12.4487C21.7685 12.4483 21.769 12.4472 20.8746 12L21.769 12.4472C21.9098 12.1656 21.9098 11.8343 21.769 11.5527L20.8746 12C21.769 11.5527 21.7692 11.5531 21.769 11.5527L21.7683 11.5512L21.7672 11.5491L21.7642 11.5431L21.7545 11.5242C21.7465 11.5086 21.7353 11.487 21.7209 11.4598C21.6921 11.4053 21.6506 11.3285 21.5965 11.2324C21.4885 11.0403 21.3299 10.7705 21.1222 10.449C20.708 9.80771 20.0922 8.95021 19.2847 8.0889C17.6879 6.38572 15.2233 4.54572 12.0001 4.54572C10.4876 4.54572 9.14213 4.95087 7.97501 5.55691L9.49301 7.05468C10.2634 6.73666 11.1006 6.54572 12.0001 6.54572C14.4243 6.54572 16.3969 7.93284 17.8256 9.45678C18.5308 10.209 19.0747 10.9651 19.4421 11.534C19.5559 11.7102 19.6522 11.8675 19.7304 12C19.6522 12.1324 19.5559 12.2897 19.4421 12.4659C19.0747 13.0348 18.5308 13.7909 17.8256 14.5431Z" fill="white"/>
</svg>
