<svg width="24" height="24" viewBox="0 0 24 24" fill="none" xmlns="http://www.w3.org/2000/svg">
<path d="M19.8474 5.83434C18.4108 7.29133 17.4861 9.24687 17.3421 11.4141H22C21.8769 9.31387 21.0768 7.38805 19.8474 5.83434ZM12.5859 2V11.4141H16.1703C16.3178 8.89758 17.3917 6.62621 19.0703 4.95164C17.3973 3.28273 15.0938 2.14699 12.5859 2ZM17.3422 12.5859C17.4861 14.7531 18.4109 16.7477 19.8475 18.2047C21.0768 16.651 21.8769 14.6861 22 12.5859H17.3422ZM4.92969 4.95164C6.60832 6.62621 7.68219 8.89758 7.82969 11.4141H11.4141V2C8.90617 2.14699 6.60266 3.28273 4.92969 4.95164ZM16.1703 12.5859H12.5859V22C15.0938 21.853 17.3973 20.7563 19.0703 19.0874C17.3917 17.4129 16.3178 15.1024 16.1703 12.5859ZM7.82969 12.5859C7.68219 15.1024 6.60832 17.4129 4.92969 19.0874C6.60266 20.7563 8.90617 21.853 11.4141 22V12.5859H7.82969ZM2 12.5859C2.12309 14.6861 2.92316 16.651 4.15258 18.2047C5.58918 16.7477 6.51391 14.7531 6.65785 12.5859H2ZM4.15254 5.83434C2.92316 7.38805 2.12309 9.31387 2 11.4141H6.65781C6.51391 9.24691 5.58914 7.29133 4.15254 5.83434Z" fill="white"/>
</svg>
