<svg width="24" height="24" viewBox="0 0 24 24" fill="none" xmlns="http://www.w3.org/2000/svg">
<path fill-rule="evenodd" clip-rule="evenodd" d="M12 4.17714L10.2448 7.39548C9.81333 8.18666 9.04903 8.74196 8.16323 8.90784L4.56003 9.58259L7.07847 12.2464C7.69759 12.9012 7.98953 13.7997 7.87356 14.6934L7.40184 18.3288L10.7135 16.7568C11.5276 16.3703 12.4724 16.3703 13.2865 16.7568L16.5981 18.3288L16.1264 14.6934C16.0105 13.7997 16.3024 12.9012 16.9215 12.2464L19.44 9.58259L15.8368 8.90784C14.951 8.74196 14.1867 8.18666 13.7552 7.39548L12 4.17714ZM12.8779 1.60977C12.4989 0.914827 11.5011 0.914827 11.1221 1.60977L8.48896 6.43789C8.34513 6.70162 8.09036 6.88672 7.7951 6.94201L2.38961 7.95427C1.61156 8.09997 1.30321 9.04899 1.84702 9.62419L5.62516 13.6204C5.83153 13.8387 5.92885 14.1382 5.89019 14.4361L5.18252 19.8898C5.08066 20.6748 5.88794 21.2613 6.60304 20.9219L11.5712 18.5635C11.8425 18.4347 12.1574 18.4347 12.4288 18.5635L17.397 20.9219C18.112 21.2613 18.9193 20.6748 18.8175 19.8898L18.1098 14.4361C18.0711 14.1382 18.1685 13.8387 18.3748 13.6204L22.153 9.62419C22.6968 9.04899 22.3884 8.09997 21.6104 7.95427L16.2049 6.94201C15.9096 6.88672 15.6549 6.70162 15.511 6.43789L12.8779 1.60977Z" fill="white"/>
</svg>
