<svg width="24" height="24" viewBox="0 0 24 24" fill="none" xmlns="http://www.w3.org/2000/svg">
<path d="M4.3501 10.65C4.3501 9.73873 5.08883 9 6.0001 9C6.91137 9 7.6501 9.73873 7.6501 10.65V18.35C7.6501 19.2613 6.91137 20 6.0001 20C5.08883 20 4.3501 19.2613 4.3501 18.35V10.65Z" fill="white"/>
<path d="M16.3501 13.65C16.3501 12.7387 17.0888 12 18.0001 12C18.9114 12 19.6501 12.7387 19.6501 13.65V18.35C19.6501 19.2613 18.9114 20 18.0001 20C17.0888 20 16.3501 19.2613 16.3501 18.35V13.65Z" fill="white"/>
<path d="M10.3501 5.65C10.3501 4.73873 11.0888 4 12.0001 4C12.9114 4 13.6501 4.73873 13.6501 5.65V18.3498C13.6501 19.2611 12.9114 19.9998 12.0001 19.9998C11.0888 19.9998 10.3501 19.2611 10.3501 18.3498V5.65Z" fill="white"/>
</svg>
