<svg width="24" height="24" viewBox="0 0 24 24" fill="none" xmlns="http://www.w3.org/2000/svg">
<path fill-rule="evenodd" clip-rule="evenodd" d="M12.8779 2.6098C12.4989 1.91486 11.5011 1.91486 11.1221 2.6098L8.48896 7.43792C8.34513 7.70165 8.09036 7.88675 7.7951 7.94204L2.38961 8.9543C1.61156 9.1 1.30321 10.049 1.84702 10.6242L5.62516 14.6204C5.83153 14.8387 5.92885 15.1382 5.89019 15.4361L5.18252 20.8898C5.08066 21.6748 5.88794 22.2614 6.60304 21.9219L11.5712 19.5636C11.8425 19.4348 12.1574 19.4348 12.4288 19.5636L17.397 21.9219C18.112 22.2614 18.9193 21.6748 18.8175 20.8898L18.1098 15.4361C18.0711 15.1382 18.1685 14.8387 18.3748 14.6204L22.153 10.6242C22.6968 10.049 22.3884 9.1 21.6104 8.9543L16.2049 7.94204C15.9096 7.88675 15.6549 7.70165 15.511 7.43792L12.8779 2.6098Z" fill="white"/>
</svg>
