<svg width="24" height="24" viewBox="0 0 24 24" fill="none" xmlns="http://www.w3.org/2000/svg">
<path fill-rule="evenodd" clip-rule="evenodd" d="M21.8443 13.7673C21.9466 13.1937 22 12.6031 22 12C22 11.3891 21.7196 10.8198 21.2877 10.3878L13.6123 2.71234C13.1803 2.28036 12.6109 2 12 2C11.7095 2 11.4219 2.01239 11.1376 2.03667C6.01854 2.47391 2 6.76763 2 12C2 17.5228 6.47714 22 12 22C16.9197 22 21.0098 18.4472 21.8443 13.7673ZM19.9996 11.9282L12.0718 4.00028C12.0251 4.3268 12 4.66058 12 5.00002C12 8.86602 15.134 12 19 12C19.3394 12 19.6732 11.9759 19.9997 11.9292L19.9996 11.9282ZM12 20C15.7389 20 18.8787 17.435 19.7559 13.9687C19.5067 13.9895 19.2546 14 19 14C14.0294 14 10 9.97059 10 5.00002C10 4.74541 10.0106 4.49326 10.0313 4.244C6.56498 5.12114 4 8.26102 4 12C4 16.4183 7.58171 20 12 20Z" fill="white"/>
</svg>
