<svg width="24" height="24" viewBox="0 0 24 24" fill="none" xmlns="http://www.w3.org/2000/svg">
<path d="M15.3192 15.3114C15.4482 15.6258 15.5127 15.9886 15.5127 16.3998C15.5127 16.9722 15.3635 17.468 15.0652 17.8873C14.775 18.3065 14.3477 18.629 13.7833 18.8548C13.219 19.0805 12.5296 19.1934 11.7153 19.1934C11.151 19.1934 10.6068 19.1289 10.0827 18.9999C9.56674 18.8628 9.10316 18.6532 8.69198 18.371C8.28887 18.0888 7.97041 17.7341 7.7366 17.3068C7.50279 16.8714 7.38589 16.3514 7.38589 15.7467H5.06395C5.06395 16.6255 5.25341 17.3995 5.63234 18.0687C6.01933 18.7298 6.53129 19.2861 7.16821 19.7376C7.81319 20.1891 8.5267 20.5277 9.30875 20.7534C10.0989 20.9792 10.9011 21.092 11.7153 21.092C12.6425 21.092 13.481 20.9832 14.2308 20.7655C14.9886 20.5398 15.6377 20.2213 16.1778 19.8101C16.718 19.399 17.1332 18.9031 17.4235 18.3226C17.7137 17.7422 17.8588 17.0931 17.8588 16.3756C17.8588 15.6903 17.7419 15.0776 17.5081 14.5374C17.4316 14.3515 17.3407 14.1726 17.2354 14.0007H20.2421C20.9785 14.0007 21.5755 13.4036 21.5755 12.6672C21.5755 11.9307 20.9785 11.3337 20.2421 11.3337H13.2749C12.9006 11.2026 12.5017 11.0773 12.0781 10.9577C11.3525 10.7562 10.7277 10.5466 10.2037 10.3289C9.68768 10.1112 9.26037 9.87335 8.92176 9.61536C8.5912 9.35737 8.3453 9.07922 8.18406 8.78091C8.03087 8.47454 7.95428 8.13593 7.95428 7.76506C7.95428 7.21683 8.08328 6.72906 8.34127 6.30176C8.60733 5.87445 9.01044 5.53584 9.55062 5.28591C10.0908 5.03597 10.7761 4.91101 11.6065 4.91101C12.4853 4.91101 13.2109 5.06016 13.7833 5.35847C14.3557 5.64871 14.783 6.05182 15.0652 6.56781C15.3474 7.07574 15.4885 7.66025 15.4885 8.32136H17.8104C17.8104 7.40226 17.5686 6.53959 17.0848 5.73336C16.6011 4.91907 15.8956 4.26199 14.9685 3.76213C14.0494 3.25421 12.9287 3.00024 11.6065 3.00024C10.7035 3.00024 9.8852 3.12118 9.15153 3.36305C8.41786 3.60492 7.78497 3.94353 7.25286 4.3789C6.72881 4.8062 6.3257 5.31009 6.04352 5.89058C5.76134 6.47106 5.62025 7.10395 5.62025 7.78925C5.62025 8.47454 5.75327 9.08325 6.01933 9.61536C6.28539 10.1475 6.66835 10.6191 7.16821 11.0303C7.29461 11.1343 7.42746 11.2354 7.56676 11.3337H4.33347C3.59701 11.3337 3 11.9307 3 12.6672C3 13.4036 3.59701 14.0007 4.33347 14.0007H14.005C14.2667 14.1432 14.4871 14.2899 14.6661 14.4406C14.9806 14.6986 15.1983 14.9889 15.3192 15.3114Z" fill="white"/>
</svg>
