<svg width="24" height="24" viewBox="0 0 24 24" fill="none" xmlns="http://www.w3.org/2000/svg">
<path d="M14.8238 5.53366C14.8803 5.92657 14.5532 6.25 14.1562 6.25C13.7593 6.25 13.4447 5.92505 13.3659 5.53601C13.2266 4.8489 12.888 4.21196 12.3849 3.70883C11.711 3.03488 10.7969 2.65625 9.84375 2.65625C8.89063 2.65625 7.97654 3.03488 7.30259 3.70883C6.79946 4.21196 6.46092 4.8489 6.32163 5.53601C6.24275 5.92505 5.9282 6.25 5.53125 6.25C5.1343 6.25 4.80722 5.92657 4.86374 5.53366C5.01757 4.46412 5.51307 3.46541 6.28612 2.69237C7.22966 1.74883 8.50938 1.21875 9.84375 1.21875C11.1781 1.21875 12.4578 1.74883 13.4014 2.69237C14.1744 3.46541 14.6699 4.46412 14.8238 5.53366Z" fill="white"/>
<path d="M18.4692 11.2812C18.0979 11.2826 17.7334 11.3817 17.4126 11.5688C17.2188 11.2614 16.9505 11.008 16.6326 10.8321C16.3147 10.6562 15.9575 10.5634 15.5942 10.5625C15.2229 10.5638 14.8584 10.663 14.5376 10.85C14.2761 10.4385 13.8829 10.1278 13.4221 9.96858C12.9613 9.80933 12.4602 9.81093 12.0004 9.97313V6.25C12.0004 5.67813 11.7733 5.12968 11.3689 4.7253C10.9645 4.32093 10.4161 4.09375 9.84419 4.09375C9.27232 4.09375 8.72387 4.32093 8.31949 4.7253C7.91512 5.12968 7.68794 5.67813 7.68794 6.25V14.2281L6.08513 13.1356C5.7177 12.862 5.27106 12.7156 4.81294 12.7188C4.38527 12.7177 3.96694 12.8438 3.61115 13.0811C3.25536 13.3185 2.97817 13.6562 2.81483 14.0515C2.65149 14.4467 2.60937 14.8816 2.69384 15.3009C2.77831 15.7201 2.98554 16.1048 3.28919 16.4059L9.03919 21.6528C9.85324 22.3814 10.9079 22.7833 12.0004 22.7812H15.5942C16.9286 22.7812 18.2083 22.2512 19.1518 21.3076C20.0954 20.3641 20.6254 19.0844 20.6254 17.75V13.4375C20.6254 12.8656 20.3983 12.3172 19.9939 11.9128C19.5895 11.5084 19.0411 11.2812 18.4692 11.2812ZM19.1879 17.75C19.1879 18.7031 18.8093 19.6172 18.1354 20.2912C17.4614 20.9651 16.5473 21.3438 15.5942 21.3438H12.0004C11.2739 21.3525 10.569 21.0971 10.0167 20.625L4.30263 15.3781C4.16984 15.2443 4.09498 15.0636 4.09419 14.875C4.09419 14.7415 4.13136 14.6107 4.20153 14.4971C4.27171 14.3836 4.37212 14.2918 4.49151 14.2321C4.61089 14.1724 4.74455 14.1472 4.87749 14.1592C5.01043 14.1711 5.13741 14.2199 5.24419 14.3L7.56021 15.8869C8.22384 16.3416 9.12544 15.8664 9.12544 15.062V6.25C9.12544 6.05938 9.20116 5.87656 9.33596 5.74177C9.47075 5.60698 9.65357 5.53125 9.84419 5.53125C10.0348 5.53125 10.2176 5.60698 10.3524 5.74177C10.4872 5.87656 10.5629 6.05938 10.5629 6.25V13.4375C10.5629 13.8345 10.8847 14.1562 11.2817 14.1562C11.6786 14.1562 12.0004 13.8345 12.0004 13.4375V12C12.0004 11.8094 12.0762 11.6266 12.211 11.4918C12.3457 11.357 12.5286 11.2812 12.7192 11.2812C12.9098 11.2812 13.0926 11.357 13.2274 11.4918C13.3622 11.6266 13.4379 11.8094 13.4379 12V13.4375C13.4379 13.8345 13.7597 14.1562 14.1567 14.1562C14.5536 14.1562 14.8754 13.8345 14.8754 13.4375V12.7188C14.8754 12.5281 14.9512 12.3453 15.086 12.2105C15.2207 12.0757 15.4036 12 15.5942 12C15.7848 12 15.9676 12.0757 16.1024 12.2105C16.2372 12.3453 16.3129 12.5281 16.3129 12.7188V13.4375C16.3129 13.8345 16.6347 14.1562 17.0317 14.1562C17.4286 14.1562 17.7504 13.8345 17.7504 13.4375C17.7504 13.2469 17.8262 13.0641 17.961 12.9293C18.0957 12.7945 18.2786 12.7188 18.4692 12.7188C18.6598 12.7188 18.8426 12.7945 18.9774 12.9293C19.1122 13.0641 19.1879 13.2469 19.1879 13.4375V17.75Z" fill="white"/>
</svg>
