<svg width="24" height="24" viewBox="0 0 24 24" fill="none" xmlns="http://www.w3.org/2000/svg">
<path fill-rule="evenodd" clip-rule="evenodd" d="M2 5C2 4.44772 2.44772 4 3 4H15C15.5523 4 16 4.44772 16 5C16 5.55228 15.5523 6 15 6H10V19C10 19.5523 9.55228 20 9 20C8.44772 20 8 19.5523 8 19V6H3C2.44772 6 2 5.55228 2 5ZM13 11C13 10.4477 13.4477 10 14 10H21C21.5523 10 22 10.4477 22 11C22 11.5523 21.5523 12 21 12H18.5V19C18.5 19.5523 18.0523 20 17.5 20C16.9477 20 16.5 19.5523 16.5 19V12H14C13.4477 12 13 11.5523 13 11Z" fill="white"/>
</svg>
