<svg width="24" height="24" viewBox="0 0 24 24" fill="none" xmlns="http://www.w3.org/2000/svg">
<path d="M4.42105 4C3.63623 4 3 4.67157 3 5.5C3 6.32843 3.63623 7 4.42105 7H7.73684V17.5C7.73684 18.3284 8.37307 19 9.1579 19C9.94272 19 10.5789 18.3284 10.5789 17.5V7H13.8947C14.6796 7 15.3158 6.32843 15.3158 5.5C15.3158 4.67157 14.6796 4 13.8947 4H4.42105ZM21 10.5C21 9.67157 20.3638 9 19.5789 9H13.8947C13.1099 9 12.4737 9.67157 12.4737 10.5C12.4737 11.3284 13.1099 12 13.8947 12H15.3158V17.5C15.3158 18.3284 15.952 19 16.7368 19C17.5217 19 18.1579 18.3284 18.1579 17.5V12H19.5789C20.3638 12 21 11.3284 21 10.5Z" fill="white"/>
</svg>
