<svg width="24" height="24" viewBox="0 0 24 24" fill="none" xmlns="http://www.w3.org/2000/svg">
<path d="M12 1C12.5523 1 13 1.44772 13 2V4C13 4.55228 12.5523 5 12 5C11.4477 5 11 4.55228 11 4V2C11 1.44772 11.4477 1 12 1Z" fill="white"/>
<path fill-rule="evenodd" clip-rule="evenodd" d="M8.46447 15.5355C9.40215 16.4732 10.6739 17 12 17C13.3261 17 14.5979 16.4732 15.5355 15.5355C16.4732 14.5979 17 13.3261 17 12C17 10.6739 16.4732 9.40215 15.5355 8.46447C14.5979 7.52678 13.3261 7 12 7C10.6739 7 9.40215 7.52678 8.46447 8.46447C7.52678 9.40215 7 10.6739 7 12C7 13.3261 7.52678 14.5979 8.46447 15.5355ZM9.87868 14.1213C10.4413 14.6839 11.2044 15 12 15C12.7956 15 13.5587 14.6839 14.1213 14.1213C14.6839 13.5587 15 12.7956 15 12C15 11.2044 14.6839 10.4413 14.1213 9.87868C13.5587 9.31607 12.7956 9 12 9C11.2044 9 10.4413 9.31607 9.87868 9.87868C9.31607 10.4413 9 11.2044 9 12C9 12.7956 9.31607 13.5587 9.87868 14.1213Z" fill="white"/>
<path d="M13 20C13 19.4477 12.5523 19 12 19C11.4477 19 11 19.4477 11 20V22C11 22.5523 11.4477 23 12 23C12.5523 23 13 22.5523 13 22V20Z" fill="white"/>
<path d="M19 12C19 11.4477 19.4477 11 20 11H22C22.5523 11 23 11.4477 23 12C23 12.5523 22.5523 13 22 13H20C19.4477 13 19 12.5523 19 12Z" fill="white"/>
<path d="M2 11C1.44772 11 1 11.4477 1 12C1 12.5523 1.44772 13 2 13H4C4.55228 13 5 12.5523 5 12C5 11.4477 4.55228 11 4 11H2Z" fill="white"/>
<path d="M4.70711 4.70711C5.09763 4.31658 5.7308 4.31658 6.12132 4.70711L7.53553 6.12132C7.92606 6.51185 7.92606 7.14501 7.53553 7.53554C7.14501 7.92606 6.51184 7.92606 6.12132 7.53554L4.70711 6.12132C4.31658 5.7308 4.31658 5.09763 4.70711 4.70711Z" fill="white"/>
<path d="M4.70711 18.1213C4.31658 18.5118 4.31658 19.145 4.70711 19.5355C5.09763 19.9261 5.7308 19.9261 6.12132 19.5355L7.53554 18.1213C7.92606 17.7308 7.92606 17.0976 7.53554 16.7071C7.14501 16.3166 6.51185 16.3166 6.12132 16.7071L4.70711 18.1213Z" fill="white"/>
<path d="M19.5355 4.70711C19.9261 5.09763 19.9261 5.7308 19.5355 6.12132L18.1213 7.53553C17.7308 7.92606 17.0976 7.92606 16.7071 7.53553C16.3166 7.14501 16.3166 6.51184 16.7071 6.12132L18.1213 4.70711C18.5118 4.31658 19.145 4.31658 19.5355 4.70711Z" fill="white"/>
<path d="M18.1213 19.5355C18.5118 19.9261 19.145 19.9261 19.5355 19.5355C19.9261 19.145 19.9261 18.5118 19.5355 18.1213L18.1213 16.7071C17.7308 16.3166 17.0976 16.3166 16.7071 16.7071C16.3166 17.0976 16.3166 17.7308 16.7071 18.1213L18.1213 19.5355Z" fill="white"/>
</svg>
