<svg width="24" height="24" viewBox="0 0 24 24" fill="none" xmlns="http://www.w3.org/2000/svg">
<path fill-rule="evenodd" clip-rule="evenodd" d="M6.16886 2.27734C3.73055 2.27734 1.75391 4.25399 1.75391 6.6923V11.0775C1.75391 13.5158 3.73055 15.4924 6.16887 15.4924H6.17148V17.4157C6.17148 18.4204 7.35371 18.9584 8.11123 18.2985L11.3325 15.4924H13.2228C15.6611 15.4924 17.6377 13.5158 17.6377 11.0775V6.6923C17.6377 4.25398 15.6611 2.27734 13.2228 2.27734H6.16886ZM3.75391 6.6923C3.75391 5.35856 4.83512 4.27734 6.16886 4.27734H13.2228C14.5565 4.27734 15.6377 5.35856 15.6377 6.6923V11.0775C15.6377 12.4112 14.5565 13.4924 13.2228 13.4924H10.5835L8.17148 15.5936V13.4924H6.16887C4.83512 13.4924 3.75391 12.4112 3.75391 11.0775V6.6923Z" fill="white"/>
<path d="M20.5381 10.2916C20.5381 9.32759 19.7566 8.54614 18.7927 8.54614V6.54614C20.8612 6.54614 22.5381 8.22302 22.5381 10.2916V14.5663C22.5381 16.9906 20.5832 18.9614 18.159 18.9811L17.8317 18.9838V20.8426C17.8317 21.8339 16.6766 22.3765 15.9136 21.7438L12.549 18.9536H10.9211V16.9536H13.2703L15.8317 19.0776V17L18.1428 16.9812C19.4688 16.9704 20.5381 15.8924 20.5381 14.5663V10.2916Z" fill="white"/>
</svg>
