<svg width="24" height="24" viewBox="0 0 24 24" fill="none" xmlns="http://www.w3.org/2000/svg">
<path fill-rule="evenodd" clip-rule="evenodd" d="M12 6.27273C8.83691 6.27273 6.27273 8.83691 6.27273 12C6.27273 15.1631 8.83691 17.7273 12 17.7273C15.1631 17.7273 17.7273 15.1631 17.7273 12C17.7273 8.83691 15.1631 6.27273 12 6.27273ZM5 12C5 8.13401 8.13401 5 12 5C15.866 5 19 8.13401 19 12C19 15.866 15.866 19 12 19C8.13401 19 5 15.866 5 12Z" fill="white"/>
<path fill-rule="evenodd" clip-rule="evenodd" d="M12 8.18182C12.3515 8.18182 12.6364 8.46673 12.6364 8.81818V12.2431L14.83 13.3399C15.1444 13.4971 15.2718 13.8793 15.1146 14.1937C14.9575 14.508 14.5752 14.6354 14.2609 14.4783L11.7154 13.2055C11.4998 13.0977 11.3636 12.8774 11.3636 12.6364V8.81818C11.3636 8.46673 11.6485 8.18182 12 8.18182Z" fill="white"/>
</svg>
