<svg width="24" height="24" viewBox="0 0 24 24" fill="none" xmlns="http://www.w3.org/2000/svg">
<path d="M12 8.3663C11.4477 8.3663 11 8.81402 11 9.3663V13.3663C11 13.9186 11.4477 14.3663 12 14.3663C12.5523 14.3663 13 13.9186 13 13.3663V9.3663C13 8.81402 12.5523 8.3663 12 8.3663Z" fill="white"/>
<path fill-rule="evenodd" clip-rule="evenodd" d="M10.9913 4.47298C6.49552 4.97439 3 8.78753 3 13.4171C3 18.3876 7.02944 22.4171 12 22.4171C16.9706 22.4171 21 18.3876 21 13.4171C21 10.8598 19.9334 8.55163 18.2209 6.91314L18.8064 6.19045C19.1541 5.76135 19.0881 5.13164 18.659 4.78394C18.2299 4.43625 17.6002 4.50224 17.2525 4.93134L16.631 5.69839C15.5519 5.04957 14.3256 4.62064 13.014 4.47357C13.0819 4.1384 13.3187 3.85548 13.6483 3.734L14.3629 3.47055C14.7457 3.32945 15 2.96473 15 2.55677C15 2.01891 14.564 1.58289 14.0261 1.58289H9.9735C9.43585 1.58289 9 2.01874 9 2.55639C9 2.96451 9.25456 3.3293 9.63762 3.47012L10.3564 3.73435C10.686 3.8555 10.923 4.13806 10.9913 4.47298ZM19 13.4171C19 17.2831 15.866 20.4171 12 20.4171C8.13401 20.4171 5 17.2831 5 13.4171C5 9.55109 8.13401 6.41708 12 6.41708C15.866 6.41708 19 9.55109 19 13.4171Z" fill="white"/>
</svg>
