<svg width="24" height="24" viewBox="0 0 24 24" fill="none" xmlns="http://www.w3.org/2000/svg">
<path fill-rule="evenodd" clip-rule="evenodd" d="M12 22.0229C17.5228 22.0229 22 17.5458 22 12.0229C22 6.5001 17.5228 2.02295 12 2.02295C6.47715 2.02295 2 6.5001 2 12.0229C2 17.5458 6.47715 22.0229 12 22.0229ZM12 20.0229C16.4183 20.0229 20 16.4412 20 12.0229C20 7.60467 16.4183 4.02295 12 4.02295C7.58172 4.02295 4 7.60467 4 12.0229C4 16.4412 7.58172 20.0229 12 20.0229Z" fill="white"/>
<path d="M12 6.02295C10.5712 6.02295 9.18926 6.53284 8.10287 7.46089C7.01648 8.38894 6.29693 9.67422 6.07369 11.0855C5.85045 12.4968 6.13816 13.9414 6.88507 15.1594C7.63198 16.3775 8.78905 17.289 10.1481 17.73C11.5072 18.171 12.979 18.1125 14.2988 17.5651C15.6186 17.0177 16.6997 16.0172 17.3476 14.7438C17.9956 13.4703 18.1678 12.0074 17.8333 10.6183C17.4988 9.2292 16.6795 8.00505 15.5229 7.16611L12 12.0229V6.02295Z" fill="white"/>
</svg>
