<svg width="24" height="24" viewBox="0 0 24 24" fill="none" xmlns="http://www.w3.org/2000/svg">
<path fill-rule="evenodd" clip-rule="evenodd" d="M12.9571 18.9138C12.6822 19.0277 12.3729 19.0288 12.0972 18.9168C11.8216 18.8049 11.6021 18.5892 11.4872 18.3171C11.3722 18.045 11.371 17.7388 11.4841 17.4659L16.3616 5.69022C16.4462 5.48607 16.5902 5.31144 16.7753 5.18853C16.9604 5.06563 17.1782 5 17.4011 5C17.6239 5 17.8417 5.06563 18.0268 5.18853C18.2119 5.31144 18.3559 5.48607 18.4405 5.69022L23.318 17.466C23.4295 17.7386 23.4273 18.0438 23.3121 18.3149C23.1968 18.5859 22.9778 18.8007 22.7029 18.9123C22.4281 19.0239 22.1198 19.0232 21.8455 18.9103C21.5712 18.7974 21.3532 18.5816 21.2392 18.31L19.8522 14.9614H14.9499L13.5629 18.3098C13.4498 18.5827 13.2319 18.8 12.9571 18.9138ZM18.9308 12.737L17.4011 9.04365L15.8713 12.737H18.9308ZM6.30812 6.44107C5.99943 6.12497 5.49294 6.11895 5.17683 6.42764C4.86072 6.73632 4.8547 7.24282 5.16339 7.55893L7.74246 10.2H1.4001C0.95827 10.2 0.600098 10.5582 0.600098 11C0.600098 11.4418 0.95827 11.8 1.4001 11.8H7.74246L5.16339 14.4411C4.8547 14.7572 4.86072 15.2637 5.17683 15.5724C5.49294 15.8811 5.99943 15.875 6.30812 15.5589L10.2142 11.5589C10.5177 11.2481 10.5177 10.7519 10.2142 10.4411L6.30812 6.44107Z" fill="white"/>
</svg>
