<svg width="24" height="24" viewBox="0 0 24 24" fill="none" xmlns="http://www.w3.org/2000/svg">
<path fill-rule="evenodd" clip-rule="evenodd" d="M11.1875 1.17287C11.7046 0.943029 12.2954 0.943029 12.8125 1.17287L19.8125 4.28322C20.5347 4.60424 21 5.32099 21 6.11134V9.0215C20.3945 8.63386 19.7203 8.344 19 8.17384V6.76173C19 6.36659 18.7673 6.0082 18.4062 5.84767L12.4062 3.18165C12.1478 3.06681 11.8522 3.06681 11.5938 3.18165L5.59375 5.84767C5.23271 6.0082 5 6.36659 5 6.76173V10.8115C5.00007 15.1101 7.69524 19.3398 11.417 20.7861C11.7916 20.9317 12.2084 20.9317 12.583 20.7861C13.102 20.5845 13.6006 20.328 14.0752 20.0254C14.7336 20.4343 15.4713 20.7295 16.2588 20.8818C15.1342 21.8129 13.8546 22.5236 12.4717 22.9317C12.3178 22.9771 12.1588 23 12 23C11.8412 23 11.6822 22.9771 11.5283 22.9317C6.6078 21.4796 3.00007 16.191 3 10.8115V6.11134C3 5.32099 3.46529 4.60424 4.1875 4.28322L11.1875 1.17287ZM17.3643 10.1817C17.6906 9.85551 18.2196 9.85539 18.5459 10.1817L22.6816 14.3184L18.5459 18.4541C18.2196 18.7804 17.6906 18.7804 17.3643 18.4541C17.0379 18.1278 17.0379 17.5988 17.3643 17.2725L19.4824 15.1533H11.7188C11.2574 15.1533 10.883 14.7797 10.8828 14.3184C10.8828 13.8569 11.2572 13.4824 11.7188 13.4824H19.4824L17.3643 11.3633C17.0379 11.037 17.0379 10.508 17.3643 10.1817Z" fill="white"/>
</svg>
