<svg width="24" height="24" viewBox="0 0 24 24" fill="none" xmlns="http://www.w3.org/2000/svg">
<path d="M19.0392 19.3858H5.15686C4.51733 19.3858 4 19.9092 4 20.5563C4 21.2033 4.51733 21.7267 5.15686 21.7267H19.0392C19.6787 21.7267 20.196 21.2033 20.196 20.5563C20.196 19.9092 19.6791 19.3858 19.0392 19.3858ZM5.73529 5.3412H6.31372V11.1933C6.31372 14.42 8.9087 17.0125 12.098 17.0125C15.2873 17.0125 17.8823 14.3871 17.8823 11.1933V5.3412H18.4607C19.1003 5.3412 19.6176 4.81744 19.6176 4.17078C19.6176 3.52413 19.1003 3.03328 18.4607 3.03328L14.9902 3.0331C14.3506 3.0331 13.8333 3.55686 13.8333 4.20352C13.8333 4.85017 14.3506 5.37393 14.9902 5.37393H15.5686V11.226C15.5686 13.1623 14.0119 14.7044 12.098 14.7044C10.1841 14.7044 8.62744 13.0985 8.62744 11.1929V5.34083H9.20587C9.8454 5.34083 10.3627 4.81744 10.3627 4.17042C10.3627 3.5234 9.8454 3 9.20587 3L5.73529 3.00018C5.09576 3.00018 4.57843 3.52358 4.57843 4.13768C4.57843 4.75179 5.09576 5.3412 5.73529 5.3412Z" fill="white"/>
</svg>
