<svg width="24" height="24" viewBox="0 0 24 24" fill="none" xmlns="http://www.w3.org/2000/svg">
<path d="M19.703 11.0383C19.3069 11.4419 18.6648 11.4419 18.2688 11.0384L17.1975 12.13C16.6401 11.9586 16.049 11.8664 15.4367 11.8664C15.1248 11.8664 14.7992 11.9539 14.4999 12L16.8346 9.57681L13.5462 6.22571L9.99988 10H6.99988L6.25227 10.7357L10.8042 15.3744C10.7077 15.8131 10.6567 16.2693 10.6567 16.7376C10.6567 17.2997 10.7301 17.8444 10.8677 18.3621L8.31668 15.7927L4.7312 19.4465C4.33517 19.8501 3.69306 19.8501 3.29703 19.4465C2.90099 19.043 2.90099 18.3886 3.29703 17.985L6.88251 14.3312L4.45955 11.8318C3.8655 11.2264 3.8655 10.2449 4.45955 9.63952L5.38667 8.69472C5.67195 8.40401 6.59644 8 6.99988 8H8.99988L12.112 4.76419C11.716 4.3606 11.716 3.70627 12.112 3.30269C12.5081 2.8991 13.1502 2.8991 13.5462 3.30269L19.703 9.57682C20.099 9.98041 20.099 10.6348 19.703 11.0383Z" fill="white"/>
<path d="M12.5321 13.8512C12.136 14.2548 12.136 14.9091 12.5321 15.3127L13.9662 16.7743L12.5321 18.2358C12.136 18.6394 12.136 19.2937 12.5321 19.6973C12.9281 20.1009 13.5702 20.1009 13.9662 19.6973L15.4004 18.2358L16.8346 19.6973C17.2306 20.1009 17.8727 20.1009 18.2688 19.6973C18.6648 19.2937 18.6648 18.6394 18.2688 18.2358L16.8346 16.7743L18.2688 15.3127C18.6648 14.9092 18.6648 14.2548 18.2688 13.8512C17.8727 13.4476 17.2306 13.4476 16.8346 13.8512L15.4004 15.3127L13.9662 13.8512C13.5702 13.4476 12.9281 13.4476 12.5321 13.8512Z" fill="white"/>
</svg>
