<svg width="24" height="24" viewBox="0 0 24 24" fill="none" xmlns="http://www.w3.org/2000/svg">
<path d="M21.7067 10.5375C21.3155 10.9173 20.6814 10.9173 20.2903 10.5375L18.5177 12.2588C17.9672 12.0975 17.3834 12.0107 16.7787 12.0107C16.4706 12.0107 16.168 12.0333 15.8724 12.0767L18.8738 9.16205L14.6246 5.03573L9 11H6L5.41793 11.2252L10.9151 16.5634C10.8197 16.9762 10.7694 17.4055 10.7694 17.8462C10.7694 18.3753 10.8419 18.8878 10.9777 19.3751L8.25081 16.7271L4.70976 20.1657C4.31862 20.5455 3.68448 20.5455 3.29335 20.1657C2.90222 19.7859 2.90222 19.1701 3.29335 18.7903L6.83441 15.3516L3.64742 12.2568C3.06073 11.6871 3.06073 10.7634 3.64742 10.1936L4.56306 9.3045C4.8448 9.0309 5.10156 9 5.5 9H8L13.2082 3.66029C12.8171 3.28047 12.8171 2.66468 13.2082 2.28486C13.5993 1.90505 14.2335 1.90505 14.6246 2.28486L21.7066 9.16206C22.0978 9.54188 22.0978 10.1577 21.7067 10.5375Z" fill="white"/>
<path d="M14.0674 15.2134C13.6763 15.5932 13.6763 16.209 14.0674 16.5888L15.4838 17.9642L14.0674 19.3397C13.6763 19.7195 13.6763 20.3353 14.0674 20.7151C14.4585 21.095 15.0927 21.095 15.4838 20.7151L16.9002 19.3397L18.3166 20.7151C18.7078 21.095 19.3419 21.0949 19.733 20.7151C20.1242 20.3353 20.1242 19.7195 19.733 19.3397L18.3166 17.9642L19.733 16.5888C20.1242 16.209 20.1242 15.5932 19.733 15.2134C19.3419 14.8335 18.7077 14.8335 18.3166 15.2134L16.9002 16.5888L15.4838 15.2134C15.0927 14.8335 14.4585 14.8335 14.0674 15.2134Z" fill="white"/>
</svg>
