<svg width="24" height="24" viewBox="0 0 24 24" fill="none" xmlns="http://www.w3.org/2000/svg">
<path fill-rule="evenodd" clip-rule="evenodd" d="M16.0005 19C19.8664 19 23 15.866 23 12V7.99948C23 4.13349 19.8673 1 16.0013 1H7.99998C4.13399 1 1 4.13401 1 8V12C1 15.866 3 19 7 19V22C7 22.8134 7.91937 23.2865 8.58124 22.8137L14 19H16.0005ZM11 6V11C11 11.5523 11.4477 12 12 12C12.5523 12 13 11.5523 13 11V6C13 5.44772 12.5523 5 12 5C11.4477 5 11 5.44772 11 6ZM12 15C12.5523 15 13 14.5523 13 14C13 13.4477 12.5523 13 12 13C11.4477 13 11 13.4477 11 14C11 14.5523 11.4477 15 12 15Z" fill="white"/>
</svg>
