<svg width="24" height="24" viewBox="0 0 24 24" fill="none" xmlns="http://www.w3.org/2000/svg">
<path fill-rule="evenodd" clip-rule="evenodd" d="M15.9999 7C15.9999 9.76142 13.7613 12 10.9999 12C8.23845 12 5.99988 9.76142 5.99988 7C5.99988 4.23858 8.23845 2 10.9999 2C13.7613 2 15.9999 4.23858 15.9999 7ZM13.9999 7C13.9999 8.65685 12.6567 10 10.9999 10C9.34302 10 7.99988 8.65685 7.99988 7C7.99988 5.34315 9.34302 4 10.9999 4C12.6567 4 13.9999 5.34315 13.9999 7Z" fill="white"/>
<path d="M10.9999 12C11.8183 12 12.5666 12.1145 13.2497 12.3161C12.6549 12.7929 12.153 13.3807 11.7751 14.048C11.526 14.0165 11.2676 14 10.9998 14C8.0465 14 6.24458 16.0036 5.16116 18.0466C4.9068 18.5262 4.97691 18.9726 5.23582 19.328C5.51058 19.7052 6.02308 20 6.66425 20H11.8026C12.267 20.8028 12.912 21.488 13.6821 22H6.66425C5.41064 22 4.28601 21.4209 3.61926 20.5056C2.93666 19.5685 2.76088 18.3039 3.39424 17.1096C4.61536 14.8069 6.94686 12 10.9999 12Z" fill="white"/>
<path d="M14.9999 14C14.9999 12.3431 16.343 11 17.9999 11H18.0999C19.7015 11 20.9999 12.2984 20.9999 13.9H18.9999C18.9999 13.4029 18.5969 13 18.0999 13H17.9999C17.4476 13 16.9999 13.4477 16.9999 14V16H20.4999C21.3283 16 21.9999 16.6716 21.9999 17.5V19.5C21.9999 20.3284 21.3283 21 20.4999 21H15.4999C14.6715 21 13.9999 20.3284 13.9999 19.5V17.5C13.9999 16.8469 14.4173 16.2913 14.9999 16.0854V14Z" fill="white"/>
</svg>
