<svg width="24" height="24" viewBox="0 0 24 24" fill="none" xmlns="http://www.w3.org/2000/svg">
<path d="M20.9999 8.5C20.9999 10.433 19.4329 12 17.4999 12C15.5669 12 13.9999 10.433 13.9999 8.5C13.9999 6.567 15.5669 5 17.4999 5C19.4329 5 20.9999 6.567 20.9999 8.5Z" fill="white"/>
<path d="M4.22243 21H12.7774C14.5186 21 15.8775 19.5004 15.2404 17.8799C14.3577 15.6345 12.4751 13 8.49991 13C4.52472 13 2.64207 15.6345 1.7594 17.8799C1.12235 19.5004 2.48119 21 4.22243 21Z" fill="white"/>
<path d="M17.1449 20.7075C17.0802 20.8421 17.177 21 17.3264 21H19.7825C20.9349 21 22.0088 20.4971 22.6751 19.6726C23.3652 18.8188 23.5966 17.6296 23.0089 16.4721C22.1504 14.7813 20.4915 13 17.4999 13C16.305 13 15.7412 13.2369 15.3113 13.3973C15.171 13.4496 15.1185 13.6333 15.2176 13.7457C16.1757 14.8332 17.0907 15.9591 17.4999 17C18.0373 18.367 17.6941 19.563 17.1449 20.7075Z" fill="white"/>
<path d="M12.9999 6.5C12.9999 8.98528 10.9852 11 8.49991 11C6.01463 11 3.99991 8.98528 3.99991 6.5C3.99991 4.01472 6.01463 2 8.49991 2C10.9852 2 12.9999 4.01472 12.9999 6.5Z" fill="white"/>
</svg>
