<svg width="24" height="24" viewBox="0 0 24 24" fill="none" xmlns="http://www.w3.org/2000/svg">
<path fill-rule="evenodd" clip-rule="evenodd" d="M15.9999 7C15.9999 9.76142 13.7613 12 10.9999 12C8.23845 12 5.99988 9.76142 5.99988 7C5.99988 4.23858 8.23845 2 10.9999 2C13.7613 2 15.9999 4.23858 15.9999 7ZM13.9999 7C13.9999 8.65685 12.6567 10 10.9999 10C9.34302 10 7.99988 8.65685 7.99988 7C7.99988 5.34315 9.34302 4 10.9999 4C12.6567 4 13.9999 5.34315 13.9999 7Z" fill="white"/>
<path d="M10.9999 12C11.8183 12 12.5666 12.1145 13.2497 12.3161C12.6549 12.7929 12.153 13.3807 11.7751 14.048C11.526 14.0165 11.2676 14 10.9998 14C8.0465 14 6.24458 16.0036 5.16116 18.0466C4.9068 18.5262 4.97691 18.9726 5.23582 19.328C5.51058 19.7052 6.02308 20 6.66425 20H11.8026C12.267 20.8028 12.912 21.488 13.6821 22H6.66425C5.41064 22 4.28601 21.4209 3.61926 20.5056C2.93666 19.5685 2.76088 18.3039 3.39424 17.1096C4.61536 14.8069 6.94686 12 10.9999 12Z" fill="white"/>
<path d="M14.2928 15.7071C13.9022 15.3166 13.9023 14.6834 14.2928 14.2929C14.6833 13.9024 15.3165 13.9024 15.707 14.2929L17.1212 15.7071L18.5354 14.2929C18.9259 13.9024 19.5591 13.9024 19.9496 14.2929C20.3402 14.6834 20.3402 15.3166 19.9496 15.7071L18.5354 17.1213L19.9496 18.5355C20.3402 18.9261 20.3402 19.5592 19.9496 19.9498C19.5591 20.3403 18.926 20.3403 18.5354 19.9498L17.1212 18.5355L15.707 19.9498C15.3165 20.3403 14.6833 20.3403 14.2928 19.9498C13.9022 19.5592 13.9022 18.9261 14.2928 18.5355L15.707 17.1213L14.2928 15.7071Z" fill="white"/>
</svg>
