<svg width="24" height="24" viewBox="0 0 24 24" fill="none" xmlns="http://www.w3.org/2000/svg">
<path d="M16 7C16 5.34315 14.6569 4 13 4C11.3431 4 10 5.34315 10 7C10 8.65685 11.3431 10 13 10C14.6569 10 16 8.65685 16 7ZM18 7C18 9.76142 15.7614 12 13 12C10.2386 12 8 9.76142 8 7C8 4.23858 10.2386 2 13 2C15.7614 2 18 4.23858 18 7Z" fill="white"/>
<path d="M4 21V19C4 16.2386 6.23858 14 9 14H13C13.5523 14 14 14.4477 14 15C14 15.5523 13.5523 16 13 16H9C7.34315 16 6 17.3431 6 19V21C6 21.5523 5.55228 22 5 22C4.44772 22 4 21.5523 4 21Z" fill="white"/>
<path fill-rule="evenodd" clip-rule="evenodd" d="M18.586 15.2284C18.0851 14.7512 17 15.0243 17 16.0243V16.5243C15.4055 16.7959 14.4598 17.1847 13.6239 18.095C12.7452 19.0519 12.2515 20.2382 12.0063 21.406C11.9765 21.5481 12.0544 21.6909 12.1932 21.7487C12.3321 21.8066 12.4943 21.7638 12.5826 21.646C13.6453 20.2283 14.8816 19.5871 17 19.5243V20.0243C17 21.0243 18.0899 20.9306 18.586 20.458L20.7664 18.3804C21.0779 18.0836 21.0779 17.6028 20.7664 17.306L18.586 15.2284Z" fill="white"/>
</svg>
