<svg width="24" height="24" viewBox="0 0 24 24" fill="none" xmlns="http://www.w3.org/2000/svg">
<path d="M12 4C14.0999 4 15.8202 5.61833 15.9854 7.67578L19.2139 5.73926L19.3711 5.65234C21.0103 4.81544 22.9998 6.00038 23 7.88281V16.1172C22.9998 18.0602 20.8801 19.2603 19.2139 18.2607L15.9854 16.3232C15.8207 18.3812 14.1003 20 12 20H4C1.79086 20 0 18.2091 0 16V8C1.28853e-07 5.79086 1.79086 4 4 4H12ZM4 6C2.89543 6 2 6.89543 2 8V16C2 17.1046 2.89543 18 4 18H12C13.1046 18 14 17.1046 14 16V8C14 6.89543 13.1046 6 12 6H4ZM21 7.88281C20.9998 7.49449 20.5763 7.25464 20.2432 7.4541L16 10V14L20.2432 16.5459C20.5557 16.733 20.9476 16.5335 20.9951 16.1875L21 16.1172V7.88281Z" fill="white"/>
</svg>
