<svg width="24" height="24" viewBox="0 0 24 24" fill="none" xmlns="http://www.w3.org/2000/svg">
<path d="M11.2414 4.60339H4.43379C2.53736 4.60339 1 6.14076 1 8.03719V15.9627C1 17.8591 2.53736 19.3965 4.4338 19.3965H11.2414C13.1268 19.3965 14.6552 17.8681 14.6552 15.9827V8.0172C14.6552 6.1318 13.1268 4.60339 11.2414 4.60339Z" fill="white"/>
<path d="M17.4143 7.81997L20.3521 6.32168C21.5635 5.70388 23 6.5838 23 7.94362V16.0563C23 17.4161 21.5635 18.296 20.3521 17.6782L17.4143 16.1799C16.6522 15.7913 16.1724 15.008 16.1724 14.1525V9.8474C16.1724 8.99189 16.6522 8.20865 17.4143 7.81997Z" fill="white"/>
</svg>
