<svg width="24" height="24" viewBox="0 0 24 24" fill="none" xmlns="http://www.w3.org/2000/svg">
<path d="M17 21.25V23H7V21.25H17ZM21.25 17V7C21.25 4.65279 19.3472 2.75 17 2.75H7C4.65279 2.75 2.75 4.65279 2.75 7V17C2.75 19.3472 4.65279 21.25 7 21.25V23L6.69141 22.9922C3.52111 22.8316 1 20.2102 1 17V7C1 3.68629 3.68629 1 7 1H17C20.3137 1 23 3.68629 23 7V17C23 20.3137 20.3137 23 17 23V21.25C19.3472 21.25 21.25 19.3472 21.25 17Z" fill="white"/>
<path d="M15.25 12C15.25 10.2051 13.7949 8.75 12 8.75C10.2051 8.75 8.75 10.2051 8.75 12C8.75 13.7949 10.2051 15.25 12 15.25V17C9.23858 17 7 14.7614 7 12C7 9.23858 9.23858 7 12 7C14.7614 7 17 9.23858 17 12C17 14.7614 14.7614 17 12 17V15.25C13.7949 15.25 15.25 13.7949 15.25 12Z" fill="white"/>
</svg>
