<svg width="24" height="24" viewBox="0 0 24 24" fill="none" xmlns="http://www.w3.org/2000/svg">
<path d="M2.90706 2.79283C2.51653 2.40231 1.88337 2.40231 1.49284 2.79283C1.10232 3.18336 1.10232 3.81652 1.49284 4.20705L2.49114 5.20535C1.59056 5.82434 1 6.86179 1 8.03718V15.9627C1 17.8591 2.53736 19.3965 4.4338 19.3965H11.2414C12.7128 19.3965 13.9667 18.4656 14.4465 17.1607L18.4928 21.207C18.8834 21.5976 19.5165 21.5976 19.9071 21.207C20.2976 20.8165 20.2976 20.1834 19.9071 19.7928L2.90706 2.79283Z" fill="white"/>
<path d="M16.1724 13.2582L20.7385 17.8243C21.8488 18.1063 23 17.2736 23 16.0563V7.94361C23 6.58379 21.5635 5.70386 20.3521 6.32167L17.4143 7.81996C16.6522 8.20864 16.1724 8.99188 16.1724 9.84739V13.2582Z" fill="white"/>
<path d="M7.5176 4.60338L14.6552 11.741V8.01719C14.6552 6.13179 13.1268 4.60338 11.2414 4.60338H7.5176Z" fill="white"/>
</svg>
