<svg width="24" height="24" viewBox="0 0 24 24" fill="none" xmlns="http://www.w3.org/2000/svg">
<path fill-rule="evenodd" clip-rule="evenodd" d="M13.7048 19.9152C13.1571 20.0333 12.5857 20.0952 12 20.0952C11.4143 20.0952 10.8429 20.0333 10.2952 19.9152C10.1731 19.889 10.047 19.8872 9.92413 19.9098C9.80128 19.9323 9.68408 19.9789 9.57925 20.0469C9.47442 20.1148 9.38402 20.2028 9.31323 20.3057C9.24243 20.4086 9.19263 20.5245 9.16667 20.6467C9.13974 20.7688 9.13726 20.895 9.15936 21.0181C9.18147 21.1412 9.22771 21.2587 9.29544 21.3639C9.36317 21.469 9.45104 21.5597 9.55398 21.6307C9.65692 21.7017 9.7729 21.7516 9.89524 21.7776C10.5762 21.9233 11.2762 22 12 22C12.7238 22 13.4286 21.9233 14.1048 21.7776C14.2271 21.7516 14.3431 21.7017 14.446 21.6307C14.549 21.5597 14.6368 21.469 14.7046 21.3639C14.7723 21.2587 14.8185 21.1412 14.8406 21.0181C14.8627 20.895 14.8603 20.7688 14.8333 20.6467C14.8074 20.5245 14.7576 20.4086 14.6868 20.3057C14.616 20.2028 14.5256 20.1148 14.4207 20.0469C14.3159 19.9789 14.1987 19.9323 14.0759 19.9098C13.953 19.8872 13.8269 19.889 13.7048 19.9152ZM7.60952 18.8024C6.64442 18.1771 5.82181 17.3557 5.19524 16.3914C5.12766 16.2864 5.04001 16.1957 4.93732 16.1247C4.83463 16.0536 4.71891 16.0034 4.59681 15.9772C4.47471 15.9509 4.34863 15.949 4.22579 15.9715C4.10294 15.9941 3.98576 16.0406 3.88095 16.1086C3.4381 16.3943 3.31429 16.9843 3.6 17.4257C4.3701 18.6174 5.38455 19.6318 6.57619 20.4019C7.01429 20.6876 7.60476 20.561 7.89048 20.1195C8.17619 19.6781 8.04762 19.0881 7.60952 18.8024ZM16.3905 5.19952C18.619 6.64238 20.0952 9.15 20.0952 12C20.0952 14.85 18.619 17.3576 16.3905 18.8005C15.9476 19.0862 15.8238 19.6762 16.1095 20.1176C16.3952 20.5586 16.9857 20.6852 17.4238 20.3995C20.1762 18.6171 22 15.5195 22 12C22 8.48048 20.1762 5.38286 17.4238 3.60048C16.9857 3.31476 16.3952 3.44143 16.1095 3.88238C15.8238 4.32381 15.9476 4.91381 16.3905 5.19952ZM17.7143 12C17.7143 11.3795 17.4 10.801 16.8762 10.4652L10.8762 6.60857C10.5481 6.3977 10.1662 6.28563 9.77619 6.28571C9.35714 6.28571 8.95238 6.45333 8.65714 6.75048C8.50908 6.89736 8.3916 7.07214 8.3115 7.26471C8.2314 7.45728 8.19027 7.66382 8.19048 7.87238V16.1271C8.19029 16.3355 8.23117 16.5419 8.31077 16.7344C8.39038 16.927 8.50715 17.1019 8.65442 17.2493C8.80168 17.3967 8.97655 17.5137 9.16903 17.5934C9.36151 17.6732 9.56783 17.7143 9.77619 17.7143C10.1667 17.7143 10.5476 17.6024 10.8762 17.3914L16.8762 13.5348C17.1334 13.3698 17.345 13.1427 17.4915 12.8745C17.6379 12.6063 17.7146 12.3056 17.7143 12ZM10.0952 15.6295L15.7429 12L10.0952 8.37048V15.6295ZM4.08571 13.7048C3.96667 13.1552 3.90476 12.5848 3.90476 12C3.90476 11.4152 3.96667 10.8448 4.08571 10.2952C4.13812 10.048 4.09034 9.79016 3.95287 9.57815C3.81539 9.36613 3.59944 9.2173 3.35238 9.16429C3.23027 9.13801 3.10418 9.13608 2.98132 9.15861C2.85847 9.18114 2.74126 9.22769 2.63643 9.29559C2.53159 9.36349 2.44118 9.45141 2.37038 9.55431C2.29957 9.6572 2.24977 9.77306 2.22381 9.89524C2.07619 10.5738 2 11.2781 2 12C2 12.7219 2.07619 13.4262 2.22381 14.1048C2.24977 14.2269 2.29957 14.3428 2.37038 14.4457C2.44118 14.5486 2.53159 14.6365 2.63643 14.7044C2.74126 14.7723 2.85847 14.8189 2.98132 14.8414C3.10418 14.8639 3.23027 14.862 3.35238 14.8357C3.59944 14.7827 3.81539 14.6339 3.95287 14.4219C4.09034 14.2098 4.13812 13.952 4.08571 13.7048ZM5.19524 7.60857C5.82181 6.64433 6.64442 5.82286 7.60952 5.19762C8.04762 4.9119 8.17619 4.3219 7.89048 3.88048C7.60476 3.43905 7.01429 3.31238 6.57619 3.5981C5.38455 4.36819 4.3701 5.38264 3.6 6.57429C3.31429 7.01571 3.4381 7.60571 3.88095 7.89143C4.32381 8.17667 4.91429 8.05 5.19524 7.60857ZM10.2952 4.08476C10.8429 3.96667 11.4143 3.90476 12 3.90476C12.5857 3.90476 13.1571 3.96667 13.7048 4.08476C13.8269 4.11097 13.953 4.11283 14.0759 4.09024C14.1987 4.06765 14.3159 4.02106 14.4207 3.95312C14.5256 3.88518 14.616 3.79723 14.6868 3.69431C14.7576 3.5914 14.8074 3.47552 14.8333 3.35333C14.8603 3.23121 14.8627 3.10496 14.8406 2.98186C14.8185 2.85877 14.7723 2.74127 14.7046 2.63614C14.6368 2.531 14.549 2.44032 14.446 2.3693C14.3431 2.29829 14.2271 2.24836 14.1048 2.22238C13.4286 2.07667 12.7238 2 12 2C11.2762 2 10.5762 2.07667 9.89524 2.22238C9.7729 2.24836 9.65692 2.29829 9.55398 2.3693C9.45104 2.44032 9.36317 2.531 9.29544 2.63614C9.22771 2.74127 9.18147 2.85877 9.15936 2.98186C9.13726 3.10496 9.13974 3.23121 9.16667 3.35333C9.19263 3.47552 9.24243 3.5914 9.31323 3.69431C9.38402 3.79723 9.47442 3.88518 9.57925 3.95312C9.68408 4.02106 9.80128 4.06765 9.92413 4.09024C10.047 4.11283 10.1731 4.11097 10.2952 4.08476Z" fill="white"/>
</svg>
