<svg width="24" height="24" viewBox="0 0 24 24" fill="none" xmlns="http://www.w3.org/2000/svg">
<path fill-rule="evenodd" clip-rule="evenodd" d="M4.00056 5.06947L5.01702 4L19.2075 18.9305L18.191 20L15.8459 17.541L15.5098 17.1874C14.4293 17.6421 13.2448 17.8947 12.0042 17.8947C8.00238 17.8947 4.58482 15.2758 3.2002 11.5789C3.82448 9.91158 4.86495 8.46316 6.19355 7.37684L4.00056 5.06947ZM16.006 11.579C16.006 9.25476 14.2131 7.36845 12.0041 7.36845C11.4839 7.36845 10.9957 7.47792 10.5395 7.6716L8.81068 5.85266C9.80313 5.47371 10.8756 5.26318 11.9961 5.26318C15.9979 5.26318 19.4155 7.88213 20.8001 11.579C20.2159 13.1453 19.2634 14.5179 18.0549 15.579L15.7178 13.12C15.9019 12.64 16.006 12.1263 16.006 11.579ZM8.4266 9.72627L9.66717 11.0315C9.62715 11.2084 9.60314 11.3936 9.60314 11.5789C9.60314 12.9768 10.6756 14.1052 12.0042 14.1052C12.1803 14.1052 12.3564 14.08 12.5245 14.0379L13.765 15.3431C13.2288 15.621 12.6365 15.7894 12.0042 15.7894C9.79523 15.7894 8.00241 13.9031 8.00241 11.5789C8.00241 10.9136 8.16248 10.2905 8.4266 9.72627ZM14.3973 11.7221L11.8762 9.06945L12.0123 9.06103C13.3409 9.06103 14.4133 10.1894 14.4133 11.5873L14.3973 11.7221Z" fill="white"/>
</svg>
