<svg width="24" height="24" viewBox="0 0 24 24" fill="none" xmlns="http://www.w3.org/2000/svg">
<path fill-rule="evenodd" clip-rule="evenodd" d="M12.0002 6C8.0002 6 4.5842 8.488 3.2002 12C4.5842 15.512 8.0002 18 12.0002 18C16.0002 18 19.4162 15.512 20.8002 12C19.4162 8.488 16.0002 6 12.0002 6ZM12.0002 15.9999C9.79218 15.9999 8.00018 14.2079 8.00018 11.9999C8.00018 9.79194 9.79218 7.99994 12.0002 7.99994C14.2082 7.99994 16.0002 9.79194 16.0002 11.9999C16.0002 14.2079 14.2082 15.9999 12.0002 15.9999ZM9.6002 12C9.6002 10.672 10.6722 9.60002 12.0002 9.60002C13.3282 9.60002 14.4002 10.672 14.4002 12C14.4002 13.328 13.3282 14.4 12.0002 14.4C10.6722 14.4 9.6002 13.328 9.6002 12Z" fill="white"/>
</svg>
