<svg width="24" height="24" viewBox="0 0 24 24" fill="none" xmlns="http://www.w3.org/2000/svg">
<path d="M4.5 8.92132C3.67157 8.92132 3 9.59289 3 10.4213V13.5787C3 14.4071 3.67157 15.0787 4.5 15.0787H6.68364C6.88592 15.0787 7.07962 15.1604 7.22079 15.3052L10.7128 18.8889C11.1824 19.3708 12 19.0383 12 18.3655V5.63451C12 4.96164 11.1824 4.62918 10.7129 5.11109L7.22079 8.69474C7.07962 8.83961 6.88592 8.92132 6.68364 8.92132H4.5ZM16.5 12C16.5 10.5423 15.8431 9.24979 14.8187 8.40366C14.4727 8.11787 14 8.39778 14 8.84655V15.1492C14 15.5965 14.4701 15.8767 14.8161 15.5932C15.842 14.7524 16.5 13.4589 16.5 12ZM15.2693 3.39917C14.6373 3.1464 14 3.65088 14 4.33155C14 4.79644 14.3075 5.19925 14.7337 5.38501C17.2402 6.47758 19 9.02909 19 12C19 14.9709 17.2402 17.5224 14.7337 18.615C14.3075 18.8007 14 19.2035 14 19.6684C14 20.3491 14.6373 20.8536 15.2693 20.6008C18.6248 19.2588 21 15.9147 21 12C21 8.08529 18.6248 4.74123 15.2693 3.39917Z" fill="white"/>
</svg>
