<svg width="24" height="24" viewBox="0 0 24 24" fill="none" xmlns="http://www.w3.org/2000/svg">
<path d="M4.5 8.92214C3.67157 8.92214 3 9.59372 3 10.4221V13.5795C3 14.4079 3.67157 15.0795 4.5 15.0795H6.68364C6.88592 15.0795 7.07962 15.1612 7.22079 15.3061L10.7128 18.8897C11.1824 19.3716 12 19.0392 12 18.3663V5.63534C12 4.96247 11.1824 4.63001 10.7129 5.11192L7.22079 8.69557C7.07962 8.84044 6.88592 8.92214 6.68364 8.92214H4.5Z" fill="white"/>
<path d="M18.9441 11.9884L21.8042 9.12831C22.0653 8.86729 22.0653 8.44521 21.8042 8.18419L18.4721 4.85202C18.211 4.59099 17.789 4.59099 17.5279 4.85202C17.4002 4.97975 17.3336 5.14636 17.3336 5.32407V10.3779L15.1399 8.18419C14.8789 7.92317 14.4568 7.92317 14.1958 8.18419C13.9347 8.44521 13.9347 8.86729 14.1958 9.12831L17.0559 11.9884L14.1958 14.8485C13.9347 15.1096 13.9347 15.5316 14.1958 15.7927C14.4568 16.0537 14.8789 16.0537 15.1399 15.7927L17.3336 13.599V18.6528C17.3336 19.0193 17.6335 19.3192 18 19.3192C18.1777 19.3192 18.3443 19.247 18.4721 19.1248L21.8042 15.7927C22.0653 15.5316 22.0653 15.1096 21.8042 14.8485L18.9441 11.9884ZM18.6664 6.93463L20.3881 8.65625L18.6664 10.3779V6.93463ZM18.6664 17.0422V13.599L20.3881 15.3206L18.6664 17.0422Z" fill="white"/>
</svg>
