<svg width="24" height="24" viewBox="0 0 24 24" fill="none" xmlns="http://www.w3.org/2000/svg">
<path fill-rule="evenodd" clip-rule="evenodd" d="M3.46455 5.29289C3.07403 4.90237 3.07403 4.2692 3.46455 3.87868C3.85332 3.48991 4.48254 3.48816 4.87347 3.87342C4.87521 3.87519 4.87697 3.87696 4.87873 3.87872L19.1214 18.1214C19.1231 18.1231 19.1249 18.1249 19.1267 18.1266C19.5119 18.5176 19.5102 19.1468 19.1214 19.5355C18.7309 19.9261 18.0977 19.9261 17.7072 19.5355L11.7468 13.5752C11.0869 15.5648 9.21106 17 7 17C4.23858 17 2 14.7614 2 12C2 9.78891 3.43519 7.91305 5.42481 7.25315L3.46455 5.29289ZM9.99488 11.8232L7.17675 9.00509C7.11827 9.00169 7.05934 8.99997 7 8.99997C5.34315 8.99997 4 10.3431 4 12C4 13.6568 5.34315 15 7 15C8.65685 15 10 13.6568 10 12C10 11.9406 9.99828 11.8817 9.99488 11.8232Z" fill="white"/>
<path d="M18 14.1716V13L20 13L20 15C20 15.5523 20.4477 16 21 16C21.5523 16 22 15.5523 22 15L22 13C22.5523 13 23 12.5523 23 12C23 11.4477 22.5523 11 22 11L14.8284 11L18 14.1716Z" fill="white"/>
</svg>
