<svg width="24" height="24" viewBox="0 0 24 24" fill="none" xmlns="http://www.w3.org/2000/svg">
<path fill-rule="evenodd" clip-rule="evenodd" d="M11.9 13C11.4367 15.2822 9.41896 17 7 17C4.23858 17 2 14.7614 2 12C2 9.23858 4.23858 7 7 7C9.41896 7 11.4367 8.71776 11.9 11H22C22.5523 11 23 11.4477 23 12C23 12.5523 22.5523 13 22 13V15C22 15.5523 21.5523 16 21 16C20.4477 16 20 15.5523 20 15V13H18V15C18 15.5523 17.5523 16 17 16C16.4477 16 16 15.5523 16 15V13H11.9ZM10 12C10 13.6569 8.65685 15 7 15C5.34315 15 4 13.6569 4 12C4 10.3431 5.34315 9 7 9C8.65685 9 10 10.3431 10 12Z" fill="white"/>
</svg>
