<svg width="24" height="24" viewBox="0 0 24 24" fill="none" xmlns="http://www.w3.org/2000/svg">
<path fill-rule="evenodd" clip-rule="evenodd" d="M6.49091 5.00006C6.49091 4.44778 6.93862 4.00006 7.49091 4.00006C8.04319 4.00006 8.49091 4.44778 8.49091 5.00006V11.1423C9.94132 11.5697 11 12.9112 11 14.5001C11 16.0889 9.94132 17.4305 8.49091 17.8578V19.0001C8.49091 19.5523 8.04319 20.0001 7.49091 20.0001C6.93862 20.0001 6.49091 19.5523 6.49091 19.0001V17.8524C5.04984 17.4192 4 16.0822 4 14.5001C4 12.9179 5.04984 11.5809 6.49091 11.1477V5.00006ZM6 14.5001C6 13.6716 6.67157 13.0001 7.5 13.0001C8.32843 13.0001 9 13.6716 9 14.5001C9 15.3285 8.32843 16.0001 7.5 16.0001C6.67157 16.0001 6 15.3285 6 14.5001Z" fill="white"/>
<path fill-rule="evenodd" clip-rule="evenodd" d="M15.514 19.0001C15.514 19.5523 15.9618 20.0001 16.514 20.0001C17.0663 20.0001 17.514 19.5523 17.514 19.0001V13.0001C17.514 12.9505 17.5104 12.9017 17.5035 12.8541C18.9474 12.4227 20 11.0843 20 9.50006C20 7.91969 18.9526 6.58396 17.514 6.14921V5.00006C17.514 4.44778 17.0663 4.00006 16.514 4.00006C15.9618 4.00006 15.514 4.44778 15.514 5.00006V6.14085C14.0611 6.56661 13 7.90942 13 9.50006C13 11.0941 14.0657 12.4393 15.5235 12.862C15.5173 12.9071 15.514 12.9532 15.514 13.0001V19.0001ZM15 9.50006C15 10.3285 15.6716 11.0001 16.5 11.0001C17.3284 11.0001 18 10.3285 18 9.50006C18 8.67163 17.3284 8.00006 16.5 8.00006C15.6716 8.00006 15 8.67163 15 9.50006Z" fill="white"/>
</svg>
